<svg width="591" height="224" viewBox="0 0 591 224" fill="none" xmlns="http://www.w3.org/2000/svg">
<path d="M522.485 220V179.96H416.225V148.544L517.249 4.39999H561.909V145.772H590.245V179.96H561.909V220H522.485ZM458.421 145.772H524.949V47.828L458.421 145.772Z" fill="#F3F4FF"/>
<path d="M293.653 223.696C273.735 223.696 256.693 219.076 242.525 209.836C228.357 200.391 217.371 187.352 209.569 170.72C201.971 153.883 198.173 134.376 198.173 112.2C198.173 90.2293 201.971 70.8253 209.569 53.988C217.371 37.1506 228.357 24.112 242.525 14.872C256.693 5.42664 273.735 0.703979 293.653 0.703979C313.57 0.703979 330.613 5.42664 344.781 14.872C358.949 24.112 369.831 37.1506 377.429 53.988C385.231 70.8253 389.133 90.2293 389.133 112.2C389.133 134.376 385.231 153.883 377.429 170.72C369.831 187.352 358.949 200.391 344.781 209.836C330.613 219.076 313.57 223.696 293.653 223.696ZM293.653 188.276C309.874 188.276 323.118 181.5 333.385 167.948C343.651 154.396 348.785 135.813 348.785 112.2C348.785 88.5866 343.651 70.004 333.385 56.452C323.118 42.9 309.874 36.124 293.653 36.124C277.226 36.124 263.879 42.9 253.613 56.452C243.551 70.004 238.521 88.5866 238.521 112.2C238.521 135.813 243.551 154.396 253.613 167.948C263.879 181.5 277.226 188.276 293.653 188.276Z" fill="#F3F4FF"/>
<path d="M106.504 220V179.96H0.244141V148.544L101.268 4.39999H145.928V145.772H174.264V179.96H145.928V220H106.504ZM42.4401 145.772H108.968V47.828L42.4401 145.772Z" fill="#F3F4FF"/>
</svg>
