<svg width="58" height="52" viewBox="0 0 58 52" fill="none" xmlns="http://www.w3.org/2000/svg">
<circle cx="38" cy="32" r="20" fill="#F3F4FF"/>
<path d="M37.7778 36.0889L31.6223 29.9333C34.4753 26.6428 35.9399 22.3735 35.7078 18.0246C35.4757 13.6756 33.5649 9.58647 30.3779 6.61832C27.1908 3.65017 22.9763 2.03469 18.6218 2.11209C14.2674 2.1895 10.1129 3.95376 7.03336 7.0333C3.95382 10.1128 2.18956 14.2673 2.11216 18.6218C2.03475 22.9762 3.65024 27.1908 6.61838 30.3778C9.58653 33.5648 13.6757 35.4756 18.0246 35.7078C22.3736 35.9399 26.6429 34.4752 29.9334 31.6222L36.0889 37.7778L37.7778 36.0889ZM4.61116 18.9778C4.60897 16.1358 5.44969 13.3571 7.02698 10.9931C8.60427 8.629 10.8473 6.78586 13.4722 5.69678C16.0972 4.6077 18.9862 4.3216 21.7738 4.87469C24.5614 5.42777 27.1223 6.79519 29.1327 8.80396C31.143 10.8127 32.5124 13.3726 33.0676 16.1598C33.6229 18.9469 33.339 21.8362 32.252 24.462C31.1649 27.0878 29.3235 29.3322 26.9607 30.9113C24.5978 32.4905 21.8198 33.3333 18.9778 33.3333C15.1704 33.3304 11.5196 31.8173 8.82623 29.1261C6.13292 26.4349 4.61705 22.7852 4.61116 18.9778Z" fill="url(#paint0_linear_64_9633)"/>
<path d="M11.8 15.3889H26.1667V17.7778H11.8V15.3889Z" fill="url(#paint1_linear_64_9633)"/>
<path d="M11.8 20.1778H18.9778V22.5667H11.8V20.1778Z" fill="url(#paint2_linear_64_9633)"/>
<defs>
<linearGradient id="paint0_linear_64_9633" x1="19.9437" y1="2.10944" x2="19.9437" y2="37.7778" gradientUnits="userSpaceOnUse">
<stop stop-color="#5D68F1"/>
<stop offset="1" stop-color="#A38CE6"/>
</linearGradient>
<linearGradient id="paint1_linear_64_9633" x1="18.9834" y1="15.3889" x2="18.9834" y2="17.7778" gradientUnits="userSpaceOnUse">
<stop stop-color="#5D68F1"/>
<stop offset="1" stop-color="#A38CE6"/>
</linearGradient>
<linearGradient id="paint2_linear_64_9633" x1="15.3889" y1="20.1778" x2="15.3889" y2="22.5667" gradientUnits="userSpaceOnUse">
<stop stop-color="#5D68F1"/>
<stop offset="1" stop-color="#A38CE6"/>
</linearGradient>
</defs>
</svg>
