<svg width="31" height="30" viewBox="0 0 31 30" fill="none" xmlns="http://www.w3.org/2000/svg">
<g clip-path="url(#clip0_58_6173)">
<path d="M11.0214 29.7933C16.2131 29.7933 20.4974 25.8323 21.0189 20.7709C26.0804 20.2494 30.0413 15.9651 30.0413 10.7734C30.0413 5.22456 25.5274 0.710655 19.9791 0.710655C14.7873 0.710655 10.503 4.67145 9.98148 9.73355C4.91949 10.255 0.958588 14.5394 0.958588 19.7312C0.958697 25.2795 5.47249 29.7933 11.0214 29.7933ZM19.9791 2.89816C24.321 2.89816 27.8538 6.43097 27.8538 10.7734C27.8538 14.7623 24.8652 18.0665 21.0062 18.5706C20.534 14.0493 16.7031 10.2185 12.1819 9.74634C12.686 5.88726 15.9902 2.89816 19.9791 2.89816ZM11.0214 11.8671C15.3575 11.8671 18.8854 15.3951 18.8854 19.7311C18.8854 24.0729 15.3574 27.6058 11.0214 27.6058C6.67901 27.6058 3.1462 24.0729 3.1462 19.7311C3.1462 15.395 6.67901 11.8671 11.0214 11.8671Z" fill="url(#paint0_linear_58_6173)"/>
</g>
<defs>
<linearGradient id="paint0_linear_58_6173" x1="15.4999" y1="0.710655" x2="15.4999" y2="29.7933" gradientUnits="userSpaceOnUse">
<stop stop-color="#5D68F1"/>
<stop offset="1" stop-color="#A38CE6"/>
</linearGradient>
<clipPath id="clip0_58_6173">
<rect width="31" height="30" fill="white"/>
</clipPath>
</defs>
</svg>
