<svg width="30" height="30" viewBox="0 0 30 30" fill="none" xmlns="http://www.w3.org/2000/svg">
<path d="M15 28.875L14.5 28.625C7.875 25.375 3.375 18.75 2.875 11.5L2.375 6.625L3.25 6.375C6.5 5.25 7.5 2.125 7.625 2.125L7.875 1.25H22.125L22.375 2.125C23.375 5.25 26.5 6.375 26.625 6.375L27.5 6.625L27.125 11.5C26.5 18.75 22.125 25.375 15.5 28.625L15 28.875ZM5.125 8.375L5.375 11.25C5.875 17.5 9.625 23.125 15 26.125C20.5 23.125 24.125 17.5 24.625 11.25L24.875 8.25C23.75 7.625 21.625 6.25 20.375 3.75H9.625C9 5 7.625 7.125 5.125 8.375Z" fill="url(#paint0_linear_3_1247)"/>
<defs>
<linearGradient id="paint0_linear_3_1247" x1="14.9375" y1="1.25" x2="14.9375" y2="28.875" gradientUnits="userSpaceOnUse">
<stop stop-color="#5D68F1"/>
<stop offset="1" stop-color="#A38CE6"/>
</linearGradient>
</defs>
</svg>
