<svg width="58" height="52" viewBox="0 0 58 52" fill="none" xmlns="http://www.w3.org/2000/svg">
<circle cx="38" cy="32" r="20" fill="#F3F4FF"/>
<path d="M34.8556 10C34.3093 9.44265 33.6576 8.99944 32.9385 8.69615C32.2194 8.39287 31.4472 8.23555 30.6667 8.23334H29.4778V8.14445C29.4749 6.57468 28.85 5.07005 27.74 3.96005C26.63 2.85006 25.1254 2.22517 23.5556 2.22223H9.33338C7.76342 2.22641 6.25837 2.84919 5.14449 3.95556C4.59315 4.50464 4.1561 5.15754 3.85859 5.87653C3.56108 6.59552 3.409 7.36634 3.41116 8.14445V31.8556C3.409 32.6337 3.56108 33.4045 3.85859 34.1235C4.1561 34.8425 4.59315 35.4954 5.14449 36.0445C6.25837 37.1508 7.76342 37.7736 9.33338 37.7778H23.5556C25.1254 37.7748 26.63 37.15 27.74 36.04C28.85 34.93 29.4749 33.4253 29.4778 31.8556V26.7445H30.6667C32.2367 26.7403 33.7417 26.1175 34.8556 25.0111C35.4069 24.462 35.844 23.8091 36.1415 23.0902C36.439 22.3712 36.5911 21.6003 36.5889 20.8222V14.1556C36.5844 12.5955 35.961 11.1009 34.8556 10ZM27.0778 31.8889C27.0778 32.8319 26.7032 33.7363 26.0364 34.4031C25.3696 35.0699 24.4653 35.4445 23.5223 35.4445H9.33338C8.39149 35.4404 7.48919 35.0651 6.82227 34.4C6.49093 34.0712 6.22803 33.68 6.04876 33.249C5.86949 32.818 5.77741 32.3557 5.77782 31.8889V8.14445C5.77741 7.67765 5.86949 7.21539 6.04876 6.78438C6.22803 6.35337 6.49093 5.96216 6.82227 5.63334C7.48919 4.96822 8.39149 4.59293 9.33338 4.5889H23.5556C24.4986 4.5889 25.403 4.9635 26.0698 5.63029C26.7366 6.29709 27.1112 7.20146 27.1112 8.14445V8.22223H21.1889C19.6088 8.23527 18.0983 8.87462 16.9889 10C16.4376 10.5491 16.0005 11.202 15.703 11.921C15.4055 12.64 15.2534 13.4108 15.2556 14.1889V22.1556C15.263 23.1716 15.6042 24.1569 16.2266 24.96C16.8489 25.7631 17.718 26.3393 18.7 26.6V27.1222C18.7051 27.5731 18.8388 28.0131 19.0855 28.3905C19.3321 28.7679 19.6814 29.067 20.0923 29.2526C20.5032 29.4382 20.9586 29.5026 21.4048 29.4381C21.851 29.3737 22.2696 29.1831 22.6112 28.8889L25.1445 26.7222H27.1112L27.0778 31.8889ZM34.1889 20.8556C34.191 21.7823 33.8277 22.6726 33.1778 23.3333C32.5109 23.9985 31.6086 24.3738 30.6667 24.3778H24.7C24.4183 24.3802 24.1466 24.4826 23.9334 24.6667L21.1112 27.1111C21.1112 25.0667 21.1112 24.3778 19.9223 24.3778C19.3329 24.3778 18.7677 24.1437 18.3509 23.7269C17.9342 23.3102 17.7 22.7449 17.7 22.1556V14.1556C17.7 13.2126 18.0746 12.3082 18.7414 11.6414C19.4082 10.9746 20.3126 10.6 21.2556 10.6H30.6667C31.6097 10.6 32.5141 10.9746 33.1809 11.6414C33.8477 12.3082 34.2223 13.2126 34.2223 14.1556L34.1889 20.8556Z" fill="url(#paint0_linear_64_9681)"/>
<defs>
<linearGradient id="paint0_linear_64_9681" x1="20" y1="2.22223" x2="20" y2="37.7778" gradientUnits="userSpaceOnUse">
<stop stop-color="#5D68F1"/>
<stop offset="1" stop-color="#A38CE6"/>
</linearGradient>
</defs>
</svg>
