<svg width="40" height="40" viewBox="0 0 40 40" fill="none" xmlns="http://www.w3.org/2000/svg">
<path d="M34 6.25H6C3.375 6.25 1.25 8.375 1.25 11V29C1.25 31.625 3.375 33.75 6 33.75H34C36.625 33.75 38.75 31.625 38.75 29V11C38.75 8.375 36.625 6.25 34 6.25ZM36.25 29C36.25 30.2375 35.2375 31.25 34 31.25H6C4.7625 31.25 3.75 30.2375 3.75 29V11C3.75 9.7625 4.7625 8.75 6 8.75H34C35.2375 8.75 36.25 9.7625 36.25 11V29Z" fill="url(#paint0_linear_6_1658)"/>
<path d="M12.5 26.25H7.5C6.80975 26.25 6.25 26.8097 6.25 27.5C6.25 28.1903 6.80975 28.75 7.5 28.75H12.5C13.1902 28.75 13.75 28.1903 13.75 27.5C13.75 26.8097 13.1902 26.25 12.5 26.25Z" fill="url(#paint1_linear_6_1658)"/>
<path d="M32.5 12.5H7.5C6.80975 12.5 6.25 13.0597 6.25 13.75C6.25 14.4403 6.80975 15 7.5 15H32.5C33.1903 15 33.75 14.4403 33.75 13.75C33.75 13.0597 33.1903 12.5 32.5 12.5Z" fill="url(#paint2_linear_6_1658)"/>
<defs>
<linearGradient id="paint0_linear_6_1658" x1="20" y1="6.25" x2="20" y2="33.75" gradientUnits="userSpaceOnUse">
<stop stop-color="#5D68F1"/>
<stop offset="1" stop-color="#A38CE6"/>
</linearGradient>
<linearGradient id="paint1_linear_6_1658" x1="10" y1="26.25" x2="10" y2="28.75" gradientUnits="userSpaceOnUse">
<stop stop-color="#5D68F1"/>
<stop offset="1" stop-color="#A38CE6"/>
</linearGradient>
<linearGradient id="paint2_linear_6_1658" x1="20" y1="12.5" x2="20" y2="15" gradientUnits="userSpaceOnUse">
<stop stop-color="#5D68F1"/>
<stop offset="1" stop-color="#A38CE6"/>
</linearGradient>
</defs>
</svg>
