<svg width="58" height="52" viewBox="0 0 58 52" fill="none" xmlns="http://www.w3.org/2000/svg">
<circle cx="38" cy="32" r="20" fill="#F3F4FF"/>
<path d="M31.8555 36.5889H8.14439C6.57372 36.5889 5.06738 35.965 3.95675 34.8543C2.84611 33.7437 2.22217 32.2374 2.22217 30.6667V9.33336C2.2251 7.76359 2.84999 6.25895 3.95999 5.14896C5.06999 4.03896 6.57462 3.41407 8.14439 3.41113H33.0333V5.7778H8.14439C7.2014 5.7778 6.29703 6.1524 5.63023 6.8192C4.96344 7.48599 4.58883 8.39036 4.58883 9.33336V30.6667C4.58883 31.6097 4.96344 32.5141 5.63023 33.1808C6.29703 33.8476 7.2014 34.2222 8.14439 34.2222H31.8555C32.7985 34.2222 33.7029 33.8476 34.3697 33.1808C35.0365 32.5141 35.4111 31.6097 35.4111 30.6667V14.0778C35.4111 13.1348 35.0365 12.2304 34.3697 11.5636C33.7029 10.8968 32.7985 10.5222 31.8555 10.5222H9.33328V8.14447H31.8555C32.6342 8.14447 33.4052 8.29802 34.1244 8.59633C34.8437 8.89464 35.497 9.33186 36.0471 9.88297C36.5972 10.4341 37.0332 11.0883 37.3301 11.8081C37.6271 12.5279 37.7792 13.2991 37.7777 14.0778V30.6667C37.7777 32.2374 37.1538 33.7437 36.0431 34.8543C34.9325 35.965 33.4262 36.5889 31.8555 36.5889Z" fill="url(#paint0_linear_64_9645)"/>
<defs>
<linearGradient id="paint0_linear_64_9645" x1="20" y1="3.41113" x2="20" y2="36.5889" gradientUnits="userSpaceOnUse">
<stop stop-color="#5D68F1"/>
<stop offset="1" stop-color="#A38CE6"/>
</linearGradient>
</defs>
</svg>
