<svg width="58" height="52" viewBox="0 0 58 52" fill="none" xmlns="http://www.w3.org/2000/svg">
<circle cx="38" cy="32" r="20" fill="#F3F4FF"/>
<path fill-rule="evenodd" clip-rule="evenodd" d="M13.8 2.85C14.2971 2.18726 15.2373 2.05294 15.9 2.55L20.9 6.3C21.4165 6.68738 21.6272 7.36182 21.423 7.97434C21.2189 8.58685 20.6456 9 20 9C13.2034 9 7.75 14.4534 7.75 21.25C7.75 28.0466 13.2034 33.5 20 33.5C26.7966 33.5 32.25 28.0466 32.25 21.25C32.25 16.1216 29.1299 11.7868 24.8057 10.0127C24.0392 9.69832 23.6728 8.8221 23.9872 8.05566C24.3017 7.28923 25.1779 6.92281 25.9443 7.23724C31.3701 9.46321 35.25 14.8784 35.25 21.25C35.25 29.7034 28.4534 36.5 20 36.5C11.5466 36.5 4.75 29.7034 4.75 21.25C4.75 14.1284 9.5737 8.1827 16.148 6.486L14.1 4.95C13.4373 4.45294 13.3029 3.51274 13.8 2.85Z" fill="url(#paint0_linear_64_9693)"/>
<defs>
<linearGradient id="paint0_linear_64_9693" x1="20" y1="2.24991" x2="20" y2="36.5" gradientUnits="userSpaceOnUse">
<stop stop-color="#5D68F1"/>
<stop offset="1" stop-color="#A38CE6"/>
</linearGradient>
</defs>
</svg>
