<svg width="40" height="40" viewBox="0 0 40 40" fill="none" xmlns="http://www.w3.org/2000/svg">
<path d="M19.2765 4C14.3543 4 10.3389 8.14689 10.3389 13.2131C10.3389 16.31 11.8445 19.0539 14.1359 20.7229C8.79141 22.927 5 28.3053 5 34.5808C5.00818 34.9601 5.1603 35.3209 5.42379 35.5861C5.68728 35.8514 6.04119 36 6.40976 36C6.77832 36 7.13224 35.8514 7.39573 35.5861C7.65922 35.3209 7.81134 34.9601 7.81951 34.5808C7.81951 27.9208 13.0369 22.5536 19.5078 22.5536C21.7666 22.5536 23.8633 23.2164 25.648 24.3532C25.806 24.4542 25.9818 24.5221 26.1654 24.5531C26.349 24.584 26.5367 24.5774 26.7177 24.5336C26.8988 24.4898 27.0697 24.4097 27.2207 24.2978C27.3716 24.186 27.4997 24.0447 27.5974 23.8818C27.6952 23.7189 27.7608 23.5378 27.7905 23.3487C27.8201 23.1597 27.8133 22.9665 27.7703 22.7802C27.7273 22.594 27.6491 22.4182 27.5401 22.2631C27.431 22.108 27.2933 21.9766 27.1348 21.8763C26.3307 21.3641 25.4577 20.9631 24.5576 20.6181C26.775 18.9405 28.2279 16.2482 28.2279 13.2131C28.2279 8.14689 24.1988 4 19.2765 4ZM19.2765 6.90466C22.675 6.90466 25.4084 9.7152 25.4084 13.2131C25.4084 16.7109 22.675 19.5101 19.2765 19.5101C15.878 19.5101 13.1584 16.7109 13.1584 13.2131C13.1584 9.7152 15.878 6.90466 19.2765 6.90466ZM33.5448 24.3193C33.3157 24.3261 33.0916 24.3901 32.892 24.5062C32.6924 24.6222 32.5233 24.7867 32.3994 24.9852L27.5396 32.481L24.4915 30.381C24.337 30.274 24.1634 30.1995 23.9808 30.1617C23.7982 30.1239 23.6102 30.1236 23.4275 30.1607C23.2448 30.1979 23.071 30.2719 22.9161 30.3783C22.7611 30.4847 22.6282 30.6215 22.5247 30.7809C22.4213 30.9404 22.3494 31.1191 22.3133 31.3071C22.2771 31.4952 22.2774 31.6889 22.314 31.8768C22.3507 32.0647 22.423 32.2434 22.5269 32.4025C22.6308 32.5616 22.7641 32.698 22.9193 32.804L27.1569 35.706C27.3112 35.8114 27.4843 35.8845 27.6661 35.921C27.8479 35.9575 28.0349 35.9567 28.2165 35.9188C28.398 35.8809 28.5705 35.8066 28.7242 35.7001C28.8778 35.5935 29.0095 35.4569 29.1118 35.2979L34.7536 26.5893C34.9007 26.368 34.9854 26.1092 34.9983 25.8414C35.0111 25.5736 34.9517 25.3073 34.8265 25.0722C34.7013 24.8371 34.5152 24.6423 34.289 24.5094C34.0628 24.3765 33.8052 24.3106 33.5448 24.3193Z" fill="url(#paint0_linear_6_1688)"/>
<defs>
<linearGradient id="paint0_linear_6_1688" x1="20" y1="4" x2="20" y2="36" gradientUnits="userSpaceOnUse">
<stop stop-color="#5D68F1"/>
<stop offset="1" stop-color="#A38CE6"/>
</linearGradient>
</defs>
</svg>
