<svg width="58" height="52" viewBox="0 0 58 52" fill="none" xmlns="http://www.w3.org/2000/svg">
<circle cx="38" cy="32" r="20" fill="#F3F4FF"/>
<g clip-path="url(#clip0_64_9621)">
<path d="M28 40H12C8.81842 39.9967 5.76809 38.7313 3.51837 36.4816C1.26865 34.2319 0.00330898 31.1816 0 28V12C0.00330898 8.81842 1.26865 5.76809 3.51837 3.51837C5.76809 1.26865 8.81842 0.00330898 12 0L28 0C31.1816 0.00330898 34.2319 1.26865 36.4816 3.51837C38.7313 5.76809 39.9967 8.81842 40 12V28C39.9967 31.1816 38.7313 34.2319 36.4816 36.4816C34.2319 38.7313 31.1816 39.9967 28 40ZM12 2.6625C9.52456 2.66581 7.15145 3.65064 5.40104 5.40104C3.65064 7.15145 2.66581 9.52456 2.6625 12V28C2.66581 30.4754 3.65064 32.8486 5.40104 34.599C7.15145 36.3494 9.52456 37.3342 12 37.3375H28C30.4754 37.3342 32.8486 36.3494 34.599 34.599C36.3494 32.8486 37.3342 30.4754 37.3375 28V12C37.3342 9.52456 36.3494 7.15145 34.599 5.40104C32.8486 3.65064 30.4754 2.66581 28 2.6625H12Z" fill="url(#paint0_linear_64_9621)"/>
<path d="M20 22.6625C18.4178 22.6625 16.871 22.1933 15.5554 21.3142C14.2398 20.4352 13.2145 19.1858 12.609 17.7239C12.0035 16.2621 11.845 14.6536 12.1537 13.1018C12.4624 11.5499 13.2243 10.1244 14.3432 9.00562C15.462 7.8868 16.8874 7.12488 18.4393 6.8162C19.9911 6.50752 21.5997 6.66594 23.0615 7.27144C24.5233 7.87694 25.7727 8.90232 26.6518 10.2179C27.5308 11.5335 28 13.0802 28 14.6625C27.9967 16.7832 27.1528 18.8161 25.6532 20.3157C24.1536 21.8153 22.1207 22.6592 20 22.6625ZM20 9.33748C18.9443 9.33748 17.9124 9.65052 17.0346 10.237C16.1569 10.8235 15.4728 11.6571 15.0688 12.6324C14.6648 13.6077 14.5591 14.6809 14.7651 15.7163C14.971 16.7516 15.4794 17.7027 16.2258 18.4492C16.9723 19.1956 17.9233 19.704 18.9587 19.9099C19.9941 20.1159 21.0673 20.0102 22.0426 19.6062C23.0179 19.2022 23.8515 18.5181 24.438 17.6403C25.0245 16.7626 25.3375 15.7306 25.3375 14.675C25.3375 13.2594 24.7752 11.9018 23.7742 10.9008C22.7732 9.89982 21.4156 9.33748 20 9.33748Z" fill="url(#paint1_linear_64_9621)"/>
<path d="M29.35 30.825C29.0167 30.8257 28.6953 30.7007 28.45 30.475C26.7323 28.874 24.4732 27.9811 22.125 27.975H17.8875C15.5394 27.9811 13.2803 28.874 11.5625 30.475C11.4346 30.6028 11.2821 30.7033 11.1143 30.7705C10.9464 30.8376 10.7667 30.8701 10.586 30.8659C10.4052 30.8616 10.2272 30.8208 10.0627 30.7458C9.89815 30.6708 9.75054 30.5633 9.62875 30.4297C9.50696 30.296 9.41353 30.1391 9.3541 29.9684C9.29467 29.7976 9.27048 29.6166 9.28299 29.4362C9.29549 29.2558 9.34444 29.0799 9.42686 28.919C9.50929 28.7581 9.62348 28.6155 9.76255 28.5C11.9773 26.4623 14.878 25.3332 17.8875 25.3375H22.1125C25.1297 25.3369 28.036 26.4753 30.25 28.525C30.4446 28.7076 30.58 28.9442 30.639 29.2044C30.698 29.4646 30.6778 29.7365 30.581 29.9852C30.4842 30.2338 30.3153 30.4478 30.096 30.5997C29.8766 30.7516 29.6168 30.8344 29.35 30.8375V30.825Z" fill="url(#paint2_linear_64_9621)"/>
</g>
<defs>
<linearGradient id="paint0_linear_64_9621" x1="20" y1="0" x2="20" y2="40" gradientUnits="userSpaceOnUse">
<stop stop-color="#5D68F1"/>
<stop offset="1" stop-color="#A38CE6"/>
</linearGradient>
<linearGradient id="paint1_linear_64_9621" x1="20" y1="6.66248" x2="20" y2="22.6625" gradientUnits="userSpaceOnUse">
<stop stop-color="#5D68F1"/>
<stop offset="1" stop-color="#A38CE6"/>
</linearGradient>
<linearGradient id="paint2_linear_64_9621" x1="19.9759" y1="25.3375" x2="19.9759" y2="30.8662" gradientUnits="userSpaceOnUse">
<stop stop-color="#5D68F1"/>
<stop offset="1" stop-color="#A38CE6"/>
</linearGradient>
<clipPath id="clip0_64_9621">
<rect width="40" height="40" fill="white"/>
</clipPath>
</defs>
</svg>
