<svg width="58" height="52" viewBox="0 0 58 52" fill="none" xmlns="http://www.w3.org/2000/svg">
<circle cx="38" cy="32" r="20" fill="#F3F4FF"/>
<g clip-path="url(#clip0_64_9656)">
<path d="M20.0001 40C18.8181 40.0001 17.6574 39.6851 16.6376 39.0875L13.9126 37.5C10.4942 35.4973 7.65804 32.6366 5.68487 29.2011C3.71169 25.7656 2.66989 21.8743 2.6626 17.9125V10.075C2.66215 8.67505 3.1027 7.31054 3.9217 6.17516C4.74069 5.03979 5.89652 4.19124 7.2251 3.74999L17.0501 0.474986C18.9658 -0.158207 21.0344 -0.158207 22.9501 0.474986L32.7751 3.74999C34.1037 4.19124 35.2595 5.03979 36.0785 6.17516C36.8975 7.31054 37.338 8.67505 37.3376 10.075V17.925C37.3303 21.8868 36.2885 25.7781 34.3153 29.2136C32.3422 32.6491 29.506 35.5098 26.0876 37.5125L23.3626 39.1C22.3416 39.6932 21.181 40.0039 20.0001 40ZM20.0001 2.66249C19.2824 2.66068 18.569 2.77464 17.8876 2.99999L8.0626 6.24999C7.2729 6.5126 6.58478 7.01499 6.09409 7.68716C5.6034 8.35934 5.33459 9.16782 5.3251 9.99999V17.85C5.31986 21.3569 6.2334 24.804 7.97473 27.8481C9.71607 30.8921 12.2244 33.4269 15.2501 35.2L17.9751 36.7875C18.5861 37.1432 19.2806 37.3306 19.9876 37.3306C20.6946 37.3306 21.3891 37.1432 22.0001 36.7875L24.7251 35.2C27.7398 33.4333 30.2411 30.9104 31.9818 27.8806C33.7225 24.8508 34.6423 21.4192 34.6501 17.925V10.075C34.6406 9.24282 34.3718 8.43434 33.8811 7.76216C33.3904 7.08999 32.7023 6.5876 31.9126 6.32499L22.1126 3.01249C21.4319 2.7829 20.7185 2.66471 20.0001 2.66249Z" fill="url(#paint0_linear_64_9656)"/>
</g>
<defs>
<linearGradient id="paint0_linear_64_9656" x1="20.0001" y1="9.15527e-05" x2="20.0001" y2="40" gradientUnits="userSpaceOnUse">
<stop stop-color="#5D68F1"/>
<stop offset="1" stop-color="#A38CE6"/>
</linearGradient>
<clipPath id="clip0_64_9656">
<rect width="40" height="40" fill="white"/>
</clipPath>
</defs>
</svg>
