<svg width="58" height="52" viewBox="0 0 58 52" fill="none" xmlns="http://www.w3.org/2000/svg">
<circle cx="38" cy="32" r="20" fill="#F3F4FF"/>
<path d="M31.8555 37.7778H8.14439C6.57372 37.7778 5.06738 37.1538 3.95675 36.0432C2.84611 34.9326 2.22217 33.4262 2.22217 31.8556V8.14445C2.22217 6.57378 2.84611 5.06744 3.95675 3.95681C5.06738 2.84618 6.57372 2.22223 8.14439 2.22223H31.8555C33.4262 2.22223 34.9325 2.84618 36.0431 3.95681C37.1538 5.06744 37.7777 6.57378 37.7777 8.14445V31.8556C37.7777 33.4262 37.1538 34.9326 36.0431 36.0432C34.9325 37.1538 33.4262 37.7778 31.8555 37.7778ZM8.14439 4.5889C7.2014 4.5889 6.29703 4.9635 5.63023 5.63029C4.96344 6.29709 4.58883 7.20146 4.58883 8.14445V31.8556C4.58883 32.7986 4.96344 33.7029 5.63023 34.3697C6.29703 35.0365 7.2014 35.4111 8.14439 35.4111H31.8555C32.7985 35.4111 33.7029 35.0365 34.3697 34.3697C35.0365 33.7029 35.4111 32.7986 35.4111 31.8556V8.14445C35.4111 7.20146 35.0365 6.29709 34.3697 5.63029C33.7029 4.9635 32.7985 4.5889 31.8555 4.5889H8.14439Z" fill="url(#paint0_linear_64_9667)"/>
<path fill-rule="evenodd" clip-rule="evenodd" d="M9.33328 8.14445C9.56842 8.14445 9.79828 8.21418 9.99379 8.34482C10.1893 8.47545 10.3417 8.66113 10.4317 8.87837C10.5217 9.09561 10.5452 9.33466 10.4993 9.56528C10.4535 9.7959 10.3402 10.0077 10.174 10.174C10.0077 10.3403 9.79584 10.4535 9.56522 10.4994C9.3346 10.5453 9.09555 10.5217 8.87831 10.4317C8.66107 10.3417 8.47539 10.1894 8.34475 9.99385C8.21412 9.79834 8.14439 9.56848 8.14439 9.33334C8.14439 9.01803 8.26965 8.71563 8.49261 8.49267C8.71557 8.26971 9.01797 8.14445 9.33328 8.14445Z" fill="url(#paint1_linear_64_9667)"/>
<path fill-rule="evenodd" clip-rule="evenodd" d="M14.0777 8.14445C14.3129 8.14445 14.5427 8.21418 14.7382 8.34482C14.9337 8.47545 15.0861 8.66113 15.1761 8.87837C15.2661 9.09561 15.2896 9.33466 15.2438 9.56528C15.1979 9.7959 15.0847 10.0077 14.9184 10.174C14.7521 10.3403 14.5403 10.4535 14.3097 10.4994C14.079 10.5453 13.84 10.5217 13.6228 10.4317C13.4055 10.3417 13.2198 10.1894 13.0892 9.99385C12.9586 9.79834 12.8888 9.56848 12.8888 9.33334C12.8888 9.01803 13.0141 8.71563 13.2371 8.49267C13.46 8.26971 13.7624 8.14445 14.0777 8.14445Z" fill="url(#paint2_linear_64_9667)"/>
<path d="M15.5555 27.8778L11.9999 23.7333C11.8139 23.5191 11.7115 23.2449 11.7115 22.9611C11.7115 22.6774 11.8139 22.4031 11.9999 22.1889L15.5555 18.0445L17.3555 19.5889L14.4666 22.9222L17.3555 26.2556L15.5555 27.8778Z" fill="url(#paint3_linear_64_9667)"/>
<path d="M24.4444 27.8778L22.6444 26.3333L25.5333 23L22.6444 19.6667L24.4444 18.0445L28.0111 22.2222C28.1971 22.4365 28.2995 22.7107 28.2995 22.9945C28.2995 23.2782 28.1971 23.5524 28.0111 23.7667L24.4444 27.8778Z" fill="url(#paint4_linear_64_9667)"/>
<defs>
<linearGradient id="paint0_linear_64_9667" x1="19.9999" y1="2.22223" x2="19.9999" y2="37.7778" gradientUnits="userSpaceOnUse">
<stop stop-color="#5D68F1"/>
<stop offset="1" stop-color="#A38CE6"/>
</linearGradient>
<linearGradient id="paint1_linear_64_9667" x1="19.9999" y1="2.22223" x2="19.9999" y2="37.7778" gradientUnits="userSpaceOnUse">
<stop stop-color="#5D68F1"/>
<stop offset="1" stop-color="#A38CE6"/>
</linearGradient>
<linearGradient id="paint2_linear_64_9667" x1="19.9999" y1="2.22223" x2="19.9999" y2="37.7778" gradientUnits="userSpaceOnUse">
<stop stop-color="#5D68F1"/>
<stop offset="1" stop-color="#A38CE6"/>
</linearGradient>
<linearGradient id="paint3_linear_64_9667" x1="19.9999" y1="2.22223" x2="19.9999" y2="37.7778" gradientUnits="userSpaceOnUse">
<stop stop-color="#5D68F1"/>
<stop offset="1" stop-color="#A38CE6"/>
</linearGradient>
<linearGradient id="paint4_linear_64_9667" x1="19.9999" y1="2.22223" x2="19.9999" y2="37.7778" gradientUnits="userSpaceOnUse">
<stop stop-color="#5D68F1"/>
<stop offset="1" stop-color="#A38CE6"/>
</linearGradient>
</defs>
</svg>
