<svg width="27" height="27" viewBox="0 0 27 27" fill="none" xmlns="http://www.w3.org/2000/svg">
<g clip-path="url(#clip0_3_1253)">
<path d="M25.6679 11.3069L22.1341 9.38205C20.2626 8.3629 18.7304 6.8359 17.7044 4.96841L15.7681 1.44323C15.3187 0.625849 14.4612 0.119141 13.5292 0.119141C12.5972 0.119141 11.7391 0.626996 11.2909 1.44323L9.3546 4.96841C8.32857 6.8359 6.79698 8.3629 4.92491 9.38205L1.39171 11.3069C0.569742 11.7539 0.059021 12.6137 0.059021 13.5492C0.059021 14.4847 0.569742 15.3445 1.39114 15.7916L4.92549 17.7164C6.79698 18.7355 8.32857 20.2625 9.3546 22.13L11.2909 25.6552C11.7391 26.4714 12.5966 26.9793 13.5286 26.9793C14.4607 26.9793 15.3187 26.4726 15.7681 25.6552L17.7044 22.13C18.7304 20.2625 20.262 18.7355 22.1341 17.7164L25.6673 15.7916C26.4893 15.3445 27 14.4847 27 13.5492C27 12.6137 26.4893 11.7539 25.6679 11.3069ZM24.5444 13.7303L21.0112 15.6551C18.7442 16.8898 16.8893 18.7378 15.6466 20.9997L13.7103 24.5248C13.6714 24.5959 13.6106 24.6315 13.5292 24.6315C13.4484 24.6315 13.3876 24.5959 13.3487 24.5248L11.4124 20.9997C10.1697 18.7378 8.31482 16.8898 6.04838 15.6551L2.51404 13.7303C2.44296 13.6914 2.40685 13.6306 2.40685 13.5492C2.40685 13.4678 2.44296 13.4071 2.51461 13.3681L6.04781 11.4433C8.31482 10.2086 10.1697 8.36061 11.4124 6.09876L13.3487 2.57358C13.3876 2.50251 13.4484 2.46697 13.5292 2.46697C13.6106 2.46697 13.6714 2.50251 13.7103 2.57358L15.6466 6.09876C16.8893 8.36061 18.7442 10.2086 21.0112 11.4433L24.545 13.3681C24.616 13.4071 24.6522 13.4678 24.6522 13.5492C24.6522 13.6306 24.616 13.6914 24.5444 13.7303Z" fill="url(#paint0_linear_3_1253)"/>
</g>
<defs>
<linearGradient id="paint0_linear_3_1253" x1="13.5295" y1="0.119141" x2="13.5295" y2="26.9793" gradientUnits="userSpaceOnUse">
<stop stop-color="#5D68F1"/>
<stop offset="1" stop-color="#A38CE6"/>
</linearGradient>
<clipPath id="clip0_3_1253">
<rect width="27" height="27" fill="white"/>
</clipPath>
</defs>
</svg>
