<svg width="40" height="40" viewBox="0 0 40 40" fill="none" xmlns="http://www.w3.org/2000/svg">
<path fill-rule="evenodd" clip-rule="evenodd" d="M6.32764 19.6443C6.27242 19.6995 6.25 19.7628 6.25 19.8167V25.3167C6.25 26.2763 7.04035 27.0667 7.99998 27.0667H10.1666C10.3096 27.0667 10.4167 26.9596 10.4167 26.8167V19.8167C10.4167 19.6814 10.3006 19.5667 10.1666 19.5667H6.50004C6.44612 19.5667 6.38285 19.5891 6.32764 19.6443ZM3.75 19.8167C3.75 18.3096 4.99307 17.0667 6.50004 17.0667H10.1666C11.6993 17.0667 12.9167 18.3186 12.9167 19.8167V26.8167C12.9167 28.3404 11.6903 29.5667 10.1666 29.5667H7.99998C5.65961 29.5667 3.75 27.657 3.75 25.3167V19.8167Z" fill="url(#paint0_linear_6_1673)"/>
<path fill-rule="evenodd" clip-rule="evenodd" d="M20 6.23334C14.2404 6.23334 9.58333 10.8904 9.58333 16.65V18.3333C9.58333 19.0237 9.02369 19.5833 8.33333 19.5833C7.64298 19.5833 7.08333 19.0237 7.08333 18.3333V16.65C7.08333 9.50965 12.8596 3.73334 20 3.73334C27.1404 3.73334 32.9167 9.50965 32.9167 16.65V18.3167C32.9167 19.007 32.357 19.5667 31.6667 19.5667C30.9763 19.5667 30.4167 19.007 30.4167 18.3167V16.65C30.4167 10.8904 25.7596 6.23334 20 6.23334Z" fill="url(#paint1_linear_6_1673)"/>
<path fill-rule="evenodd" clip-rule="evenodd" d="M31.7462 27.0912C32.4231 27.2271 32.8615 27.886 32.7256 28.5628C31.8439 32.952 27.9735 36.25 23.3333 36.25H21.6667C20.9763 36.25 20.4167 35.6904 20.4167 35C20.4167 34.3096 20.9763 33.75 21.6667 33.75H23.3333C26.7598 33.75 29.6229 31.3146 30.2745 28.0705C30.4105 27.3937 31.0694 26.9552 31.7462 27.0912Z" fill="url(#paint2_linear_6_1673)"/>
<path fill-rule="evenodd" clip-rule="evenodd" d="M29.661 19.6443C29.6058 19.6995 29.5833 19.7628 29.5833 19.8167V26.8167C29.5833 26.952 29.6994 27.0667 29.8334 27.0667H31.9167C32.9263 27.0667 33.75 26.243 33.75 25.2333V19.8167C33.75 19.6814 33.634 19.5667 33.5 19.5667H29.8334C29.7795 19.5667 29.7162 19.5891 29.661 19.6443ZM27.0833 19.8167C27.0833 18.3096 28.3264 17.0667 29.8334 17.0667H33.5C35.0326 17.0667 36.25 18.3186 36.25 19.8167V25.2333C36.25 27.6237 34.3071 29.5667 31.9167 29.5667H29.8334C28.3007 29.5667 27.0833 28.3147 27.0833 26.8167V19.8167Z" fill="url(#paint3_linear_6_1673)"/>
<defs>
<linearGradient id="paint0_linear_6_1673" x1="20" y1="3.73334" x2="20" y2="36.25" gradientUnits="userSpaceOnUse">
<stop stop-color="#5D68F1"/>
<stop offset="1" stop-color="#A38CE6"/>
</linearGradient>
<linearGradient id="paint1_linear_6_1673" x1="20" y1="3.73334" x2="20" y2="36.25" gradientUnits="userSpaceOnUse">
<stop stop-color="#5D68F1"/>
<stop offset="1" stop-color="#A38CE6"/>
</linearGradient>
<linearGradient id="paint2_linear_6_1673" x1="20" y1="3.73334" x2="20" y2="36.25" gradientUnits="userSpaceOnUse">
<stop stop-color="#5D68F1"/>
<stop offset="1" stop-color="#A38CE6"/>
</linearGradient>
<linearGradient id="paint3_linear_6_1673" x1="20" y1="3.73334" x2="20" y2="36.25" gradientUnits="userSpaceOnUse">
<stop stop-color="#5D68F1"/>
<stop offset="1" stop-color="#A38CE6"/>
</linearGradient>
</defs>
</svg>
