<svg width="16" height="17" viewBox="0 0 16 17" fill="none" xmlns="http://www.w3.org/2000/svg">
<g clip-path="url(#clip0_21_222)">
<path d="M9.67021 16.4263C10.2052 16.4263 10.6717 15.9598 10.6717 15.4248V13.0859H11.3404C11.7417 13.0859 12.0091 12.8183 12.0091 12.4171V5.73682H3.99091V12.4172C3.99091 12.8184 4.25839 13.0859 4.65962 13.0859H5.32839V15.4248C5.32839 15.9598 5.79481 16.4263 6.32989 16.4263C6.86481 16.4263 7.33128 15.9598 7.33128 15.4248V13.0859H8.66876V15.4248C8.66871 15.9598 9.13523 16.4263 9.67021 16.4263Z" fill="white"/>
<path d="M13.6794 12.4172C14.2144 12.4172 14.6808 11.9507 14.6808 11.4157V6.73789C14.6808 6.20574 14.2144 5.73682 13.6794 5.73682C13.1444 5.73682 12.6779 6.20574 12.6779 6.73789V11.4157C12.6779 11.9507 13.1443 12.4172 13.6794 12.4172Z" fill="white"/>
<path d="M2.32067 12.4172C2.85569 12.4172 3.32216 11.9507 3.32216 11.4157V6.73789C3.32216 6.20574 2.85575 5.73682 2.32067 5.73682C1.78569 5.73682 1.31927 6.20574 1.31927 6.73789V11.4157C1.31927 11.9507 1.78569 12.4172 2.32067 12.4172Z" fill="white"/>
<path d="M11.2066 0.527178C11.0729 0.392634 10.8739 0.392634 10.7402 0.527178L9.8433 1.42109L9.80192 1.46242C9.2701 1.19611 8.67383 1.06311 8.00982 1.06183C8.00656 1.06183 8.00336 1.06172 8.0001 1.06172H7.99999C7.99663 1.06172 7.99353 1.06183 7.99017 1.06183C7.32621 1.06311 6.72994 1.19611 6.19817 1.46242L6.15669 1.42109L5.25984 0.527178C5.12604 0.392634 4.92711 0.392634 4.79342 0.527178C4.65962 0.660974 4.65962 0.859533 4.79342 0.993223L5.66101 1.86098C5.38146 2.04763 5.12796 2.27604 4.90751 2.53728C4.37975 3.16285 4.04312 3.977 3.99683 4.85912C3.9964 4.8683 3.9955 4.87738 3.99507 4.88656C3.99224 4.94663 3.99091 5.00701 3.99091 5.06761H12.0091C12.0091 5.00701 12.0077 4.94663 12.005 4.88656C12.0045 4.87738 12.0036 4.8683 12.0031 4.85912C11.9569 3.977 11.6202 3.1628 11.0924 2.53733C10.8721 2.27609 10.6185 2.04768 10.3389 1.86103L11.2066 0.993276C11.3404 0.859533 11.3404 0.660974 11.2066 0.527178ZM6.32861 3.90001C6.05194 3.90001 5.82764 3.67572 5.82764 3.39905C5.82764 3.12238 6.05194 2.89809 6.32861 2.89809C6.60527 2.89809 6.82957 3.12238 6.82957 3.39905C6.82957 3.67572 6.60527 3.90001 6.32861 3.90001ZM9.67143 3.90001C9.39476 3.90001 9.17047 3.67572 9.17047 3.39905C9.17047 3.12238 9.39476 2.89809 9.67143 2.89809C9.9481 2.89809 10.1724 3.12238 10.1724 3.39905C10.1724 3.67572 9.9481 3.90001 9.67143 3.90001Z" fill="white"/>
</g>
<defs>
<clipPath id="clip0_21_222">
<rect width="16" height="16" fill="white" transform="translate(0 0.42627)"/>
</clipPath>
</defs>
</svg>
