<svg width="20" height="20" viewBox="0 0 20 20" fill="none" xmlns="http://www.w3.org/2000/svg">
<path fill-rule="evenodd" clip-rule="evenodd" d="M6.92306 2C7.26292 2 7.53844 2.26531 7.53844 2.59259V3.77778H12.4615V2.59259C12.4615 2.26531 12.737 2 13.0769 2C13.4167 2 13.6923 2.26531 13.6923 2.59259V3.77778H17.3846C17.7244 3.77778 17.9999 4.04309 17.9999 4.37037V12.066C18 12.0717 18 12.0775 17.9999 12.0833V12.1333C17.9999 14.0673 17.1974 15.9368 15.7889 17.2931L15.2351 17.8264C15.1197 17.9376 14.9632 18 14.7999 18H2.61538C2.27552 18 2 17.7347 2 17.4074V4.37037C2 4.04309 2.27552 3.77778 2.61538 3.77778H6.30767V2.59259C6.30767 2.26531 6.58319 2 6.92306 2ZM3.23076 4.96296V7.33333H16.7692V4.96296H3.23076ZM16.7692 8.51852H3.23076V16.8148H13.6923V14.4444C13.6923 14.1456 13.9234 13.8935 14.2313 13.8564C15.0424 13.7588 15.8003 13.3184 16.2515 12.6425L16.2571 12.6343L16.7692 11.8947V8.51852ZM16.3833 14.2336C15.9488 14.5592 15.4498 14.7962 14.923 14.9313V16.4508C15.5733 15.8233 16.0699 15.0627 16.3833 14.2336Z" fill="white"/>
<path fill-rule="evenodd" clip-rule="evenodd" d="M16.2571 12.6342L16.7692 11.8946V8.51847H3.23076V16.8148H13.6923V14.4444C13.6923 14.1455 13.9234 13.8934 14.2313 13.8564C15.0424 13.7588 15.8003 13.3183 16.2515 12.6425L16.2571 12.6342ZM13.3923 16.5148V14.4444C13.3923 13.985 13.7456 13.6127 14.1955 13.5585C14.9257 13.4706 15.6028 13.0739 16.002 12.4759L16.0034 12.4738L16.0105 12.4634L16.4692 11.8009V8.81847H3.53076V16.5148H13.3923ZM6.92306 1.69995C7.41784 1.69995 7.83844 2.08901 7.83844 2.59254V3.47773H12.1615V2.59254C12.1615 2.08901 12.5821 1.69995 13.0769 1.69995C13.5717 1.69995 13.9923 2.08901 13.9923 2.59254V3.47773H17.3846C17.8793 3.47773 18.2999 3.86679 18.2999 4.37032V12.0639C18.3 12.071 18.3 12.0781 18.2999 12.0852V12.1333C18.2999 14.15 17.4633 16.0972 15.997 17.5091L15.4432 18.0425C15.2707 18.2086 15.0391 18.2999 14.7999 18.2999H2.61538C2.1206 18.2999 1.7 17.9109 1.7 17.4074V4.37032C1.7 3.86679 2.1206 3.47773 2.61538 3.47773H6.00768V2.59254C6.00768 2.08901 6.42828 1.69995 6.92306 1.69995ZM17.9999 4.37032C17.9999 4.04304 17.7244 3.77773 17.3846 3.77773H13.6923V2.59254C13.6923 2.26526 13.4167 1.99995 13.0769 1.99995C12.737 1.99995 12.4615 2.26526 12.4615 2.59254V3.77773H7.53844V2.59254C7.53844 2.26526 7.26292 1.99995 6.92306 1.99995C6.58319 1.99995 6.30768 2.26526 6.30768 2.59254V3.77773H2.61538C2.27552 3.77773 2 4.04304 2 4.37032V17.4074C2 17.7346 2.27552 18 2.61538 18H14.7999C14.9632 18 15.1197 17.9375 15.2351 17.8264L15.7889 17.2931C17.1974 15.9368 17.9999 14.0672 17.9999 12.1333V4.37032ZM3.53076 5.26291V7.03328H16.4692V5.26291H3.53076ZM15.223 15.1577V15.6754C15.3987 15.4545 15.5573 15.2217 15.698 14.9792C15.5432 15.0476 15.3846 15.1072 15.223 15.1577ZM15.9347 14.5257C15.6174 14.7041 15.2764 14.8406 14.923 14.9312V16.4508C15.027 16.3505 15.127 16.2467 15.223 16.1399C15.6032 15.7167 15.9198 15.2443 16.1654 14.739C16.2457 14.5739 16.3184 14.4052 16.3833 14.2336C16.2404 14.3407 16.0904 14.4383 15.9347 14.5257ZM3.23076 4.96291H16.7692V7.33328H3.23076V4.96291Z" fill="white"/>
</svg>
