<svg width="20" height="20" viewBox="0 0 20 20" fill="none" xmlns="http://www.w3.org/2000/svg">
<path fill-rule="evenodd" clip-rule="evenodd" d="M6.92306 2C7.26292 2 7.53844 2.26531 7.53844 2.59259V3.77778H12.4615V2.59259C12.4615 2.26531 12.737 2 13.0769 2C13.4167 2 13.6923 2.26531 13.6923 2.59259V3.77778H17.3846C17.7244 3.77778 17.9999 4.04309 17.9999 4.37037V12.066C18 12.0717 18 12.0775 17.9999 12.0833V12.1333C17.9999 14.0673 17.1974 15.9368 15.7889 17.2931L15.2351 17.8264C15.1197 17.9376 14.9632 18 14.7999 18H2.61538C2.27552 18 2 17.7347 2 17.4074V4.37037C2 4.04309 2.27552 3.77778 2.61538 3.77778H6.30767V2.59259C6.30767 2.26531 6.58319 2 6.92306 2ZM3.23076 4.96296V7.33333H16.7692V4.96296H3.23076ZM16.7692 8.51852H3.23076V16.8148H13.6923V14.4444C13.6923 14.1456 13.9234 13.8935 14.2313 13.8564C15.0424 13.7588 15.8003 13.3184 16.2515 12.6425L16.2571 12.6343L16.7692 11.8947V8.51852ZM16.3833 14.2336C15.9488 14.5592 15.4498 14.7962 14.923 14.9313V16.4508C15.5733 15.8233 16.0699 15.0627 16.3833 14.2336Z" fill="#6B7177"/>
<path fill-rule="evenodd" clip-rule="evenodd" d="M16.2573 12.6343L16.7694 11.8947V8.51853H3.23096V16.8148H13.6925V14.4445C13.6925 14.1456 13.9236 13.8935 14.2315 13.8564C15.0426 13.7588 15.8005 13.3184 16.2517 12.6425L16.2573 12.6343ZM13.3925 16.5148V14.4445C13.3925 13.9851 13.7458 13.6127 14.1957 13.5586C14.9259 13.4707 15.603 13.074 16.0022 12.476L16.0036 12.4738L16.0107 12.4635L16.4694 11.801V8.81853H3.53096V16.5148H13.3925ZM6.92325 1.70001C7.41803 1.70001 7.83863 2.08907 7.83863 2.5926V3.47779H12.1617V2.5926C12.1617 2.08907 12.5823 1.70001 13.0771 1.70001C13.5719 1.70001 13.9925 2.08907 13.9925 2.5926V3.47779H17.3847C17.8795 3.47779 18.3001 3.86685 18.3001 4.37038V12.064C18.3002 12.0711 18.3002 12.0782 18.3001 12.0853V12.1333C18.3001 14.1501 17.4635 16.0972 15.9972 17.5092L15.4434 18.0425C15.2709 18.2086 15.0393 18.3 14.8001 18.3H2.61558C2.1208 18.3 1.7002 17.911 1.7002 17.4074V4.37038C1.7002 3.86685 2.1208 3.47779 2.61558 3.47779H6.00787V2.5926C6.00787 2.08907 6.42847 1.70001 6.92325 1.70001ZM18.0001 4.37038C18.0001 4.0431 17.7246 3.77779 17.3847 3.77779H13.6925V2.5926C13.6925 2.26532 13.4169 2.00001 13.0771 2.00001C12.7372 2.00001 12.4617 2.26532 12.4617 2.5926V3.77779H7.53863V2.5926C7.53863 2.26532 7.26312 2.00001 6.92325 2.00001C6.58339 2.00001 6.30787 2.26532 6.30787 2.5926V3.77779H2.61558C2.27571 3.77779 2.0002 4.0431 2.0002 4.37038V17.4074C2.0002 17.7347 2.27571 18 2.61558 18H14.8001C14.9634 18 15.1199 17.9376 15.2353 17.8264L15.7891 17.2931C17.1976 15.9368 18.0001 14.0673 18.0001 12.1333V4.37038ZM3.53096 5.26298V7.03335H16.4694V5.26298H3.53096ZM15.2232 15.1578V15.6755C15.3989 15.4546 15.5575 15.2218 15.6982 14.9793C15.5434 15.0476 15.3848 15.1072 15.2232 15.1578ZM15.9349 14.5258C15.6176 14.7041 15.2766 14.8406 14.9232 14.9313V16.4508C15.0272 16.3505 15.1272 16.2468 15.2232 16.1399C15.6034 15.7167 15.92 15.2443 16.1656 14.7391C16.2459 14.5739 16.3186 14.4052 16.3835 14.2336C16.2405 14.3408 16.0906 14.4383 15.9349 14.5258ZM3.23096 4.96298H16.7694V7.33335H3.23096V4.96298Z" fill="#6B7177"/>
</svg>
