<svg width="57" height="52" viewBox="0 0 57 52" fill="none" xmlns="http://www.w3.org/2000/svg">
<circle cx="37" cy="32" r="20" fill="#F3F4FF"/>
<g clip-path="url(#clip0_1_317)">
<path fill-rule="evenodd" clip-rule="evenodd" d="M39.9074 8.88883C39.9074 6.55549 38.9815 4.31846 37.3315 2.66846C35.6815 1.01846 33.4444 0.0925293 31.1111 0.0925293H8.88889C6.55555 0.0925293 4.31852 1.01846 2.66852 2.66846C1.01852 4.31846 0.0925903 6.55549 0.0925903 8.88883V31.111C0.0925903 33.4444 1.01852 35.6814 2.66852 37.3314C4.31852 38.9814 6.55555 39.9073 8.88889 39.9073H31.1111C33.4444 39.9073 35.6815 38.9814 37.3315 37.3314C38.9815 35.6814 39.9074 33.4444 39.9074 31.111V8.88883ZM37.1296 8.88883V31.111C37.1296 32.7073 36.4963 34.2388 35.3667 35.3666C34.2389 36.4962 32.7074 37.1296 31.1111 37.1296H8.88889C7.29259 37.1296 5.76111 36.4962 4.63333 35.3666C3.5037 34.2388 2.87037 32.7073 2.87037 31.111V8.88883C2.87037 7.29253 3.5037 5.76105 4.63333 4.63327C5.76111 3.50364 7.29259 2.87031 8.88889 2.87031H31.1111C32.7074 2.87031 34.2389 3.50364 35.3667 4.63327C36.4963 5.76105 37.1296 7.29253 37.1296 8.88883Z" fill="url(#paint0_linear_1_317)"/>
<path fill-rule="evenodd" clip-rule="evenodd" d="M20.9037 12.8944L16.4593 26.2277C16.2185 26.9555 16.6111 27.7425 17.3389 27.9851C18.0667 28.2259 18.8537 27.8333 19.0963 27.1055L23.5407 13.7722C23.7815 13.0444 23.3889 12.2573 22.6611 12.0148C21.9333 11.774 21.1463 12.1666 20.9037 12.8944Z" fill="url(#paint1_linear_1_317)"/>
<path fill-rule="evenodd" clip-rule="evenodd" d="M25.6852 16.537L29.1463 19.9999L25.6852 23.4629C25.1426 24.0036 25.1426 24.8851 25.6852 25.4259C26.2259 25.9685 27.1074 25.9685 27.6481 25.4259L32.0926 20.9814C32.6352 20.4388 32.6352 19.5611 32.0926 19.0185L27.6481 14.574C27.1074 14.0314 26.2259 14.0314 25.6852 14.574C25.1426 15.1148 25.1426 15.9962 25.6852 16.537Z" fill="url(#paint2_linear_1_317)"/>
<path fill-rule="evenodd" clip-rule="evenodd" d="M12.3519 14.574L7.90741 19.0185C7.36481 19.5611 7.36481 20.4388 7.90741 20.9814L12.3519 25.4259C12.8926 25.9685 13.7741 25.9685 14.3148 25.4259C14.8574 24.8851 14.8574 24.0036 14.3148 23.4629L10.8537 19.9999L14.3148 16.537C14.8574 15.9962 14.8574 15.1148 14.3148 14.574C13.7741 14.0314 12.8926 14.0314 12.3519 14.574Z" fill="url(#paint3_linear_1_317)"/>
</g>
<defs>
<linearGradient id="paint0_linear_1_317" x1="20" y1="0.0925293" x2="20" y2="39.9073" gradientUnits="userSpaceOnUse">
<stop stop-color="#5D68F1"/>
<stop offset="1" stop-color="#A38CE6"/>
</linearGradient>
<linearGradient id="paint1_linear_1_317" x1="20" y1="0.0925293" x2="20" y2="39.9073" gradientUnits="userSpaceOnUse">
<stop stop-color="#5D68F1"/>
<stop offset="1" stop-color="#A38CE6"/>
</linearGradient>
<linearGradient id="paint2_linear_1_317" x1="20" y1="0.0925293" x2="20" y2="39.9073" gradientUnits="userSpaceOnUse">
<stop stop-color="#5D68F1"/>
<stop offset="1" stop-color="#A38CE6"/>
</linearGradient>
<linearGradient id="paint3_linear_1_317" x1="20" y1="0.0925293" x2="20" y2="39.9073" gradientUnits="userSpaceOnUse">
<stop stop-color="#5D68F1"/>
<stop offset="1" stop-color="#A38CE6"/>
</linearGradient>
<clipPath id="clip0_1_317">
<rect width="40" height="40" fill="white"/>
</clipPath>
</defs>
</svg>
