<svg width="57" height="52" viewBox="0 0 57 52" fill="none" xmlns="http://www.w3.org/2000/svg">
<circle cx="37" cy="32" r="20" fill="#F3F4FF"/>
<g clip-path="url(#clip0_6_3331)">
<path d="M12.0647 6.47303V27.7653C10.8257 26.6601 9.19303 25.9872 7.40593 25.9872C3.54265 25.9872 0.399612 29.1303 0.399612 32.9936C0.399612 36.857 3.54265 40 7.40593 40C11.2644 40 14.4042 36.8649 14.4122 33.0082H14.4123V15.8965L35.2527 10.6136V22.1132C34.0137 21.0079 32.381 20.335 30.594 20.335C26.7307 20.335 23.5876 23.4781 23.5876 27.3414C23.5876 31.2047 26.7307 34.3477 30.594 34.3477C34.4573 34.3477 37.6003 31.2046 37.6003 27.3414V0L12.0647 6.47303ZM7.40601 37.6523C4.83726 37.6523 2.74734 35.5624 2.74734 32.9935C2.74734 30.4247 4.83718 28.3348 7.40601 28.3348C9.97483 28.3348 12.0647 30.4246 12.0647 32.9935C12.0647 35.5624 9.97483 37.6523 7.40601 37.6523ZM14.4123 13.4747V8.29983L35.2527 3.01703V8.19178L14.4123 13.4747ZM30.594 32.0001C28.0252 32.0001 25.9353 29.9102 25.9353 27.3414C25.9353 24.7726 28.0251 22.6827 30.594 22.6827C33.1628 22.6827 35.2527 24.7725 35.2527 27.3414C35.2527 29.9103 33.1628 32.0001 30.594 32.0001Z" fill="url(#paint0_linear_6_3331)"/>
</g>
<defs>
<linearGradient id="paint0_linear_6_3331" x1="19" y1="0" x2="19" y2="40" gradientUnits="userSpaceOnUse">
<stop stop-color="#5D68F1"/>
<stop offset="1" stop-color="#A38CE6"/>
</linearGradient>
<clipPath id="clip0_6_3331">
<rect width="38" height="40" fill="white"/>
</clipPath>
</defs>
</svg>
