<svg width="58" height="51" viewBox="0 0 58 51" fill="none" xmlns="http://www.w3.org/2000/svg">
<circle cx="38" cy="31" r="20" fill="#F3F4FF"/>
<path d="M37.6562 2.36169V7.0356H34.1423V2.36169H31.7986V7.0356H8.20141V2.36169H5.85766V7.0356H2.34375V2.36169H0V37.6383H2.34375V32.9643H5.85766V37.6383H8.20141V32.9643H31.7987V37.6383H34.1424V32.9643H37.6562V37.6383H40V2.36169H37.6562ZM5.85766 30.6207H2.34375V24.9219H5.85766V30.6207ZM5.85766 22.5781H2.34375V17.4219H5.85766V22.5781ZM5.85766 15.0781H2.34375V9.37935H5.85766V15.0781ZM31.7987 30.6206H8.20141V9.37927H31.7987V30.6206ZM37.6562 30.6207H34.1423V24.9219H37.6562V30.6207ZM37.6562 22.5781H34.1423V17.4219H37.6562V22.5781ZM37.6562 15.0781H34.1423V9.37935H37.6562V15.0781Z" fill="url(#paint0_linear_1_379)"/>
<path d="M13.4761 11.7902V28.2097L27.6958 20L13.4761 11.7902ZM15.8198 15.8497L23.0083 20L15.8198 24.1502V15.8497Z" fill="url(#paint1_linear_1_379)"/>
<defs>
<linearGradient id="paint0_linear_1_379" x1="20" y1="2.36169" x2="20" y2="37.6383" gradientUnits="userSpaceOnUse">
<stop stop-color="#5D68F1"/>
<stop offset="1" stop-color="#A38CE6"/>
</linearGradient>
<linearGradient id="paint1_linear_1_379" x1="20" y1="2.36169" x2="20" y2="37.6383" gradientUnits="userSpaceOnUse">
<stop stop-color="#5D68F1"/>
<stop offset="1" stop-color="#A38CE6"/>
</linearGradient>
</defs>
</svg>
