<svg width="58" height="52" viewBox="0 0 58 52" fill="none" xmlns="http://www.w3.org/2000/svg">
<circle cx="38" cy="32" r="20" fill="#F3F4FF"/>
<g clip-path="url(#clip0_1_390)">
<path d="M38.8281 26.3281H13.6719V1.17188C13.6719 0.524687 13.1472 0 12.5 0H1.17188C0.524687 0 0 0.524687 0 1.17188V38.8281C0 39.4753 0.524687 40 1.17188 40H38.8281C39.4753 40 40 39.4753 40 38.8281V27.5C40 26.8528 39.4753 26.3281 38.8281 26.3281ZM2.34375 2.34375H11.3281V5.70312H8.75C8.10281 5.70312 7.57812 6.22781 7.57812 6.875C7.57812 7.52219 8.10281 8.04688 8.75 8.04688H11.3281V10.7031H10C9.35281 10.7031 8.82812 11.2278 8.82812 11.875C8.82812 12.5222 9.35281 13.0469 10 13.0469H11.3281V15.7031H8.75C8.10281 15.7031 7.57812 16.2278 7.57812 16.875C7.57812 17.5222 8.10281 18.0469 8.75 18.0469H11.3281V20.7031H10C9.35281 20.7031 8.82812 21.2278 8.82812 21.875C8.82812 22.5222 9.35281 23.0469 10 23.0469H11.3281V26.3281H2.34375V2.34375ZM2.34375 28.6719H11.3281V37.6562H2.34375V28.6719ZM37.6562 37.6562H13.6719V28.6719H16.9531V31.25C16.9531 31.8972 17.4778 32.4219 18.125 32.4219C18.7722 32.4219 19.2969 31.8972 19.2969 31.25V28.6719H21.9531V30C21.9531 30.6472 22.4778 31.1719 23.125 31.1719C23.7722 31.1719 24.2969 30.6472 24.2969 30V28.6719H26.9531V31.25C26.9531 31.8972 27.4778 32.4219 28.125 32.4219C28.7722 32.4219 29.2969 31.8972 29.2969 31.25V28.6719H31.9531V30C31.9531 30.6472 32.4778 31.1719 33.125 31.1719C33.7722 31.1719 34.2969 30.6472 34.2969 30V28.6719H37.6562V37.6562Z" fill="url(#paint0_linear_1_390)"/>
<path d="M8.0242 32.8961C7.87811 32.1988 7.1874 31.8091 6.53436 32.0039C5.86123 32.2233 5.58162 32.8857 5.75389 33.4657C5.976 34.1449 6.64139 34.4174 7.21561 34.2461C7.83428 34.0444 8.13045 33.4638 8.0242 32.8961Z" fill="#9987E8"/>
</g>
<defs>
<linearGradient id="paint0_linear_1_390" x1="20" y1="0" x2="20" y2="40" gradientUnits="userSpaceOnUse">
<stop stop-color="#5D68F1"/>
<stop offset="1" stop-color="#A38CE6"/>
</linearGradient>
<clipPath id="clip0_1_390">
<rect width="40" height="40" fill="white"/>
</clipPath>
</defs>
</svg>
