<svg width="60" height="50" viewBox="0 0 60 50" fill="none" xmlns="http://www.w3.org/2000/svg">
<circle cx="40" cy="30" r="20" fill="#F3F4FF"/>
<g clip-path="url(#clip0_1_355)">
<path d="M10.5508 15.4006H12.8945V13.4375H18.8281V26.7851H16.7972V29.1288H23.2028V26.7851H21.1719V13.4375H27.1055V15.4006H29.4492V11.0938H10.5508V15.4006Z" fill="url(#paint0_linear_1_355)"/>
<path d="M37.207 31.3285V8.67148C38.8443 7.99609 40 6.38344 40 4.50523C40 2.02102 37.979 0 35.4948 0C33.6166 0 32.0039 1.1557 31.3285 2.79297H8.67148C7.99609 1.1557 6.38344 0 4.50523 0C2.02102 0 0 2.02102 0 4.50523C0 6.38344 1.1557 7.99617 2.79297 8.67156V31.3285C1.1557 32.0039 0 33.6166 0 35.4948C0 37.979 2.02102 40 4.50523 40C6.38344 40 7.99609 38.8443 8.67148 37.207H31.3285C32.0039 38.8443 33.6166 40 35.4948 40C37.979 40 40 37.979 40 35.4948C40 33.6166 38.8443 32.0039 37.207 31.3285ZM31.0348 34.8633H8.96523C8.68617 32.8836 7.11633 31.3137 5.13672 31.0348V8.96523C7.11633 8.68625 8.68617 7.11633 8.96523 5.13672H31.0348C31.3138 7.11641 32.8837 8.68625 34.8633 8.96523V31.0347C32.8837 31.3137 31.3138 32.8836 31.0348 34.8633ZM35.4948 2.34375C36.6866 2.34375 37.6562 3.31336 37.6562 4.50523C37.6562 5.69711 36.6866 6.66672 35.4948 6.66672C34.303 6.66672 33.3334 5.69711 33.3334 4.50523C33.3334 3.31336 34.303 2.34375 35.4948 2.34375ZM4.50523 2.34375C5.69703 2.34375 6.66664 3.31336 6.66664 4.50523C6.66664 5.69711 5.69703 6.66672 4.50523 6.66672C3.31336 6.66664 2.34375 5.69703 2.34375 4.50523C2.34375 3.31336 3.31336 2.34375 4.50523 2.34375ZM4.50523 37.6562C3.31336 37.6562 2.34375 36.6866 2.34375 35.4948C2.34375 34.3029 3.31336 33.3333 4.50523 33.3333C5.69703 33.3333 6.66664 34.3029 6.66664 35.4948C6.66664 36.6866 5.69703 37.6562 4.50523 37.6562ZM35.4948 37.6562C34.303 37.6562 33.3334 36.6866 33.3334 35.4948C33.3334 34.3029 34.303 33.3333 35.4948 33.3333C36.6866 33.3333 37.6562 34.3029 37.6562 35.4948C37.6562 36.6866 36.6866 37.6562 35.4948 37.6562Z" fill="url(#paint1_linear_1_355)"/>
</g>
<defs>
<linearGradient id="paint0_linear_1_355" x1="20" y1="0" x2="20" y2="40" gradientUnits="userSpaceOnUse">
<stop stop-color="#5D68F1"/>
<stop offset="1" stop-color="#A38CE6"/>
</linearGradient>
<linearGradient id="paint1_linear_1_355" x1="20" y1="0" x2="20" y2="40" gradientUnits="userSpaceOnUse">
<stop stop-color="#5D68F1"/>
<stop offset="1" stop-color="#A38CE6"/>
</linearGradient>
<clipPath id="clip0_1_355">
<rect width="40" height="40" fill="white"/>
</clipPath>
</defs>
</svg>
