<svg width="58" height="52" viewBox="0 0 58 52" fill="none" xmlns="http://www.w3.org/2000/svg">
<circle cx="38" cy="32" r="20" fill="#F3F4FF"/>
<g clip-path="url(#clip0_1_331)">
<path d="M38.8281 0H34.1406C33.4934 0 32.9688 0.524687 32.9688 1.17188V2.34375H23.3141C22.8303 0.979844 21.5277 0 20 0C18.4723 0 17.1697 0.979844 16.6859 2.34375H7.03125V1.17188C7.03125 0.524687 6.50656 0 5.85938 0H1.17188C0.524687 0 0 0.524687 0 1.17188V5.85938C0 6.50656 0.524687 7.03125 1.17188 7.03125H5.85938C6.50656 7.03125 7.03125 6.50656 7.03125 5.85938V4.67188H11.9045C7.67664 7.34953 5.10664 11.873 4.7975 16.6752C3.41703 17.1498 2.42188 18.4605 2.42188 20C2.42188 21.9385 3.99898 23.5156 5.9375 23.5156C7.87602 23.5156 9.45312 21.9385 9.45312 20C9.45312 18.4859 8.49102 17.1923 7.14609 16.6984C7.56219 11.1791 11.5366 6.42547 16.8512 5.07672C17.4273 6.23391 18.622 7.03125 20 7.03125C21.378 7.03125 22.5727 6.23391 23.1487 5.0768C28.4635 6.42555 32.4378 11.1792 32.8539 16.6985C31.509 17.1923 30.5469 18.4859 30.5469 20C30.5469 21.9385 32.124 23.5156 34.0625 23.5156C36.001 23.5156 37.5781 21.9385 37.5781 20C37.5781 18.4605 36.583 17.1498 35.2025 16.6752C34.8927 11.8634 32.3151 7.35992 28.0955 4.6875H32.9688V5.85938C32.9688 6.50656 33.4934 7.03125 34.1406 7.03125H38.8281C39.4753 7.03125 40 6.50656 40 5.85938V1.17188C40 0.524687 39.4753 0 38.8281 0ZM4.6875 4.6875H2.34375V2.34375H4.6875V4.6875ZM5.9375 21.1719C5.29133 21.1719 4.76562 20.6462 4.76562 20C4.76562 19.3538 5.29133 18.8281 5.9375 18.8281C6.58367 18.8281 7.10938 19.3538 7.10938 20C7.10938 20.6462 6.58367 21.1719 5.9375 21.1719ZM20 4.6875C19.3538 4.6875 18.8281 4.1618 18.8281 3.51562C18.8281 2.86945 19.3538 2.34375 20 2.34375C20.6462 2.34375 21.1719 2.86945 21.1719 3.51562C21.1719 4.1618 20.6462 4.6875 20 4.6875ZM34.0625 18.8281C34.7087 18.8281 35.2344 19.3538 35.2344 20C35.2344 20.6462 34.7087 21.1719 34.0625 21.1719C33.4163 21.1719 32.8906 20.6462 32.8906 20C32.8906 19.3538 33.4163 18.8281 34.0625 18.8281ZM37.6562 4.6875H35.3125V2.34375H37.6562V4.6875Z" fill="url(#paint0_linear_1_331)"/>
<path d="M30.35 24.0374L20.975 9.975C20.9747 9.97453 20.9753 9.97555 20.975 9.975C20.9716 9.97 20.967 9.96375 20.9635 9.95883C20.9474 9.93547 20.9305 9.91297 20.9128 9.89102C20.419 9.27742 19.4787 9.31883 19.0365 9.95883C19.033 9.96375 19.0294 9.96852 19.026 9.97352C19.0257 9.97406 19.0263 9.97297 19.026 9.97352L9.65 24.0375C9.34008 24.5023 9.40141 25.1212 9.79641 25.5162C12.1345 27.8542 13.6226 30.9105 14.028 34.1803C13.846 34.3274 13.6703 34.4849 13.5038 34.6554C12.403 35.7813 11.7969 37.2633 11.7969 38.8281C11.7969 39.4753 12.3216 40 12.9688 40H27.0312C27.6784 40 28.2031 39.4753 28.2031 38.8281C28.2031 37.2633 27.597 35.7813 26.4963 34.6553C26.3297 34.4848 26.1541 34.3273 25.972 34.1802C26.3773 30.9102 27.8655 27.854 30.2035 25.5162C30.5986 25.1212 30.6599 24.5022 30.35 24.0374ZM20 23.5156C20.6462 23.5156 21.1719 24.0413 21.1719 24.6875C21.1719 25.3337 20.6462 25.8594 20 25.8594C19.3538 25.8594 18.8281 25.3337 18.8281 24.6875C18.8281 24.0413 19.3538 23.5156 20 23.5156ZM14.3405 37.6562C14.828 36.263 16.1498 35.2344 17.6562 35.2344H22.3438C23.8502 35.2344 25.172 36.263 25.6595 37.6562H14.3405ZM23.7691 33.069C23.3082 32.9513 22.8304 32.8906 22.3438 32.8906H17.6562C17.1696 32.8906 16.6918 32.9513 16.2309 33.0691C15.6824 29.9105 14.2581 26.958 12.1176 24.5613L18.8281 14.4955V21.3735C17.4641 21.8573 16.4844 23.1598 16.4844 24.6876C16.4844 26.6261 18.0615 28.2032 20 28.2032C21.9385 28.2032 23.5156 26.6261 23.5156 24.6876C23.5156 23.1598 22.5359 21.8573 21.1719 21.3735V14.4955L27.8825 24.5613C25.7419 26.9578 24.3175 29.9104 23.7691 33.069Z" fill="url(#paint1_linear_1_331)"/>
</g>
<defs>
<linearGradient id="paint0_linear_1_331" x1="20" y1="0" x2="20" y2="40" gradientUnits="userSpaceOnUse">
<stop stop-color="#5D68F1"/>
<stop offset="1" stop-color="#A38CE6"/>
</linearGradient>
<linearGradient id="paint1_linear_1_331" x1="20" y1="0" x2="20" y2="40" gradientUnits="userSpaceOnUse">
<stop stop-color="#5D68F1"/>
<stop offset="1" stop-color="#A38CE6"/>
</linearGradient>
<clipPath id="clip0_1_331">
<rect width="40" height="40" fill="white"/>
</clipPath>
</defs>
</svg>
