<svg width="60" height="52" viewBox="0 0 60 52" fill="none" xmlns="http://www.w3.org/2000/svg">
<circle cx="40" cy="32" r="20" fill="#F3F4FF"/>
<g clip-path="url(#clip0_6_3332)">
<path d="M25.2945 9.375C23.7252 3.84508 18.6685 0 12.8906 0C5.78273 0 0 5.78273 0 12.8906C0 19.9985 5.78273 25.7812 12.8906 25.7812C14.9577 25.7812 16.9488 25.3001 18.75 24.377V40H40V9.375H25.2945ZM37.6562 18.75H21.0938V11.7188H37.6562V18.75ZM4.65398 19.47C3.43937 17.9525 2.63477 16.0938 2.40922 14.0625H10.0615L4.65398 19.47ZM11.7188 2.40922V11.7188H2.40922C2.95133 6.83758 6.83758 2.95133 11.7188 2.40922ZM12.8906 23.4375C10.4041 23.4375 8.11625 22.572 6.31125 21.1273L14.0625 13.376V2.40937C18.0728 2.85945 21.4987 5.59055 22.837 9.375H18.75V21.6596C17.015 22.8235 15.0017 23.4375 12.8906 23.4375ZM21.0938 37.6562V21.0938H37.6562V37.6562H21.0938Z" fill="url(#paint0_linear_6_3332)"/>
</g>
<defs>
<linearGradient id="paint0_linear_6_3332" x1="20" y1="0" x2="20" y2="40" gradientUnits="userSpaceOnUse">
<stop stop-color="#5D68F1"/>
<stop offset="1" stop-color="#A38CE6"/>
</linearGradient>
<clipPath id="clip0_6_3332">
<rect width="40" height="40" fill="white"/>
</clipPath>
</defs>
</svg>
