<svg width="23" height="26" viewBox="0 0 23 26" fill="none" xmlns="http://www.w3.org/2000/svg">
<g clip-path="url(#clip0_45_9077)">
<path fill-rule="evenodd" clip-rule="evenodd" d="M14.0555 5.80549e-05H8.94443C8.24166 5.80549e-05 7.66666 0.557201 7.66666 1.23815C7.66666 1.91911 8.24166 2.47625 8.94443 2.47625H14.0555C14.7583 2.47625 15.3333 1.91911 15.3333 1.23815C15.3333 0.557201 14.7583 5.80549e-05 14.0555 5.80549e-05ZM11.5 16.0953C12.2028 16.0953 12.7778 15.5382 12.7778 14.8572V9.90482C12.7778 9.22387 12.2028 8.66672 11.5 8.66672C10.7972 8.66672 10.2222 9.22387 10.2222 9.90482V14.8572C10.2222 15.5382 10.7972 16.0953 11.5 16.0953ZM20.4828 7.91149L21.4411 6.98291C21.9267 6.51244 21.9394 5.73244 21.4411 5.24958L21.4283 5.2372C20.93 4.75434 20.1378 4.76672 19.6394 5.2372L18.6811 6.16577C16.7005 4.63053 14.2089 3.71434 11.5 3.71434C5.36666 3.71434 0.153323 8.6172 -1.0252e-05 14.5601C-0.166121 20.8496 5.03443 26.0001 11.5 26.0001C17.8633 26.0001 23 21.0105 23 14.8572C23 12.2324 22.0544 9.81815 20.4828 7.91149ZM11.5 23.5239C6.55499 23.5239 2.55555 19.6486 2.55555 14.8572C2.55555 10.0658 6.55499 6.19053 11.5 6.19053C16.445 6.19053 20.4444 10.0658 20.4444 14.8572C20.4444 19.6486 16.445 23.5239 11.5 23.5239Z" fill="url(#paint0_linear_45_9077)"/>
</g>
<defs>
<linearGradient id="paint0_linear_45_9077" x1="11.5" y1="-1.23804" x2="11.5" y2="28.4762" gradientUnits="userSpaceOnUse">
<stop stop-color="#5D68F1"/>
<stop offset="1" stop-color="#A38CE6"/>
</linearGradient>
<clipPath id="clip0_45_9077">
<rect width="23" height="26" fill="white"/>
</clipPath>
</defs>
</svg>
