<svg width="20" height="20" viewBox="0 0 20 20" fill="none" xmlns="http://www.w3.org/2000/svg">
<g clip-path="url(#clip0_40_9047)">
<path fill-rule="evenodd" clip-rule="evenodd" d="M0.833344 3.33325C0.833344 1.95254 1.95264 0.833252 3.33334 0.833252H12.5C13.8808 0.833252 15 1.95254 15 3.33325V4.99992H16.6667C18.0474 4.99992 19.1667 6.11921 19.1667 7.49992V16.6666C19.1667 18.0473 18.0474 19.1666 16.6667 19.1666H7.50001C6.1193 19.1666 5.00001 18.0473 5.00001 16.6666V14.9999H3.33334C1.95264 14.9999 0.833344 13.8807 0.833344 12.4999V3.33325ZM6.66668 14.9999V16.6666C6.66668 17.1268 7.03978 17.4999 7.50001 17.4999H16.6667C17.1269 17.4999 17.5 17.1268 17.5 16.6666V7.49992C17.5 7.03969 17.1269 6.66659 16.6667 6.66659H15V12.4999C15 13.8807 13.8808 14.9999 12.5 14.9999H6.66668ZM3.33334 2.49992C2.87311 2.49992 2.50001 2.87302 2.50001 3.33325V12.4999C2.50001 12.9602 2.87311 13.3333 3.33334 13.3333H12.5C12.9603 13.3333 13.3333 12.9602 13.3333 12.4999V3.33325C13.3333 2.87302 12.9603 2.49992 12.5 2.49992H3.33334Z" fill="white"/>
</g>
<defs>
<clipPath id="clip0_40_9047">
<rect width="20" height="20" fill="white"/>
</clipPath>
</defs>
</svg>
