<svg width="25" height="24" viewBox="0 0 25 24" fill="none" xmlns="http://www.w3.org/2000/svg">
<path d="M22.0477 3.95002C21.0271 2.9165 19.617 2.39996 17.8168 2.39996C17.3186 2.39996 16.8102 2.48954 16.292 2.66861C15.7736 2.84781 15.2913 3.08957 14.8458 3.39373C14.3996 3.69779 14.0162 3.98334 13.6945 4.24993C13.3732 4.5166 13.0678 4.8 12.7785 5.09991C12.4892 4.8 12.1838 4.5166 11.8625 4.24993C11.5409 3.98334 11.1573 3.69797 10.7113 3.39373C10.2653 3.08944 9.7831 2.84785 9.26482 2.66861C8.74659 2.48959 8.23824 2.39996 7.74006 2.39996C5.94 2.39996 4.52982 2.91663 3.50931 3.95002C2.48881 4.98332 1.97852 6.41656 1.97852 8.24989C1.97852 8.80824 2.07308 9.38345 2.26184 9.97481C2.4506 10.5665 2.6657 11.0707 2.90673 11.4873C3.14771 11.9038 3.42099 12.31 3.72636 12.7059C4.03172 13.1018 4.25489 13.3746 4.39535 13.5246C4.53594 13.6746 4.64647 13.783 4.72681 13.8497L12.2481 21.3748C12.3928 21.5247 12.5696 21.6 12.7785 21.6C12.9874 21.6 13.1643 21.5247 13.3089 21.3748L20.8183 13.8745C22.6585 11.9664 23.5785 10.0914 23.5785 8.24971C23.5786 6.41626 23.0683 4.98314 22.0477 3.95002ZM19.7696 12.6997L12.7785 19.6871L5.77556 12.6871C4.27283 11.1291 3.5216 9.64973 3.5216 8.24971C3.5216 7.57481 3.60798 6.9789 3.78065 6.46236C3.95345 5.94573 4.17442 5.53519 4.44361 5.23103C4.71283 4.92679 5.04024 4.67908 5.42595 4.48727C5.81186 4.29563 6.18951 4.16643 6.55909 4.0998C6.92867 4.03325 7.32235 3.99993 7.74027 3.99993C8.15807 3.99993 8.60816 4.10606 9.09029 4.31862C9.57234 4.53109 10.0163 4.79777 10.4221 5.11856C10.8279 5.43957 11.1755 5.73952 11.4649 6.01858C11.7541 6.29791 11.9951 6.55399 12.188 6.78735C12.3325 6.97075 12.5296 7.06243 12.7786 7.06243C13.0277 7.06243 13.2245 6.97075 13.3692 6.78735C13.5621 6.55399 13.8032 6.29778 14.0925 6.01858C14.3817 5.73952 14.7293 5.4397 15.135 5.11856C15.5408 4.79777 15.9848 4.53109 16.4671 4.31862C16.9491 4.1061 17.3993 3.99993 17.8171 3.99993C18.235 3.99993 18.6285 4.03325 18.9983 4.0998C19.368 4.16639 19.7456 4.29563 20.1314 4.48727C20.5172 4.67903 20.8446 4.92693 21.1137 5.23103C21.3829 5.53519 21.604 5.94573 21.7768 6.46236C21.9493 6.9789 22.0356 7.57481 22.0356 8.24971C22.0356 9.64973 21.2804 11.1332 19.7696 12.6997Z" fill="#222222"/>
</svg>
