<svg width="54" height="42" viewBox="0 0 54 42" fill="none" xmlns="http://www.w3.org/2000/svg">
<path fill-rule="evenodd" clip-rule="evenodd" d="M54 17.4375V54.25C54 58.5303 50.5463 62 46.2857 62H42.4286V58.125H46.2857C48.4159 58.125 50.1429 56.3901 50.1429 54.25V17.4375H42.4286C39.2332 17.4375 36.6429 14.8352 36.6429 11.625V3.875H15.4286C13.2984 3.875 11.5714 5.60989 11.5714 7.75V42.625H7.71429V7.75C7.71429 3.46979 11.1681 0 15.4286 0H36.6429L54 17.4375ZM6.16992 45.9188H0V61.4149H3.05106V56.2155H6.14732C7.25474 56.2155 8.19643 55.9923 8.97238 55.5457C9.75585 55.0917 10.351 54.4786 10.7579 53.7067C11.1722 52.927 11.3793 52.0529 11.3793 51.0842C11.3793 50.1154 11.1759 49.2412 10.7691 48.4617C10.3623 47.6822 9.77093 47.0654 8.99498 46.6112C8.22656 46.1496 7.28487 45.9188 6.16992 45.9188ZM8.27177 51.0842C8.27177 51.6594 8.16253 52.1513 7.94405 52.56C7.73312 52.9611 7.42801 53.2715 7.02874 53.4909C6.62947 53.7029 6.14732 53.8088 5.58231 53.8088H3.03976V48.3595H5.58231C6.42606 48.3595 7.08524 48.5942 7.55985 49.0635C8.03446 49.5326 8.27177 50.2063 8.27177 51.0842ZM12.9682 45.9188V61.4149H18.5957C20.1476 61.4149 21.4319 61.1085 22.449 60.4954C23.4736 59.8823 24.2382 58.9931 24.7429 57.8276C25.2477 56.662 25.5001 55.2619 25.5001 53.6271C25.5001 52 25.2477 50.6112 24.7429 49.4607C24.2458 48.3104 23.4887 47.4325 22.4716 46.8269C21.4546 46.2215 20.1627 45.9188 18.5957 45.9188H12.9682ZM16.0192 48.4163H18.1889C19.1456 48.4163 19.9291 48.6131 20.5392 49.0067C21.1571 49.4002 21.6128 49.9868 21.9066 50.7663C22.208 51.5458 22.3586 52.5184 22.3586 53.6839C22.3586 54.5618 22.272 55.3263 22.0987 55.9772C21.933 56.6281 21.6806 57.1729 21.3416 57.6118C21.0102 58.0433 20.5808 58.3687 20.0533 58.5882C19.526 58.8001 18.9045 58.9061 18.1889 58.9061H16.0192V48.4163ZM30.4564 55.2506V61.4149H27.4053V45.9188H37.2365V48.4504H30.4564V52.7757H36.6489V55.2506H30.4564Z" fill="#D3D6F0"/>
</svg>
