<svg width="14" height="13" viewBox="0 0 14 13" fill="none" xmlns="http://www.w3.org/2000/svg">
<path d="M7.125 3.50537C8.84766 3.50537 10.2695 4.92725 10.2695 6.6499C10.2695 8.3999 8.84766 9.79443 7.125 9.79443C5.375 9.79443 3.98047 8.3999 3.98047 6.6499C3.98047 4.92725 5.375 3.50537 7.125 3.50537ZM7.125 8.70068C8.24609 8.70068 9.14844 7.79834 9.14844 6.6499C9.14844 5.52881 8.24609 4.62646 7.125 4.62646C5.97656 4.62646 5.07422 5.52881 5.07422 6.6499C5.07422 7.79834 6.00391 8.70068 7.125 8.70068ZM11.1172 3.396C11.1172 3.80615 10.7891 4.13428 10.3789 4.13428C9.96875 4.13428 9.64062 3.80615 9.64062 3.396C9.64062 2.98584 9.96875 2.65771 10.3789 2.65771C10.7891 2.65771 11.1172 2.98584 11.1172 3.396ZM13.1953 4.13428C13.25 5.146 13.25 8.18115 13.1953 9.19287C13.1406 10.1772 12.9219 11.0249 12.2109 11.7632C11.5 12.4741 10.625 12.6929 9.64062 12.7476C8.62891 12.8022 5.59375 12.8022 4.58203 12.7476C3.59766 12.6929 2.75 12.4741 2.01172 11.7632C1.30078 11.0249 1.08203 10.1772 1.02734 9.19287C0.972656 8.18115 0.972656 5.146 1.02734 4.13428C1.08203 3.1499 1.30078 2.2749 2.01172 1.56396C2.75 0.853027 3.59766 0.634277 4.58203 0.57959C5.59375 0.524902 8.62891 0.524902 9.64062 0.57959C10.625 0.634277 11.5 0.853027 12.2109 1.56396C12.9219 2.2749 13.1406 3.1499 13.1953 4.13428ZM11.8828 10.2593C12.2109 9.46631 12.1289 7.55225 12.1289 6.6499C12.1289 5.7749 12.2109 3.86084 11.8828 3.04053C11.6641 2.521 11.2539 2.0835 10.7344 1.89209C9.91406 1.56396 8 1.646 7.125 1.646C6.22266 1.646 4.30859 1.56396 3.51562 1.89209C2.96875 2.11084 2.55859 2.521 2.33984 3.04053C2.01172 3.86084 2.09375 5.7749 2.09375 6.6499C2.09375 7.55225 2.01172 9.46631 2.33984 10.2593C2.55859 10.8062 2.96875 11.2163 3.51562 11.4351C4.30859 11.7632 6.22266 11.6812 7.125 11.6812C8 11.6812 9.91406 11.7632 10.7344 11.4351C11.2539 11.2163 11.6914 10.8062 11.8828 10.2593Z" fill="white"/>
</svg>
