<svg width="13" height="13" viewBox="0 0 13 13" fill="none" xmlns="http://www.w3.org/2000/svg">
<path d="M2.73438 12.8999H0.191406V4.72412H2.73438V12.8999ZM1.44922 3.63037C0.65625 3.63037 0 2.94678 0 2.12646C0 1.3335 0.65625 0.677246 1.44922 0.677246C2.26953 0.677246 2.92578 1.3335 2.92578 2.12646C2.92578 2.94678 2.26953 3.63037 1.44922 3.63037ZM12.2227 12.8999H9.70703V8.93506C9.70703 7.97803 9.67969 6.7749 8.36719 6.7749C7.05469 6.7749 6.86328 7.78662 6.86328 8.85303V12.8999H4.32031V4.72412H6.75391V5.84521H6.78125C7.13672 5.21631 7.95703 4.53271 9.1875 4.53271C11.7578 4.53271 12.25 6.22803 12.25 8.41553V12.8999H12.2227Z" fill="white"/>
</svg>
