<svg width="13" height="13" viewBox="0 0 13 13" fill="none" xmlns="http://www.w3.org/2000/svg">
<path d="M2.73438 12.8999H0.191406V4.72412H2.73438V12.8999ZM1.47656 3.60303C1.07552 3.60303 0.729167 3.45719 0.4375 3.16553C0.145833 2.87386 0 2.52751 0 2.12646C0 1.72542 0.145833 1.37907 0.4375 1.0874C0.729167 0.795736 1.07552 0.649902 1.47656 0.649902C1.8776 0.649902 2.22396 0.795736 2.51562 1.0874C2.80729 1.37907 2.95312 1.72542 2.95312 2.12646C2.95312 2.52751 2.80729 2.87386 2.51562 3.16553C2.22396 3.45719 1.8776 3.60303 1.47656 3.60303ZM12.25 12.8999H9.70703V8.90771C9.70703 8.25146 9.65234 7.77751 9.54297 7.48584C9.34245 6.99365 8.95052 6.74756 8.36719 6.74756C7.78385 6.74756 7.3737 6.96631 7.13672 7.40381C6.95443 7.73193 6.86328 8.21501 6.86328 8.85303V12.8999H4.34766V4.72412H6.78125V5.84521H6.80859C6.99089 5.48063 7.28255 5.17985 7.68359 4.94287C8.12109 4.6512 8.63151 4.50537 9.21484 4.50537C10.3997 4.50537 11.2292 4.87907 11.7031 5.62646C12.0677 6.22803 12.25 7.15771 12.25 8.41553V12.8999Z" fill="#222222"/>
</svg>
