<svg width="149" height="40" viewBox="0 0 149 40" fill="none" xmlns="http://www.w3.org/2000/svg">
<g clip-path="url(#clip0_21_46)">
<path d="M18.3032 9.4976L18.2991 14.8551C18.2282 14.8736 18.1589 14.8827 18.0911 14.8822C17.5375 14.88 16.984 14.8827 16.4304 14.8904C16.3443 14.8913 16.0131 14.8839 15.4369 14.868C14.997 14.8558 14.5532 14.882 14.1054 14.9467C13.9118 14.9381 13.6903 14.9322 13.441 14.929C12.4459 14.9155 11.4505 14.9099 10.4549 14.9121C10.2413 14.913 9.97163 14.9302 9.64601 14.9636C9.51888 14.932 9.42054 14.9164 9.35095 14.9168C8.19836 14.9187 7.04577 14.9198 5.89318 14.9202L5.88046 9.69905C5.8803 9.66126 5.8918 9.62437 5.91341 9.59356C5.93503 9.56279 5.96563 9.53964 6.00088 9.52743C6.25825 9.43654 6.49892 9.35603 6.72284 9.28594C6.89232 9.23258 7.06604 9.19845 7.24405 9.18352C7.36983 9.17266 7.4521 9.10279 7.58792 9.10751C7.87341 9.11747 8.13637 9.06615 8.37678 8.95356C8.57749 8.93139 8.7238 8.92007 8.81568 8.91964C9.7872 8.91513 11.9505 8.91513 15.3057 8.91964C16.2817 8.92054 17.2808 9.11317 18.3032 9.4976Z" fill="#9260F7"/>
<path d="M8.37732 8.95337C8.13686 9.06596 7.87391 9.11733 7.58842 9.10737C7.4526 9.1026 7.37029 9.17248 7.2445 9.18333C7.0665 9.19826 6.89277 9.23239 6.72325 9.28575C6.49933 9.35588 6.25866 9.43639 6.00129 9.52728C5.96599 9.5395 5.9354 9.56265 5.91378 9.59341C5.89221 9.62422 5.88067 9.66111 5.88083 9.6989L5.89355 14.9204C5.85741 14.9448 5.84537 14.9613 5.85741 14.9699C5.83689 14.9383 5.79723 14.9222 5.73834 14.9218C4.2462 14.9211 2.74739 14.896 1.25595 14.9346C1.02399 14.9405 0.790243 14.9419 0.554718 14.9387C1.79458 11.6058 4.83838 9.19622 8.37732 8.95337Z" fill="#5D57EC"/>
<path d="M18.3031 9.49756C20.8581 10.5309 22.6571 12.3367 23.7 14.9149C21.7623 14.8914 20.1736 14.8914 18.934 14.9149C18.6744 14.9199 18.4708 14.9097 18.3232 14.8844L18.2991 14.8552L18.3031 9.49756Z" fill="#8C2BDA"/>
<path d="M18.2993 14.855L18.3234 14.8842C18.3395 15.146 18.316 15.4513 18.3167 15.6589C18.3221 16.6235 18.3308 17.3786 18.3428 17.924C18.3495 18.2446 18.3089 18.5397 18.2211 18.8092C18.0879 18.4334 17.9675 18.0481 17.7995 17.7171C17.0483 16.2373 15.817 15.3138 14.1054 14.9466C14.5532 14.8819 14.9971 14.8557 15.4369 14.8679C16.0132 14.8837 16.3444 14.8912 16.4305 14.8903C16.9841 14.8826 17.5377 14.8799 18.0912 14.8821C18.159 14.8826 18.2284 14.8735 18.2993 14.855Z" fill="#C765F6"/>
<path d="M18.3232 14.884C18.4708 14.9094 18.6744 14.9195 18.934 14.9146C20.1736 14.8911 21.7622 14.8911 23.6999 14.9146C24.1207 16.1139 24.3 17.3051 24.3014 18.6095C24.3031 21.5924 24.3034 24.5626 24.302 27.5202C22.3273 27.5066 20.3545 27.51 18.3834 27.5304C18.3571 27.5304 18.3294 27.5213 18.3004 27.5032C18.3227 23.681 18.3267 21.0418 18.3125 19.5856C18.3111 19.421 18.2806 19.1621 18.2208 18.8089C18.3087 18.5394 18.3493 18.2443 18.3426 17.9237C18.3305 17.3783 18.3218 16.6233 18.3165 15.6587C18.3158 15.4511 18.3392 15.1459 18.3232 14.884Z" fill="#C02CEA"/>
<path d="M9.64635 14.9636C9.46524 15.0432 9.28568 15.1191 9.10768 15.1915C7.80223 15.7247 6.745 16.7077 6.24516 18.0605C6.14258 18.3377 6.03954 18.6219 5.93604 18.9132C5.89411 18.7495 5.87291 18.5159 5.87249 18.2124C5.87069 17.1722 5.87249 16.132 5.87782 15.0918C5.87828 15.0479 5.87136 15.0072 5.85709 14.9697C5.84504 14.9611 5.85709 14.9446 5.89322 14.9202C7.0459 14.9197 8.19857 14.9186 9.35124 14.9168C9.42083 14.9163 9.51921 14.9319 9.64635 14.9636Z" fill="#53EBFF"/>
<path d="M0.55467 14.9384C0.790183 14.9416 1.02392 14.9403 1.25586 14.9343C2.74722 14.8957 4.24595 14.9208 5.73797 14.9215C5.79686 14.9219 5.83656 14.938 5.85709 14.9696C5.87136 15.0071 5.87828 15.0479 5.87782 15.0917C5.87245 16.1319 5.87068 17.172 5.87245 18.2121C5.87291 18.5155 5.8941 18.7491 5.93603 18.9128C5.84705 20.2437 5.87513 21.5929 5.88987 22.9265C5.89121 23.0175 5.92063 23.2099 5.97817 23.5038C5.90594 23.5554 5.86779 23.606 5.86376 23.6558C5.84504 23.8683 5.84323 24.125 5.85843 24.4257C5.90926 25.4432 5.88051 26.4675 5.87182 27.4871C5.85129 27.5015 5.82452 27.5115 5.79153 27.5169C4.91969 27.4823 3.86391 27.5094 3.17744 27.5047C2.33307 27.4979 1.4887 27.4959 0.644326 27.4986C0.636297 27.4986 0.617788 27.5083 0.588793 27.5277C0.315811 26.7947 0.1365 26.0458 0.0508581 25.2811C0.0165123 24.9767 -0.000437472 24.5254 8.57798e-06 23.9271C0.000900678 22.0581 0.00112359 20.189 0.000677539 18.32C8.46572e-06 17.4049 0.0695922 16.6885 0.270314 15.8725C0.351941 15.5401 0.446727 15.2288 0.55467 14.9384Z" fill="#1F97FD"/>
<path d="M5.97821 23.5039C6.44792 25.651 8.13342 27.2017 10.2859 27.4805C10.385 27.4919 10.3631 27.5104 10.2204 27.5362C10.1945 27.5411 10.1673 27.5434 10.1388 27.543C8.75544 27.5294 7.37218 27.524 5.98891 27.5267C5.9657 27.5271 5.92667 27.514 5.87181 27.4874C5.8805 26.4677 5.90929 25.4434 5.85842 24.4258C5.84327 24.1251 5.84503 23.8684 5.8638 23.6559C5.86778 23.6061 5.90594 23.5554 5.97821 23.5039Z" fill="#00C0FF"/>
<path d="M10.2857 27.4802L18.263 27.506C18.288 27.5259 18.3005 27.5539 18.3005 27.5901C18.2943 29.0395 18.2945 31.0062 18.3012 33.4903C15.2337 33.4912 12.1555 33.4915 9.06659 33.491C8.00903 33.4905 6.94387 33.2823 5.87111 32.8662C5.87468 31.4598 5.87602 30.0586 5.87514 28.6626C5.87514 28.4197 5.90389 27.9496 5.86712 27.6111C5.86087 27.5524 5.83564 27.5209 5.79149 27.5168C5.82452 27.5114 5.85126 27.5015 5.87178 27.487C5.92664 27.5137 5.96567 27.5268 5.98888 27.5264C7.37206 27.5236 8.75529 27.529 10.1385 27.5426C10.167 27.5431 10.1942 27.5408 10.2201 27.5358C10.3629 27.5101 10.3847 27.4915 10.2857 27.4802Z" fill="#5D57EC"/>
<path d="M5.79191 27.5168C5.83606 27.5209 5.86129 27.5523 5.8675 27.6111C5.90431 27.9496 5.87556 28.4197 5.87556 28.6626C5.87644 30.0587 5.87509 31.4601 5.87153 32.8666C3.36679 31.835 1.60589 30.0553 0.588821 27.5277C0.61782 27.5082 0.636329 27.4985 0.644359 27.4985C1.48879 27.4958 2.33322 27.4978 3.17765 27.5046C3.86417 27.5093 4.92003 27.4822 5.79191 27.5168Z" fill="#3E4EC1"/>
<path d="M18.263 27.5059C18.2603 27.5181 18.2728 27.5172 18.3004 27.5032C18.3294 27.5213 18.3571 27.5303 18.3834 27.5303C20.3545 27.5099 22.3274 27.5065 24.3021 27.5201L24.3027 33.4625C24.3027 33.466 24.3021 33.4696 24.3007 33.4728C24.2994 33.4762 24.2974 33.4791 24.2949 33.4816C24.2924 33.4842 24.2895 33.4862 24.2863 33.4875C24.283 33.4889 24.2795 33.4896 24.276 33.4896L18.3011 33.4903C18.2944 31.0062 18.2942 29.0394 18.3004 27.59C18.3004 27.5538 18.2879 27.5258 18.263 27.5059Z" fill="#8C2BDA"/>
<path d="M40.6856 32.3405L40.3519 30.6485H40.185C39.8957 31.0095 39.5063 31.3479 39.0167 31.6637C37.9486 32.3405 36.7247 32.679 35.3451 32.679C33.4758 32.679 31.9738 32.1713 30.839 31.1561C29.7263 30.1409 29.17 28.9 29.17 27.4336C29.17 25.6739 29.7708 24.2751 30.9725 23.2373C32.1741 22.1995 33.9098 21.6806 36.1795 21.6806H40.0181V21.3422C40.0181 20.3721 39.7399 19.5938 39.1836 19.0072C38.6495 18.4206 37.9263 18.1273 37.014 18.1273C36.1461 18.1273 35.4452 18.3529 34.9112 18.8042C34.3994 19.2553 34.0989 19.763 34.0099 20.327H29.8376C30.0378 18.7703 30.7499 17.4505 31.9738 16.3676C33.1977 15.2847 34.8777 14.7432 37.014 14.7432C39.1502 14.7432 40.8748 15.3749 42.1876 16.6383C43.5227 17.9017 44.1905 19.4697 44.1905 21.3422V32.3405H40.6856ZM40.0181 25.4031V24.8955H36.5133C34.3994 24.8955 33.3423 25.6287 33.3423 27.0952C33.3423 27.772 33.576 28.3135 34.0433 28.7196C34.5106 29.1031 35.1671 29.2948 36.0126 29.2948C37.281 29.2948 38.2601 28.9564 38.9499 28.2796C39.662 27.5802 40.0181 26.6214 40.0181 25.4031ZM52.8958 27.4674C53.6967 28.3473 54.7426 28.7872 56.0332 28.7872C57.3239 28.7872 58.3698 28.3473 59.171 27.4674C59.9719 26.565 60.3727 25.3129 60.3727 23.7111C60.3727 22.1093 59.9719 20.8685 59.171 19.9886C58.3698 19.0862 57.3239 18.635 56.0332 18.635C54.7426 18.635 53.6967 19.0862 52.8958 19.9886C52.0946 20.8685 51.6942 22.1093 51.6942 23.7111C51.6942 25.3129 52.0946 26.565 52.8958 27.4674ZM60.873 32.3405L60.5393 30.4793H60.3727C60.0386 30.9079 59.6382 31.2802 59.171 31.596C58.1029 32.318 56.8345 32.679 55.3659 32.679C53.1405 32.679 51.2711 31.8555 49.758 30.2085C48.2672 28.539 47.5218 26.3733 47.5218 23.7111C47.5218 21.0489 48.2672 18.8944 49.758 17.2475C51.2711 15.578 53.1405 14.7432 55.3659 14.7432C56.701 14.7432 57.9249 15.1155 59.0376 15.86C59.5047 16.1758 59.8942 16.5368 60.2056 16.9429H60.3727V8.65186H64.5447V32.3405H60.873ZM73.5942 27.4674C74.3955 28.3473 75.4414 28.7872 76.7321 28.7872C78.0227 28.7872 79.0686 28.3473 79.8694 27.4674C80.6707 26.565 81.0711 25.3129 81.0711 23.7111C81.0711 22.1093 80.6707 20.8685 79.8694 19.9886C79.0686 19.0862 78.0227 18.635 76.7321 18.635C75.4414 18.635 74.3955 19.0862 73.5942 19.9886C72.7934 20.8685 72.3926 22.1093 72.3926 23.7111C72.3926 25.3129 72.7934 26.565 73.5942 27.4674ZM81.5718 32.3405L81.2382 30.4793H81.0711C80.7374 30.9079 80.337 31.2802 79.8694 31.596C78.8013 32.318 77.5329 32.679 76.0643 32.679C73.8394 32.679 71.9699 31.8555 70.4568 30.2085C68.966 28.539 68.2206 26.3733 68.2206 23.7111C68.2206 21.0489 68.966 18.8944 70.4568 17.2475C71.9699 15.578 73.8394 14.7432 76.0643 14.7432C77.3994 14.7432 78.6233 15.1155 79.736 15.86C80.2035 16.1758 80.5926 16.5368 80.9045 16.9429H81.0711V8.65186H85.2435V32.3405H81.5718ZM89.9204 32.3405V8.65186H94.0929V16.7737H94.2595C94.5269 16.4353 94.905 16.0969 95.3944 15.7585C96.4181 15.0816 97.5975 14.7432 98.9326 14.7432C100.869 14.7432 102.46 15.4201 103.706 16.7737C104.974 18.1047 105.608 19.8532 105.608 22.019V32.3405H101.436V22.3574C101.436 21.252 101.091 20.3608 100.401 19.684C99.7339 18.9846 98.855 18.635 97.7646 18.635C96.6741 18.635 95.7839 18.9846 95.0943 19.684C94.4265 20.3608 94.0929 21.252 94.0929 22.3574V32.3405H89.9204ZM109.768 25.4031V15.0816H113.94V25.0647C113.94 26.1702 114.274 27.0726 114.942 27.772C115.631 28.4488 116.521 28.7872 117.612 28.7872C118.702 28.7872 119.581 28.4488 120.248 27.772C120.938 27.0726 121.283 26.1702 121.283 25.0647V15.0816H125.455V32.3405H121.617L121.283 30.6485H121.116C120.849 30.9869 120.471 31.3253 119.982 31.6637C118.958 32.3405 117.778 32.679 116.443 32.679C114.508 32.679 112.905 32.0134 111.637 30.6823C110.391 29.3287 109.768 27.569 109.768 25.4031ZM135.323 27.4674C136.124 28.3473 137.17 28.7872 138.46 28.7872C139.751 28.7872 140.797 28.3473 141.598 27.4674C142.399 26.565 142.799 25.3129 142.799 23.7111C142.799 22.1093 142.399 20.8685 141.598 19.9886C140.797 19.0862 139.751 18.635 138.46 18.635C137.17 18.635 136.124 19.0862 135.323 19.9886C134.521 20.8685 134.121 22.1093 134.121 23.7111C134.121 25.3129 134.521 26.565 135.323 27.4674ZM129.949 32.3405V8.65186H134.121V16.9429H134.288C134.599 16.5368 134.989 16.1758 135.456 15.86C136.547 15.1155 137.77 14.7432 139.128 14.7432C141.353 14.7432 143.211 15.578 144.702 17.2475C146.215 18.8944 146.972 21.0489 146.972 23.7111C146.972 26.3733 146.215 28.539 144.702 30.2085C143.211 31.8555 141.353 32.679 139.128 32.679C137.659 32.679 136.391 32.318 135.323 31.596C134.855 31.2802 134.455 30.9079 134.121 30.4793H133.954L133.62 32.3405H129.949Z" fill="#303030"/>
</g>
<defs>
<clipPath id="clip0_21_46">
<rect width="149" height="40" fill="white"/>
</clipPath>
</defs>
</svg>
