<svg width="20" height="20" viewBox="0 0 20 20" fill="none" xmlns="http://www.w3.org/2000/svg">
<path fill-rule="evenodd" clip-rule="evenodd" d="M10 3C7.15114 3 4.875 5.27614 4.875 8.125C4.875 10.4491 6.19057 12.6794 7.57448 14.3709C8.25951 15.2081 8.94572 15.8945 9.4608 16.3714C9.67483 16.5696 9.85875 16.7311 10 16.8517C10.1412 16.7311 10.3252 16.5696 10.5392 16.3714C11.0543 15.8945 11.7405 15.2081 12.4255 14.3709C13.8094 12.6794 15.125 10.4491 15.125 8.125C15.125 5.27614 12.8489 3 10 3ZM10 17.5C9.69303 17.8947 9.6929 17.8946 9.69275 17.8945L9.69115 17.8932L9.68723 17.8901L9.6734 17.8792C9.66157 17.8699 9.64457 17.8563 9.62273 17.8387C9.57905 17.8034 9.51603 17.7518 9.43642 17.6849C9.27725 17.5509 9.05151 17.3553 8.78139 17.1052C8.24178 16.6055 7.52174 15.8856 6.80052 15.0041C5.37193 13.2581 3.875 10.8009 3.875 8.125C3.875 4.72386 6.59886 2 10 2C13.4011 2 16.125 4.72386 16.125 8.125C16.125 10.8009 14.6281 13.2581 13.1995 15.0041C12.4783 15.8856 11.7582 16.6055 11.2186 17.1052C10.9485 17.3553 10.7228 17.5509 10.5636 17.6849C10.484 17.7518 10.4209 17.8034 10.3773 17.8387C10.3554 17.8563 10.3384 17.8699 10.3266 17.8792L10.3128 17.8901L10.3089 17.8932L10.3077 17.8941C10.3075 17.8943 10.307 17.8947 10 17.5ZM10 17.5L10.3077 17.8941C10.1271 18.0346 9.87331 18.0349 9.69275 17.8945L10 17.5Z" fill="#6B7177"/>
<path fill-rule="evenodd" clip-rule="evenodd" d="M9.30781 17.5755C9.30777 17.5754 9.30785 17.5755 9.30781 17.5755C9.16403 17.4518 8.9853 17.294 8.78139 17.1052C8.24178 16.6055 7.52174 15.8856 6.80052 15.0041C5.37193 13.2581 3.875 10.8009 3.875 8.125C3.875 4.72386 6.59886 2 10 2C13.4011 2 16.125 4.72386 16.125 8.125C16.125 10.8009 14.6281 13.2581 13.1995 15.0041C12.4783 15.8856 11.7582 16.6055 11.2186 17.1052C11.0147 17.294 10.8361 17.4518 10.6923 17.5754C10.6457 17.6154 10.6026 17.6521 10.5636 17.6849C10.484 17.7518 10.4209 17.8034 10.3773 17.8387C10.3703 17.8443 10.3638 17.8495 10.3579 17.8543C10.3579 17.8543 10.3579 17.8543 10.3579 17.8543C10.3451 17.8645 10.3346 17.8729 10.3266 17.8792L10.3128 17.8901L10.3089 17.8932L10.3077 17.8941C10.3075 17.8942 10.307 17.8946 10.117 17.6504C10.0957 17.623 10.072 17.5925 10.0456 17.5586C10.0312 17.5401 10.016 17.5205 10 17.5L10.0456 17.5586L10.1113 17.6431L10.3077 17.8941C10.3075 17.8943 10.3066 17.8949 10.3065 17.8951C10.1261 18.035 9.87311 18.0344 9.69275 17.8945C9.69259 17.8943 9.69291 17.8946 9.69275 17.8945L9.88867 17.6431M9.64217 17.8543C9.64702 17.8582 9.65153 17.8618 9.65571 17.8652C9.66251 17.8706 9.66842 17.8753 9.6734 17.8792L9.68723 17.8901L9.69115 17.8932L9.69275 17.8945C9.69288 17.8946 9.69299 17.8946 9.88297 17.6504C9.90431 17.623 9.92804 17.5925 9.95444 17.5586C9.96878 17.5401 9.98404 17.5205 10 17.5L9.95444 17.5586L9.88867 17.6431M9.64217 17.8543C9.64216 17.8543 9.64219 17.8543 9.64217 17.8543C9.6362 17.8495 9.62969 17.8443 9.62273 17.8387C9.57905 17.8034 9.51603 17.7518 9.43642 17.6849C9.39745 17.6521 9.35444 17.6155 9.30781 17.5755C9.30777 17.5754 9.30785 17.5755 9.30781 17.5755M9.38408 18.2878C9.38457 18.2882 9.38556 18.289 9.38606 18.2894C9.74717 18.5702 10.2528 18.5702 10.6139 18.2894C10.6137 18.2895 10.6141 18.2892 10.6139 18.2894M10.6171 18.2869L10.6211 18.2838L10.6363 18.2718L10.6371 18.2712C10.6501 18.2609 10.6683 18.2463 10.6914 18.2277C10.7375 18.1904 10.8031 18.1367 10.8855 18.0675C11.05 17.929 11.2817 17.7281 11.5583 17.472C12.1102 16.961 12.8471 16.2243 13.5865 15.3207C15.0374 13.5474 16.625 10.9769 16.625 8.125C16.625 4.44772 13.6773 1.5 10 1.5C6.32272 1.5 3.375 4.44772 3.375 8.125C3.375 10.9769 4.9626 13.5474 6.41354 15.3207C7.15286 16.2243 7.88981 16.961 8.44169 17.472C8.71826 17.7281 8.95 17.929 9.11454 18.0675C9.19685 18.1367 9.26248 18.1904 9.30863 18.2277C9.3317 18.2463 9.34993 18.2609 9.36295 18.2712L9.36374 18.2718L9.37756 18.2827L9.38287 18.2869M10 3.5C7.42728 3.5 5.375 5.55228 5.375 8.125C5.375 10.2731 6.5999 12.3901 7.96146 14.0543C8.62839 14.8694 9.29769 15.5389 9.8005 16.0045C9.87051 16.0693 9.93717 16.1301 10 16.1866C10.0628 16.1301 10.1295 16.0693 10.1995 16.0045C10.7023 15.5389 11.3716 14.8694 12.0385 14.0543C13.4001 12.3901 14.625 10.2731 14.625 8.125C14.625 5.55228 12.5727 3.5 10 3.5ZM4.875 8.125C4.875 5.27614 7.15114 3 10 3C12.8489 3 15.125 5.27614 15.125 8.125C15.125 10.4491 13.8094 12.6794 12.4255 14.3709C11.7405 15.2081 11.0543 15.8945 10.5392 16.3714C10.3252 16.5696 10.1412 16.7311 10 16.8517C9.85875 16.7311 9.67483 16.5696 9.4608 16.3714C8.94572 15.8945 8.25951 15.2081 7.57448 14.3709C6.19057 12.6794 4.875 10.4491 4.875 8.125Z" fill="#6B7177"/>
<path d="M10 10C11.0355 10 11.875 9.16053 11.875 8.125C11.875 7.08947 11.0355 6.25 10 6.25C8.96447 6.25 8.125 7.08947 8.125 8.125C8.125 9.16053 8.96447 10 10 10Z" fill="#6B7177"/>
</svg>
