<svg width="20" height="20" viewBox="0 0 20 20" fill="none" xmlns="http://www.w3.org/2000/svg">
<path fill-rule="evenodd" clip-rule="evenodd" d="M10 3C7.15114 3 4.875 5.27614 4.875 8.125C4.875 10.4491 6.19057 12.6794 7.57448 14.3709C8.25951 15.2081 8.94572 15.8945 9.4608 16.3714C9.67483 16.5696 9.85875 16.7311 10 16.8517C10.1412 16.7311 10.3252 16.5696 10.5392 16.3714C11.0543 15.8945 11.7405 15.2081 12.4255 14.3709C13.8094 12.6794 15.125 10.4491 15.125 8.125C15.125 5.27614 12.8489 3 10 3ZM10 17.5C9.69303 17.8947 9.6929 17.8946 9.69275 17.8945L9.69234 17.8941L9.69115 17.8932L9.68723 17.8901L9.6734 17.8792C9.66157 17.8699 9.64457 17.8563 9.62273 17.8387C9.57905 17.8034 9.51603 17.7518 9.43642 17.6849C9.27725 17.551 9.05151 17.3553 8.78139 17.1052C8.24178 16.6055 7.52174 15.8856 6.80052 15.0041C5.37193 13.2581 3.875 10.8009 3.875 8.125C3.875 4.72386 6.59886 2 10 2C13.4011 2 16.125 4.72386 16.125 8.125C16.125 10.8009 14.6281 13.2581 13.1995 15.0041C12.4783 15.8856 11.7582 16.6055 11.2186 17.1052C10.9485 17.3553 10.7228 17.551 10.5636 17.6849C10.484 17.7518 10.4209 17.8034 10.3773 17.8387C10.3554 17.8563 10.3384 17.8699 10.3266 17.8792L10.3128 17.8901L10.3089 17.8932L10.3077 17.8941L10.3072 17.8945C10.3071 17.8946 10.307 17.8947 10 17.5ZM10 17.5L10.307 17.8947C10.1264 18.0351 9.87358 18.0351 9.69303 17.8947L10 17.5Z" fill="#6B7177"/>
<path d="M10 10C11.0355 10 11.875 9.16053 11.875 8.125C11.875 7.08947 11.0355 6.25 10 6.25C8.96447 6.25 8.125 7.08947 8.125 8.125C8.125 9.16053 8.96447 10 10 10Z" fill="#6B7177"/>
</svg>
