<svg width="22" height="22" viewBox="0 0 22 22" fill="none" xmlns="http://www.w3.org/2000/svg">
<path fill-rule="evenodd" clip-rule="evenodd" d="M20.8542 5.49992C20.8542 4.34492 20.3958 3.23759 19.5791 2.42084C18.7623 1.60409 17.655 1.14575 16.5 1.14575H5.50001C4.34501 1.14575 3.23768 1.60409 2.42093 2.42084C1.60418 3.23759 1.14584 4.34492 1.14584 5.49992V16.4999C1.14584 17.6549 1.60418 18.7623 2.42093 19.579C3.23768 20.3958 4.34501 20.8541 5.50001 20.8541H16.5C17.655 20.8541 18.7623 20.3958 19.5791 19.579C20.3958 18.7623 20.8542 17.6549 20.8542 16.4999V5.49992ZM19.4792 5.49992V16.4999C19.4792 17.2901 19.1657 18.0482 18.6065 18.6064C18.0483 19.1656 17.2902 19.4791 16.5 19.4791H5.50001C4.70984 19.4791 3.95176 19.1656 3.39351 18.6064C2.83434 18.0482 2.52084 17.2901 2.52084 16.4999V5.49992C2.52084 4.70975 2.83434 3.95167 3.39351 3.39342C3.95176 2.83425 4.70984 2.52075 5.50001 2.52075H16.5C17.2902 2.52075 18.0483 2.83425 18.6065 3.39342C19.1657 3.95167 19.4792 4.70975 19.4792 5.49992Z" fill="url(#paint0_linear_6_1530)"/>
<path fill-rule="evenodd" clip-rule="evenodd" d="M11.4473 7.48267L9.24734 14.0827C9.12818 14.4429 9.32251 14.8325 9.68276 14.9526C10.043 15.0718 10.4326 14.8774 10.5527 14.5172L12.7527 7.91717C12.8718 7.55692 12.6775 7.16734 12.3173 7.04725C11.957 6.92809 11.5674 7.12242 11.4473 7.48267Z" fill="url(#paint1_linear_6_1530)"/>
<path fill-rule="evenodd" clip-rule="evenodd" d="M13.8142 9.28575L15.5274 10.9999L13.8142 12.7141C13.5456 12.9818 13.5456 13.4181 13.8142 13.6858C14.0818 13.9543 14.5182 13.9543 14.7858 13.6858L16.9858 11.4858C17.2544 11.2172 17.2544 10.7827 16.9858 10.5141L14.7858 8.31409C14.5182 8.0455 14.0818 8.0455 13.8142 8.31409C13.5456 8.58175 13.5456 9.01809 13.8142 9.28575Z" fill="url(#paint2_linear_6_1530)"/>
<path fill-rule="evenodd" clip-rule="evenodd" d="M7.21418 8.31409L5.01418 10.5141C4.74559 10.7827 4.74559 11.2172 5.01418 11.4858L7.21418 13.6858C7.48184 13.9543 7.91818 13.9543 8.18584 13.6858C8.45443 13.4181 8.45443 12.9818 8.18584 12.7141L6.47259 10.9999L8.18584 9.28575C8.45443 9.01809 8.45443 8.58175 8.18584 8.31409C7.91818 8.0455 7.48184 8.0455 7.21418 8.31409Z" fill="url(#paint3_linear_6_1530)"/>
<defs>
<linearGradient id="paint0_linear_6_1530" x1="11" y1="1.14575" x2="11" y2="20.8541" gradientUnits="userSpaceOnUse">
<stop stop-color="#5D68F1"/>
<stop offset="1" stop-color="#A38CE6"/>
</linearGradient>
<linearGradient id="paint1_linear_6_1530" x1="11" y1="1.14575" x2="11" y2="20.8541" gradientUnits="userSpaceOnUse">
<stop stop-color="#5D68F1"/>
<stop offset="1" stop-color="#A38CE6"/>
</linearGradient>
<linearGradient id="paint2_linear_6_1530" x1="11" y1="1.14575" x2="11" y2="20.8541" gradientUnits="userSpaceOnUse">
<stop stop-color="#5D68F1"/>
<stop offset="1" stop-color="#A38CE6"/>
</linearGradient>
<linearGradient id="paint3_linear_6_1530" x1="11" y1="1.14575" x2="11" y2="20.8541" gradientUnits="userSpaceOnUse">
<stop stop-color="#5D68F1"/>
<stop offset="1" stop-color="#A38CE6"/>
</linearGradient>
</defs>
</svg>
