<svg width="22" height="22" viewBox="0 0 22 22" fill="none" xmlns="http://www.w3.org/2000/svg">
<path d="M20.7109 1.29883V3.86948H18.7783V1.29883H17.4892V3.86948H4.51077V1.29883H3.22171V3.86948H1.28906V1.29883H0V20.7009H1.28906V18.1303H3.22171V20.7009H4.51077V18.1303H17.4893V20.7009H18.7783V18.1303H20.7109V20.7009H22V1.29883H20.7109ZM3.22171 16.8413H1.28906V13.7069H3.22171V16.8413ZM3.22171 12.4179H1.28906V9.58191H3.22171V12.4179ZM3.22171 8.29285H1.28906V5.15854H3.22171V8.29285ZM17.4893 16.8412H4.51077V5.1585H17.4893V16.8412ZM20.7109 16.8413H18.7783V13.7069H20.7109V16.8413ZM20.7109 12.4179H18.7783V9.58191H20.7109V12.4179ZM20.7109 8.29285H18.7783V5.15854H20.7109V8.29285Z" fill="url(#paint0_linear_6_1506)"/>
<path d="M7.41185 6.48451V15.5152L15.2327 10.9999L7.41185 6.48451ZM8.70091 8.71725L12.6546 10.9999L8.70091 13.2825V8.71725Z" fill="url(#paint1_linear_6_1506)"/>
<defs>
<linearGradient id="paint0_linear_6_1506" x1="11" y1="1.29883" x2="11" y2="20.7009" gradientUnits="userSpaceOnUse">
<stop stop-color="#5D68F1"/>
<stop offset="1" stop-color="#A38CE6"/>
</linearGradient>
<linearGradient id="paint1_linear_6_1506" x1="11" y1="1.29883" x2="11" y2="20.7009" gradientUnits="userSpaceOnUse">
<stop stop-color="#5D68F1"/>
<stop offset="1" stop-color="#A38CE6"/>
</linearGradient>
</defs>
</svg>
