<svg width="22" height="22" viewBox="0 0 22 22" fill="none" xmlns="http://www.w3.org/2000/svg">
<g clip-path="url(#clip0_6_1502)">
<path d="M7.18556 3.56017V15.2709C6.50412 14.6631 5.60616 14.293 4.62325 14.293C2.49845 14.293 0.769775 16.0216 0.769775 18.1465C0.769775 20.2713 2.49845 22 4.62325 22C6.74543 22 8.4723 20.2757 8.47668 18.1545H8.47676V8.74305L19.939 5.83747V12.1622C19.2575 11.5544 18.3596 11.1843 17.3767 11.1843C15.2518 11.1843 13.5232 12.9129 13.5232 15.0377C13.5232 17.1626 15.2518 18.8913 17.3767 18.8913C19.5015 18.8913 21.2302 17.1625 21.2302 15.0377V0L7.18556 3.56017ZM4.62329 20.7087C3.21048 20.7087 2.06103 19.5593 2.06103 18.1464C2.06103 16.7336 3.21044 15.5841 4.62329 15.5841C6.03614 15.5841 7.1856 16.7335 7.1856 18.1464C7.18556 19.5593 6.03614 20.7087 4.62329 20.7087ZM8.47676 7.41106V4.56491L19.939 1.65936V4.50548L8.47676 7.41106ZM17.3767 17.6001C15.9638 17.6001 14.8144 16.4506 14.8144 15.0377C14.8144 13.6249 15.9638 12.4755 17.3767 12.4755C18.7895 12.4755 19.939 13.6249 19.939 15.0377C19.939 16.4506 18.7895 17.6001 17.3767 17.6001Z" fill="url(#paint0_linear_6_1502)"/>
</g>
<defs>
<linearGradient id="paint0_linear_6_1502" x1="11" y1="0" x2="11" y2="22" gradientUnits="userSpaceOnUse">
<stop stop-color="#5D68F1"/>
<stop offset="1" stop-color="#A38CE6"/>
</linearGradient>
<clipPath id="clip0_6_1502">
<rect width="22" height="22" fill="white"/>
</clipPath>
</defs>
</svg>
