<svg width="22" height="22" viewBox="0 0 22 22" fill="none" xmlns="http://www.w3.org/2000/svg">
<g clip-path="url(#clip0_6_1522)">
<path d="M5.80293 8.47034H7.09199V7.39062H10.3555V14.7318H9.23845V16.0209H12.7615V14.7318H11.6445V7.39062H14.908V8.47034H16.1971V6.10156H5.80293V8.47034Z" fill="url(#paint0_linear_6_1522)"/>
<path d="M20.4639 17.2307V4.76932C21.3644 4.39785 22 3.51089 22 2.47788C22 1.11156 20.8884 0 19.5221 0C18.4891 0 17.6021 0.635637 17.2307 1.53613H4.76932C4.39785 0.635637 3.51089 0 2.47788 0C1.11156 0 0 1.11156 0 2.47788C0 3.51089 0.635637 4.39789 1.53613 4.76936V17.2307C0.635637 17.6021 0 18.4891 0 19.5221C0 20.8884 1.11156 22 2.47788 22C3.51089 22 4.39785 21.3644 4.76932 20.4639H17.2307C17.6021 21.3644 18.4891 22 19.5221 22C20.8884 22 22 20.8884 22 19.5221C22 18.4891 21.3644 17.6021 20.4639 17.2307ZM17.0691 19.1748H4.93088C4.77739 18.086 3.91398 17.2226 2.8252 17.0691V4.93088C3.91398 4.77744 4.77739 3.91398 4.93088 2.8252H17.0691C17.2226 3.91402 18.086 4.77744 19.1748 4.93088V17.0691C18.086 17.2226 17.2226 18.086 17.0691 19.1748ZM19.5221 1.28906C20.1777 1.28906 20.7109 1.82235 20.7109 2.47788C20.7109 3.13341 20.1777 3.6667 19.5221 3.6667C18.8666 3.6667 18.3333 3.13341 18.3333 2.47788C18.3333 1.82235 18.8666 1.28906 19.5221 1.28906ZM2.47788 1.28906C3.13337 1.28906 3.66665 1.82235 3.66665 2.47788C3.66665 3.13341 3.13337 3.6667 2.47788 3.6667C1.82235 3.66665 1.28906 3.13337 1.28906 2.47788C1.28906 1.82235 1.82235 1.28906 2.47788 1.28906ZM2.47788 20.7109C1.82235 20.7109 1.28906 20.1777 1.28906 19.5221C1.28906 18.8666 1.82235 18.3333 2.47788 18.3333C3.13337 18.3333 3.66665 18.8666 3.66665 19.5221C3.66665 20.1777 3.13337 20.7109 2.47788 20.7109ZM19.5221 20.7109C18.8666 20.7109 18.3333 20.1777 18.3333 19.5221C18.3333 18.8666 18.8666 18.3333 19.5221 18.3333C20.1777 18.3333 20.7109 18.8666 20.7109 19.5221C20.7109 20.1777 20.1777 20.7109 19.5221 20.7109Z" fill="url(#paint1_linear_6_1522)"/>
</g>
<defs>
<linearGradient id="paint0_linear_6_1522" x1="11" y1="0" x2="11" y2="22" gradientUnits="userSpaceOnUse">
<stop stop-color="#5D68F1"/>
<stop offset="1" stop-color="#A38CE6"/>
</linearGradient>
<linearGradient id="paint1_linear_6_1522" x1="11" y1="0" x2="11" y2="22" gradientUnits="userSpaceOnUse">
<stop stop-color="#5D68F1"/>
<stop offset="1" stop-color="#A38CE6"/>
</linearGradient>
<clipPath id="clip0_6_1522">
<rect width="22" height="22" fill="white"/>
</clipPath>
</defs>
</svg>
