<svg width="22" height="22" viewBox="0 0 22 22" fill="none" xmlns="http://www.w3.org/2000/svg">
<path d="M2.57812 13.3126V14.571H3.86719V19.7273H7.73438V14.571H8.98816C13.7325 16.2259 16.248 18.7241 16.8438 19.1347V2.27295C16.2426 2.68734 13.7232 5.18498 8.98816 6.83662H2.57812V8.09504C2.18999 8.11477 1.80043 8.12568 1.41393 8.12568H0V13.2819H1.41393C1.80052 13.282 2.19007 13.2929 2.57812 13.3126ZM6.44531 18.4382H5.15625V14.571H6.44531V18.4382ZM15.5547 16.5021C13.6027 15.1196 11.374 13.9991 9.02344 13.2217V8.18597C11.374 7.40853 13.6027 6.28812 15.5547 4.90556V16.5021ZM3.86719 8.12572H7.73438V13.282H3.86719V8.12572ZM1.28906 9.41478H1.41393C1.80043 9.41478 2.18982 9.40426 2.57812 9.38557V12.0221C2.1899 12.0034 1.80052 11.9929 1.41393 11.9929H1.28906V9.41478Z" fill="url(#paint0_linear_6_1498)"/>
<path d="M19.4219 10.0593H22V11.3484H19.4219V10.0593Z" fill="url(#paint1_linear_6_1498)"/>
<path d="M18.0512 14.1158L18.9625 13.2045L20.7853 15.0272L19.8739 15.9386L18.0512 14.1158Z" fill="url(#paint2_linear_6_1498)"/>
<path d="M18.052 7.29368L19.8748 5.47095L20.7861 6.38232L18.9634 8.20505L18.052 7.29368Z" fill="url(#paint3_linear_6_1498)"/>
<defs>
<linearGradient id="paint0_linear_6_1498" x1="11" y1="2.27295" x2="11" y2="19.7273" gradientUnits="userSpaceOnUse">
<stop stop-color="#5D68F1"/>
<stop offset="1" stop-color="#A38CE6"/>
</linearGradient>
<linearGradient id="paint1_linear_6_1498" x1="11" y1="2.27295" x2="11" y2="19.7273" gradientUnits="userSpaceOnUse">
<stop stop-color="#5D68F1"/>
<stop offset="1" stop-color="#A38CE6"/>
</linearGradient>
<linearGradient id="paint2_linear_6_1498" x1="11" y1="2.27295" x2="11" y2="19.7273" gradientUnits="userSpaceOnUse">
<stop stop-color="#5D68F1"/>
<stop offset="1" stop-color="#A38CE6"/>
</linearGradient>
<linearGradient id="paint3_linear_6_1498" x1="11" y1="2.27295" x2="11" y2="19.7273" gradientUnits="userSpaceOnUse">
<stop stop-color="#5D68F1"/>
<stop offset="1" stop-color="#A38CE6"/>
</linearGradient>
</defs>
</svg>
