<svg width="22" height="22" viewBox="0 0 22 22" fill="none" xmlns="http://www.w3.org/2000/svg">
<g clip-path="url(#clip0_6_1510)">
<path d="M13.912 5.15625C13.0489 2.11479 10.2677 0 7.08984 0C3.1805 0 0 3.1805 0 7.08984C0 10.9992 3.1805 14.1797 7.08984 14.1797C8.22675 14.1797 9.32186 13.915 10.3125 13.4074V22H22V5.15625H13.912ZM20.7109 10.3125H11.6016V6.44531H20.7109V10.3125ZM2.55969 10.7085C1.89166 9.87388 1.44912 8.85156 1.32507 7.73438H5.53382L2.55969 10.7085ZM6.44531 1.32507V6.44531H1.32507C1.62323 3.76067 3.76067 1.62323 6.44531 1.32507ZM7.08984 12.8906C5.72228 12.8906 4.46394 12.4146 3.47119 11.62L7.73438 7.35681V1.32516C9.94005 1.5727 11.8243 3.0748 12.5604 5.15625H10.3125V11.9128C9.35825 12.5529 8.25095 12.8906 7.08984 12.8906ZM11.6016 20.7109V11.6016H20.7109V20.7109H11.6016Z" fill="url(#paint0_linear_6_1510)"/>
</g>
<defs>
<linearGradient id="paint0_linear_6_1510" x1="11" y1="0" x2="11" y2="22" gradientUnits="userSpaceOnUse">
<stop stop-color="#5D68F1"/>
<stop offset="1" stop-color="#A38CE6"/>
</linearGradient>
<clipPath id="clip0_6_1510">
<rect width="22" height="22" fill="white"/>
</clipPath>
</defs>
</svg>
