<svg width="24" height="25" viewBox="0 0 24 25" fill="none" xmlns="http://www.w3.org/2000/svg">
<path fill-rule="evenodd" clip-rule="evenodd" d="M5.2499 4.83921C3.9865 4.83921 2.9499 5.87581 2.9499 7.13921V17.6392C2.9499 18.9026 3.9865 19.9392 5.2499 19.9392H18.7499C20.0133 19.9392 21.0499 18.9026 21.0499 17.6392V7.13921C21.0499 5.87581 20.0133 4.83921 18.7499 4.83921H5.2499ZM1.5499 7.13921C1.5499 5.10261 3.2133 3.43921 5.2499 3.43921H18.7499C20.7865 3.43921 22.4499 5.10261 22.4499 7.13921V17.6392C22.4499 19.6758 20.7865 21.3392 18.7499 21.3392H5.2499C3.2133 21.3392 1.5499 19.6758 1.5499 17.6392V7.13921Z" fill="#222222"/>
<path fill-rule="evenodd" clip-rule="evenodd" d="M1.65374 7.52234C1.85636 7.19309 2.28752 7.09043 2.61677 7.29305L11.9999 13.0673L21.383 7.29305C21.7123 7.09043 22.1434 7.19309 22.3461 7.52234C22.5487 7.85159 22.446 8.28275 22.1168 8.48537L12.3668 14.4854C12.1418 14.6238 11.858 14.6238 11.633 14.4854L1.88303 8.48537C1.55378 8.28275 1.45113 7.85159 1.65374 7.52234Z" fill="#222222"/>
</svg>
