<svg width="24" height="25" viewBox="0 0 24 25" fill="none" xmlns="http://www.w3.org/2000/svg">
<path fill-rule="evenodd" clip-rule="evenodd" d="M9.83249 3.20073C10.2507 2.41215 11.1057 1.93921 12.0001 1.93921C12.8945 1.93921 13.7496 2.41215 14.1677 3.20073C16.6813 4.11993 18.5501 6.47633 18.5501 9.38921C18.5501 11.8014 19.2593 14.139 20.6043 16.1212L20.6128 16.1339L21.4438 17.4182C21.7617 17.9268 21.7754 18.5319 21.514 19.0198C21.2487 19.515 20.7272 19.8392 20.1001 19.8392H3.90011C3.27306 19.8392 2.75149 19.515 2.4862 19.0198C2.22483 18.5319 2.2386 17.9269 2.55651 17.4182L2.56234 17.4089L3.38741 16.1339L3.39587 16.1212C4.7409 14.139 5.45011 11.8014 5.45011 9.38921C5.45011 6.47633 7.31887 4.11993 9.83249 3.20073ZM12.0001 3.33921C11.5172 3.33921 11.1335 3.62754 11.0142 3.98557C10.943 4.19901 10.7736 4.36524 10.5589 4.43234C8.42674 5.09864 6.85011 7.02019 6.85011 9.38921C6.85011 12.0745 6.06084 14.6844 4.5587 16.9008L3.74159 18.1636C3.68696 18.2533 3.70063 18.322 3.72027 18.3587C3.73121 18.3791 3.74734 18.3967 3.77007 18.4101C3.79167 18.4229 3.83169 18.4392 3.90011 18.4392H20.1001C20.1685 18.4392 20.2085 18.4229 20.2301 18.4101C20.2529 18.3967 20.269 18.3791 20.2799 18.3587C20.2996 18.322 20.3133 18.2533 20.2586 18.1636L19.4415 16.9008C17.9394 14.6843 17.1501 12.0745 17.1501 9.38921C17.1501 7.02019 15.5735 5.09864 13.4413 4.43234C13.2266 4.36524 13.0572 4.19901 12.986 3.98557C12.8667 3.62754 12.483 3.33921 12.0001 3.33921Z" fill="#222222"/>
<path fill-rule="evenodd" clip-rule="evenodd" d="M9.00011 18.4392C9.38671 18.4392 9.70011 18.7526 9.70011 19.1392C9.70011 20.4026 10.7367 21.4392 12.0001 21.4392C13.2635 21.4392 14.3001 20.4026 14.3001 19.1392C14.3001 18.7526 14.6135 18.4392 15.0001 18.4392C15.3867 18.4392 15.7001 18.7526 15.7001 19.1392C15.7001 21.1758 14.0367 22.8392 12.0001 22.8392C9.96351 22.8392 8.30011 21.1758 8.30011 19.1392C8.30011 18.7526 8.61351 18.4392 9.00011 18.4392Z" fill="#222222"/>
</svg>
