<svg width="40" height="40" viewBox="0 0 40 40" fill="none" xmlns="http://www.w3.org/2000/svg">
<rect y="-0.00012207" width="40" height="40" rx="20" fill="#5ECA82"/>
<path d="M20.0002 13.5998C18.2331 13.5998 16.8003 15.0326 16.8003 16.7997C16.8003 18.5676 18.2331 19.9999 20.0002 19.9999C21.7673 19.9999 23.2001 18.5676 23.2001 16.8C23.2001 15.0326 21.7673 13.5998 20.0002 13.5998ZM20.0002 18.3998C19.1165 18.3998 18.4001 17.6834 18.4001 16.7997C18.4001 15.916 19.1165 15.1999 20.0002 15.1999C20.8839 15.1999 21.6003 15.9163 21.6003 16.8C21.6003 17.6836 20.8839 18.3998 20.0002 18.3998Z" fill="white"/>
<path d="M19.9999 10.3999C14.6976 10.3999 10.3999 14.698 10.3999 20.0001C10.3999 25.3015 14.6976 29.5999 19.9999 29.5999C25.3015 29.5999 29.5999 25.3015 29.5999 20.0001C29.5999 14.698 25.3015 10.3999 19.9999 10.3999ZM15.1999 26.3889V24.7999C15.1999 23.9162 15.9163 23.1998 16.8 23.1998H23.1998C24.0835 23.1998 24.7999 23.9162 24.7999 24.7999V26.3889C23.4617 27.396 21.803 27.9998 19.9999 27.9998C18.1968 27.9998 16.5374 27.396 15.1999 26.3889ZM26.3983 24.7864C26.3913 23.0263 24.9624 21.6 23.1998 21.6H16.8C15.0374 21.6 13.6077 23.0255 13.6015 24.7874C12.6 23.4516 12 21.7975 12 20.0001C12 15.5815 15.5813 11.9997 19.9999 11.9997C24.4178 11.9997 27.9998 15.5815 27.9998 20.0001C27.9998 21.7975 27.3998 23.4516 26.3983 24.7864Z" fill="white"/>
</svg>
