<svg width="40" height="40" viewBox="0 0 40 40" fill="none" xmlns="http://www.w3.org/2000/svg">
<rect y="-0.000488281" width="40" height="40" rx="20" fill="#FF6262"/>
<path d="M25.4743 13.5701H10.7905C10.4153 13.5701 10.0913 13.877 10.0913 14.2693V25.7297C10.0913 26.1049 10.3983 26.429 10.7905 26.429H25.4743C25.8494 26.429 26.1735 26.122 26.1735 25.7297V22.4212L28.7146 24.9623C28.851 25.0987 29.0215 25.167 29.2091 25.167C29.2944 25.167 29.3967 25.1499 29.482 25.1158C29.7378 25.0135 29.9084 24.7576 29.9084 24.4677V15.5142C29.9084 15.2414 29.7378 14.9856 29.482 14.8662C29.2262 14.7639 28.9192 14.815 28.7316 15.0197L26.1905 17.5608V14.2693C26.1735 13.877 25.8665 13.5701 25.4743 13.5701ZM24.775 19.2491V20.7499V25.0476H11.4727V14.9514H24.775V19.2491ZM28.5099 17.2026V22.8135L26.1735 20.477V19.5561L28.5099 17.2026Z" fill="white"/>
</svg>
