<svg width="40" height="40" viewBox="0 0 40 40" fill="none" xmlns="http://www.w3.org/2000/svg">
<rect y="-0.000183105" width="40" height="40" rx="20" fill="#4C7EFC"/>
<path d="M25.786 13.5709H23.1502C23.0027 12.8443 22.6085 12.191 22.0344 11.7218C21.4603 11.2526 20.7416 10.9962 20.0002 10.9962C19.2587 10.9962 18.5401 11.2526 17.966 11.7218C17.3919 12.191 16.9977 12.8443 16.8501 13.5709H14.2143C13.3618 13.5709 12.5443 13.9096 11.9415 14.5124C11.3387 15.1152 11 15.9328 11 16.7853V21.2854C11 21.4559 11.0677 21.6194 11.1883 21.74C11.3089 21.8605 11.4724 21.9282 11.6429 21.9282H12.2857V25.7855C12.2857 26.638 12.6244 27.4555 13.2272 28.0583C13.83 28.6612 14.6476 28.9998 15.5001 28.9998H24.5003C25.3528 28.9998 26.1703 28.6612 26.7731 28.0583C27.376 27.4555 27.7146 26.638 27.7146 25.7855V21.9282H28.3575C28.528 21.9282 28.6915 21.8605 28.8121 21.74C28.9326 21.6194 29.0003 21.4559 29.0003 21.2854V16.7853C29.0003 15.9328 28.6617 15.1152 28.0589 14.5124C27.4561 13.9096 26.6385 13.5709 25.786 13.5709ZM20.0002 12.2852C20.3992 12.285 20.7884 12.4085 21.1143 12.6388C21.4401 12.8691 21.6865 13.1948 21.8195 13.5709H18.1809C18.3139 13.1948 18.5602 12.8691 18.8861 12.6388C19.2119 12.4085 19.6012 12.285 20.0002 12.2852ZM26.4289 25.7855C26.4289 26.297 26.2257 26.7875 25.864 27.1492C25.5023 27.5109 25.0118 27.7141 24.5003 27.7141H15.5001C14.9886 27.7141 14.498 27.5109 14.1364 27.1492C13.7747 26.7875 13.5715 26.297 13.5715 25.7855V21.9282H18.1873C18.3224 22.3006 18.5689 22.6223 18.8933 22.8496C19.2176 23.0769 19.6041 23.1989 20.0002 23.1989C20.3963 23.1989 20.7827 23.0769 21.1071 22.8496C21.4314 22.6223 21.6779 22.3006 21.8131 21.9282H26.4289V25.7855ZM19.3573 21.2854C19.3573 21.1582 19.395 21.0339 19.4656 20.9282C19.5363 20.8225 19.6367 20.7401 19.7542 20.6914C19.8716 20.6428 20.0009 20.6301 20.1256 20.6549C20.2503 20.6797 20.3648 20.7409 20.4548 20.8308C20.5447 20.9207 20.6059 21.0353 20.6307 21.16C20.6555 21.2847 20.6428 21.4139 20.5941 21.5314C20.5454 21.6489 20.4631 21.7493 20.3573 21.8199C20.2516 21.8905 20.1273 21.9282 20.0002 21.9282C19.8297 21.9282 19.6662 21.8605 19.5456 21.74C19.425 21.6194 19.3573 21.4559 19.3573 21.2854ZM27.7146 20.6425H21.8131C21.6779 20.2702 21.4314 19.9485 21.1071 19.7212C20.7827 19.4938 20.3963 19.3719 20.0002 19.3719C19.6041 19.3719 19.2176 19.4938 18.8933 19.7212C18.5689 19.9485 18.3224 20.2702 18.1873 20.6425H12.2857V16.7853C12.2857 16.2738 12.4889 15.7832 12.8506 15.4216C13.2123 15.0599 13.7028 14.8567 14.2143 14.8567H25.786C26.2975 14.8567 26.788 15.0599 27.1497 15.4216C27.5114 15.7832 27.7146 16.2738 27.7146 16.7853V20.6425Z" fill="white"/>
</svg>
