<svg width="40" height="40" viewBox="0 0 40 40" fill="none" xmlns="http://www.w3.org/2000/svg">
<rect width="40" height="40" rx="20" fill="#9F72FF"/>
<path d="M26.5553 13.2082L24.7293 11.3822C24.4108 11.0619 24.032 10.808 23.6147 10.6351C23.1974 10.4623 22.75 10.3738 22.2983 10.375H15.875C14.9637 10.3761 14.0899 10.7386 13.4455 11.383C12.8011 12.0275 12.4386 12.9012 12.4375 13.8125V26.1875C12.4386 27.0989 12.8011 27.9726 13.4455 28.617C14.0899 29.2614 14.9637 29.6239 15.875 29.625H24.125C25.0363 29.6239 25.9101 29.2614 26.5545 28.617C27.1989 27.9726 27.5614 27.0989 27.5625 26.1875V15.6392C27.5637 15.1875 27.4752 14.7401 27.3024 14.3228C27.1295 13.9056 26.8756 13.5267 26.5553 13.2082ZM25.5832 14.1803C25.6804 14.278 25.7676 14.3851 25.8438 14.5H24.125C23.9427 14.5 23.7678 14.4276 23.6389 14.2986C23.5099 14.1697 23.4375 13.9948 23.4375 13.8125V12.0938C23.5524 12.1701 23.6595 12.2576 23.7572 12.355L25.5832 14.1803ZM24.125 28.25H15.875C15.328 28.25 14.8034 28.0327 14.4166 27.6459C14.0298 27.2591 13.8125 26.7345 13.8125 26.1875V13.8125C13.8125 13.2655 14.0298 12.7409 14.4166 12.3541C14.8034 11.9673 15.328 11.75 15.875 11.75H22.0625V13.8125C22.0625 14.3595 22.2798 14.8841 22.6666 15.2709C23.0534 15.6577 23.578 15.875 24.125 15.875H26.1875V26.1875C26.1875 26.7345 25.9702 27.2591 25.5834 27.6459C25.1966 28.0327 24.672 28.25 24.125 28.25Z" fill="white"/>
</svg>
