<svg width="40" height="40" viewBox="0 0 40 40" fill="none" xmlns="http://www.w3.org/2000/svg">
<rect y="-6.10352e-05" width="40" height="40" rx="20" fill="#F39D47"/>
<path d="M25.4444 16.6666C25.4444 13.542 23.0021 10.9999 20 10.9999C16.9979 10.9999 14.5556 13.542 14.5556 16.6666C14.1432 16.6671 13.7478 16.8378 13.4562 17.1413C13.1645 17.4449 13.0005 17.8564 13 18.2856V24.7618C13.0009 25.6203 13.329 26.4434 13.9123 27.0504C14.4955 27.6575 15.2863 27.999 16.1111 27.9999H23.8889C24.7137 27.999 25.5045 27.6575 26.0877 27.0504C26.671 26.4434 26.9991 25.6203 27 24.7618V18.2856C26.9995 17.8564 26.8355 17.4449 26.5438 17.1413C26.2522 16.8378 25.8568 16.6671 25.4444 16.6666ZM20 12.619C21.031 12.6202 22.0195 13.047 22.7486 13.8058C23.4776 14.5646 23.8877 15.5935 23.8889 16.6666H16.1111C16.1123 15.5935 16.5224 14.5646 17.2514 13.8058C17.9805 13.047 18.969 12.6202 20 12.619ZM25.4444 24.7618C25.444 25.1911 25.2799 25.6026 24.9883 25.9062C24.6967 26.2097 24.3013 26.3804 23.8889 26.3809H16.1111C15.6987 26.3804 15.3033 26.2097 15.0117 25.9061C14.7201 25.6026 14.556 25.1911 14.5556 24.7618V18.2856H25.4444V24.7618Z" fill="white"/>
</svg>
