<svg width="20" height="20" viewBox="0 0 20 20" fill="none" xmlns="http://www.w3.org/2000/svg">
<path fill-rule="evenodd" clip-rule="evenodd" d="M5.71429 3.57144C4.50306 3.57144 3.57143 4.5172 3.57143 5.66073C3.57143 6.61857 4.13832 7.57987 4.78513 8.34959C5.10031 8.72465 5.41687 9.03344 5.65486 9.24844C5.67529 9.26689 5.69512 9.28463 5.71429 9.30164C5.73345 9.28463 5.75328 9.26689 5.77371 9.24844C6.01171 9.03344 6.32826 8.72465 6.64344 8.34959C7.29026 7.57987 7.85714 6.61857 7.85714 5.66073C7.85714 4.5172 6.92551 3.57144 5.71429 3.57144ZM5.71429 10C5.39013 10.4266 5.38988 10.4264 5.38988 10.4264L5.38873 10.4255L5.38636 10.4237L5.37874 10.4178C5.37241 10.4129 5.36359 10.406 5.35246 10.3973C5.3302 10.3797 5.29866 10.3545 5.25915 10.322C5.18018 10.2572 5.06912 10.1632 4.93665 10.0435C4.67242 9.80482 4.31933 9.4607 3.96487 9.03889C3.2724 8.21484 2.5 7.00648 2.5 5.66073C2.5 3.91139 3.92551 2.5 5.71429 2.5C7.50306 2.5 8.92857 3.91139 8.92857 5.66073C8.92857 7.00648 8.15617 8.21484 7.4637 9.03889C7.10924 9.4607 6.75615 9.80482 6.49192 10.0435C6.35945 10.1632 6.24839 10.2572 6.16942 10.322C6.12991 10.3545 6.09837 10.3797 6.07611 10.3973C6.06498 10.406 6.05617 10.4129 6.04983 10.4178L6.04222 10.4237L6.03984 10.4255L6.03902 10.4261C6.03902 10.4261 6.03844 10.4266 5.71429 10ZM5.71429 10L6.03844 10.4266C5.84686 10.5722 5.58145 10.572 5.38988 10.4264L5.71429 10Z" fill="#6B7177"/>
<path fill-rule="evenodd" clip-rule="evenodd" d="M4.64286 5.66073C4.64286 5.069 5.12255 4.5893 5.71429 4.5893C6.30602 4.5893 6.78571 5.069 6.78571 5.66073C6.78571 6.25247 6.30602 6.73217 5.71429 6.73217C5.12255 6.73217 4.64286 6.25247 4.64286 5.66073Z" fill="#6B7177"/>
<path fill-rule="evenodd" clip-rule="evenodd" d="M14.2857 10.5358C13.0745 10.5358 12.1429 11.4815 12.1429 12.6251C12.1429 13.5829 12.7097 14.5442 13.3566 15.3139C13.6717 15.689 13.9883 15.9978 14.2263 16.2128C14.2467 16.2312 14.2665 16.249 14.2857 16.266C14.3049 16.249 14.3247 16.2312 14.3451 16.2128C14.5831 15.9978 14.8997 15.689 15.2149 15.3139C15.8617 14.5442 16.4286 13.5829 16.4286 12.6251C16.4286 11.4815 15.4969 10.5358 14.2857 10.5358ZM14.2857 16.9644C13.9616 17.3909 13.9613 17.3907 13.9613 17.3907L13.9602 17.3898L13.9578 17.388L13.9502 17.3821C13.9438 17.3772 13.935 17.3704 13.9239 17.3616C13.9016 17.344 13.8701 17.3188 13.8306 17.2864C13.7516 17.2215 13.6406 17.1275 13.5081 17.0078C13.2438 16.7691 12.8908 16.425 12.5363 16.0032C11.8438 15.1792 11.0714 13.9708 11.0714 12.6251C11.0714 10.8757 12.4969 9.46433 14.2857 9.46433C16.0745 9.46433 17.5 10.8757 17.5 12.6251C17.5 13.9708 16.7276 15.1792 16.0351 16.0032C15.6807 16.425 15.3276 16.7691 15.0633 17.0078C14.9309 17.1275 14.8198 17.2215 14.7408 17.2864C14.7013 17.3188 14.6698 17.344 14.6475 17.3616C14.6364 17.3704 14.6276 17.3772 14.6213 17.3821L14.6136 17.388L14.6113 17.3898L14.6104 17.3905C14.6104 17.3905 14.6099 17.3909 14.2857 16.9644ZM14.2857 16.9644L14.6099 17.3909C14.4183 17.5365 14.1529 17.5363 13.9613 17.3907L14.2857 16.9644Z" fill="#6B7177"/>
<path fill-rule="evenodd" clip-rule="evenodd" d="M13.2143 12.6251C13.2143 12.0333 13.694 11.5536 14.2857 11.5536C14.8774 11.5536 15.3571 12.0333 15.3571 12.6251C15.3571 13.2168 14.8774 13.6965 14.2857 13.6965C13.694 13.6965 13.2143 13.2168 13.2143 12.6251Z" fill="#6B7177"/>
<path fill-rule="evenodd" clip-rule="evenodd" d="M10 4.64287C9.35914 4.64287 8.77898 4.74133 8.25451 4.93205C7.97645 5.03316 7.66908 4.88972 7.56797 4.61166C7.46686 4.33361 7.6103 4.02623 7.88835 3.92512C8.54245 3.68727 9.24801 3.57144 10 3.57144C12.9232 3.57144 15.4338 5.55686 16.1941 8.2472C16.2746 8.53192 16.109 8.82796 15.8243 8.90842C15.5395 8.98889 15.2435 8.82331 15.163 8.53859C14.5305 6.30033 12.434 4.64287 10 4.64287Z" fill="#6B7177"/>
<path fill-rule="evenodd" clip-rule="evenodd" d="M4.17574 11.0917C4.46045 11.0112 4.75649 11.1768 4.83695 11.4615C5.4695 13.6998 7.56601 15.3572 10 15.3572C10.879 15.3572 11.6493 15.1633 12.3729 14.7774C12.634 14.6382 12.9585 14.7369 13.0977 14.998C13.2369 15.259 13.1382 15.5835 12.8771 15.7228C11.9936 16.194 11.0495 16.4287 10 16.4287C7.07684 16.4287 4.56622 14.4432 3.80591 11.7529C3.72544 11.4682 3.89102 11.1721 4.17574 11.0917Z" fill="#6B7177"/>
</svg>
