<svg width="20" height="20" viewBox="0 0 20 20" fill="none" xmlns="http://www.w3.org/2000/svg">
<path fill-rule="evenodd" clip-rule="evenodd" d="M10 4.16667C6.77834 4.16667 4.16667 6.77834 4.16667 10C4.16667 13.2216 6.77834 15.8333 10 15.8333C13.2216 15.8333 15.8333 13.2216 15.8333 10C15.8333 6.77834 13.2216 4.16667 10 4.16667ZM3 10C3 6.134 6.134 3 10 3C13.866 3 17 6.134 17 10C17 13.866 13.866 17 10 17C6.134 17 3 13.866 3 10ZM10 6.5C10.3222 6.5 10.5833 6.76117 10.5833 7.08333V9.71965L13.2811 11.8778C13.5327 12.0791 13.5734 12.4461 13.3722 12.6977C13.1709 12.9493 12.8038 12.9901 12.5523 12.7889L9.63559 10.4555C9.49722 10.3448 9.41667 10.1772 9.41667 10V7.08333C9.41667 6.76117 9.67782 6.5 10 6.5Z" fill="#6B7177"/>
</svg>
