<svg width="20" height="20" viewBox="0 0 20 20" fill="none" xmlns="http://www.w3.org/2000/svg">
<path d="M9.06997 17C8.88008 17 8.70836 16.8871 8.63359 16.7128L3.03817 3.65878C2.96193 3.48088 3.00203 3.27465 3.13942 3.13809C3.2769 3.00149 3.48395 2.96208 3.66211 3.03854L16.713 8.63518C16.8887 8.71055 17.0018 8.88364 17 9.07422C16.9981 9.26485 16.8816 9.43577 16.7045 9.50761L11.5871 11.5852L9.50994 16.7043C9.43805 16.8814 9.26638 16.9981 9.07469 17C9.07309 17 9.07153 17 9.06997 17ZM4.37723 4.37499L9.05805 15.295L10.7825 11.0452C10.8306 10.9268 10.9246 10.8328 11.0434 10.7846L15.2968 9.05768L4.37723 4.37499Z" fill="#6B7177"/>
</svg>
