<svg width="60" height="43" viewBox="0 0 60 43" fill="none" xmlns="http://www.w3.org/2000/svg">
<path d="M14.837 42.3294C11.0327 42.3294 7.60876 40.8076 4.56528 37.7642C1.5218 34.612 6.10352e-05 29.9924 6.10352e-05 23.9055C6.10352e-05 16.9489 1.84789 11.2968 5.54354 6.94894C9.34789 2.49241 14.7283 0.26416 21.6848 0.26416C24.1848 0.26416 26.1414 0.427198 27.5544 0.753281V8.25328C26.0327 8.03589 24.0761 7.9272 21.6848 7.9272C17.9892 7.9272 15.0001 9.1772 12.7175 11.6772C10.5435 13.8511 9.29354 16.7315 8.96745 20.3185C10.3805 18.5794 12.6631 17.7098 15.8153 17.7098C19.0761 17.7098 21.8479 18.8511 24.1305 21.1337C26.4131 23.3076 27.5544 26.1881 27.5544 29.775C27.5544 33.4707 26.3588 36.5142 23.9675 38.9055C21.5761 41.1881 18.5327 42.3294 14.837 42.3294ZM47.2827 42.3294C43.4783 42.3294 40.0544 40.8076 37.0109 37.7642C33.9674 34.612 32.4457 29.9924 32.4457 23.9055C32.4457 16.9489 34.2935 11.2968 37.9892 6.94894C41.7935 2.49241 47.174 0.26416 54.1305 0.26416C56.6305 0.26416 58.587 0.427198 60.0001 0.753281V8.25328C58.4783 8.03589 56.5218 7.9272 54.1305 7.9272C50.4348 7.9272 47.4457 9.1772 45.1631 11.6772C42.9892 13.8511 41.7392 16.7315 41.4131 20.3185C42.8261 18.5794 45.1088 17.7098 48.2609 17.7098C51.5218 17.7098 54.2935 18.8511 56.5761 21.1337C58.8587 23.3076 60.0001 26.1881 60.0001 29.775C60.0001 33.4707 58.8044 36.5142 56.4131 38.9055C54.0218 41.1881 50.9783 42.3294 47.2827 42.3294Z" fill="url(#paint0_linear_6_1730)"/>
<defs>
<linearGradient id="paint0_linear_6_1730" x1="30.0001" y1="0.26416" x2="30.0001" y2="42.3294" gradientUnits="userSpaceOnUse">
<stop stop-color="#5D68F1"/>
<stop offset="1" stop-color="#A38CE6"/>
</linearGradient>
</defs>
</svg>
