<svg width="20" height="20" viewBox="0 0 20 20" fill="none" xmlns="http://www.w3.org/2000/svg">
<path d="M11.075 5.94166C10.9969 6.01913 10.9349 6.1113 10.8926 6.21285C10.8503 6.31439 10.8285 6.42332 10.8285 6.53333C10.8285 6.64334 10.8503 6.75226 10.8926 6.85381C10.9349 6.95536 10.9969 7.04752 11.075 7.12499L12.675 8.72499C12.7525 8.8031 12.8446 8.86509 12.9462 8.9074C13.0477 8.94971 13.1567 8.97149 13.2667 8.97149C13.3767 8.97149 13.4856 8.94971 13.5872 8.9074C13.6887 8.86509 13.7809 8.8031 13.8583 8.72499L17.2583 5.32499C17.3495 5.25095 17.4239 5.15848 17.4768 5.05366C17.5297 4.94883 17.5598 4.83401 17.5653 4.71672C17.5707 4.59944 17.5513 4.48233 17.5083 4.37307C17.4653 4.26381 17.3997 4.16487 17.3157 4.08274C17.2318 4.00061 17.1315 3.93713 17.0214 3.89648C16.9112 3.85582 16.7937 3.8389 16.6766 3.84682C16.5594 3.85474 16.4453 3.88733 16.3416 3.94245C16.2379 3.99757 16.1471 4.07398 16.075 4.16666L13.2667 6.95833L12.2583 5.94166C12.1809 5.86355 12.0887 5.80156 11.9872 5.75925C11.8856 5.71694 11.7767 5.69516 11.6667 5.69516C11.5567 5.69516 11.4477 5.71694 11.3462 5.75925C11.2446 5.80156 11.1525 5.86355 11.075 5.94166ZM16.5917 8.86666C16.3719 8.88574 16.1686 8.9912 16.0265 9.15991C15.8843 9.32862 15.8149 9.54682 15.8333 9.76666C15.8375 9.84438 15.8375 9.92227 15.8333 9.99999C15.8333 11.5471 15.2188 13.0308 14.1248 14.1248C13.0308 15.2187 11.5471 15.8333 10 15.8333H5.34167L5.875 15.3083C6.03021 15.1522 6.11733 14.941 6.11733 14.7208C6.11733 14.5007 6.03021 14.2895 5.875 14.1333C5.12972 13.3921 4.59857 12.4632 4.33772 11.4449C4.07687 10.4267 4.09601 9.35685 4.39312 8.34857C4.69022 7.34028 5.25425 6.43101 6.02558 5.71689C6.7969 5.00277 7.74686 4.51034 8.775 4.29166C9.54516 4.13766 10.3382 4.13766 11.1083 4.29166C11.2178 4.31355 11.3304 4.31366 11.4399 4.29201C11.5494 4.27035 11.6535 4.22734 11.7464 4.16543C11.8393 4.10353 11.919 4.02394 11.9811 3.93121C12.0432 3.83848 12.0864 3.73443 12.1083 3.62499C12.1302 3.51556 12.1303 3.40288 12.1087 3.2934C12.087 3.18392 12.044 3.07978 11.9821 2.98692C11.9202 2.89406 11.8406 2.81431 11.7479 2.75221C11.6552 2.69011 11.5511 2.64688 11.4417 2.62499C10.4488 2.42521 9.42616 2.42521 8.43334 2.62499C6.751 2.99222 5.24498 3.92409 4.16559 5.26575C3.0862 6.60741 2.49844 8.27804 2.5 9.99999C2.507 11.7052 3.09487 13.3571 4.16667 14.6833L2.74167 16.075C2.62604 16.1922 2.54771 16.341 2.51656 16.5026C2.48542 16.6643 2.50285 16.8316 2.56667 16.9833C2.62919 17.1355 2.73535 17.2658 2.87178 17.3577C3.00822 17.4497 3.16882 17.4992 3.33334 17.5H10C11.9891 17.5 13.8968 16.7098 15.3033 15.3033C16.7098 13.8968 17.5 11.9891 17.5 9.99999C17.5 9.87499 17.5 9.75833 17.5 9.63333C17.4916 9.523 17.4614 9.41544 17.411 9.31694C17.3606 9.21843 17.2911 9.13094 17.2066 9.05957C17.122 8.98821 17.0241 8.93439 16.9185 8.90127C16.8129 8.86815 16.7018 8.85638 16.5917 8.86666Z" fill="#6B7177"/>
</svg>
