<svg width="12" height="12" viewBox="0 0 12 12" fill="none" xmlns="http://www.w3.org/2000/svg">
<path fill-rule="evenodd" clip-rule="evenodd" d="M9 1.5C8.44772 1.5 8 1.94772 8 2.5C8 3.05228 8.44772 3.5 9 3.5C9.55228 3.5 10 3.05228 10 2.5C10 1.94772 9.55228 1.5 9 1.5ZM7 2.5C7 1.39543 7.89543 0.5 9 0.5C10.1046 0.5 11 1.39543 11 2.5C11 3.60457 10.1046 4.5 9 4.5C7.89543 4.5 7 3.60457 7 2.5Z" fill="black"/>
<path fill-rule="evenodd" clip-rule="evenodd" d="M3 5C2.44772 5 2 5.44772 2 6C2 6.55228 2.44772 7 3 7C3.55228 7 4 6.55228 4 6C4 5.44772 3.55228 5 3 5ZM1 6C1 4.89543 1.89543 4 3 4C4.10457 4 5 4.89543 5 6C5 7.10457 4.10457 8 3 8C1.89543 8 1 7.10457 1 6Z" fill="black"/>
<path fill-rule="evenodd" clip-rule="evenodd" d="M9 8.5C8.44772 8.5 8 8.94771 8 9.5C8 10.0523 8.44772 10.5 9 10.5C9.55228 10.5 10 10.0523 10 9.5C10 8.94771 9.55228 8.5 9 8.5ZM7 9.5C7 8.39543 7.89543 7.5 9 7.5C10.1046 7.5 11 8.39543 11 9.5C11 10.6046 10.1046 11.5 9 11.5C7.89543 11.5 7 10.6046 7 9.5Z" fill="black"/>
<path fill-rule="evenodd" clip-rule="evenodd" d="M3.863 6.50326C4.00203 6.26467 4.30815 6.18396 4.54674 6.323L7.96174 8.313C8.20033 8.45203 8.28104 8.75815 8.142 8.99674C8.00297 9.23533 7.69685 9.31604 7.45826 9.177L4.04326 7.187C3.80467 7.04797 3.72396 6.74185 3.863 6.50326Z" fill="black"/>
<path fill-rule="evenodd" clip-rule="evenodd" d="M8.13684 3.00299C8.27603 3.24149 8.19551 3.54766 7.95701 3.68684L4.54701 5.67684C4.30851 5.81603 4.00234 5.73551 3.86316 5.49701C3.72397 5.25851 3.80449 4.95234 4.04299 4.81316L7.45299 2.82316C7.69149 2.68397 7.99766 2.76449 8.13684 3.00299Z" fill="black"/>
</svg>
