<svg width="65" height="55" viewBox="0 0 65 55" fill="none" xmlns="http://www.w3.org/2000/svg">
<circle cx="45" cy="35" r="20" fill="#F3F4FF"/>
<path fill-rule="evenodd" clip-rule="evenodd" d="M31.7396 10.3278C31.3997 9.93131 30.75 10.1717 30.75 10.6939V16.8753C30.75 18.6357 29.3229 20.0628 27.5625 20.0628H3.1875C2.46263 20.0628 1.875 19.4751 1.875 18.7503C1.875 18.0254 2.46263 17.4378 3.1875 17.4378H27.5625C27.8732 17.4378 28.125 17.1859 28.125 16.8753V10.6939C28.125 7.73459 31.8067 6.37262 33.7326 8.61948L41.684 17.8961C42.1558 18.4465 42.092 19.2751 41.5417 19.7468C40.9913 20.2185 40.1627 20.1548 39.691 19.6044L31.7396 10.3278Z" fill="url(#paint0_linear_137_7626)"/>
<path fill-rule="evenodd" clip-rule="evenodd" d="M12.1355 34.6727C12.4753 35.0692 13.125 34.8289 13.125 34.3066V28.1252C13.125 26.3648 14.5521 24.9377 16.3125 24.9377H40.6875C41.4124 24.9377 42 25.5254 42 26.2502C42 26.9751 41.4124 27.5627 40.6875 27.5627H16.3125C16.0019 27.5627 15.75 27.8146 15.75 28.1252V34.3066C15.75 37.2659 12.0683 38.6279 10.1424 36.381L2.19102 27.1044C1.71928 26.554 1.78302 25.7255 2.33338 25.2537C2.88375 24.782 3.71233 24.8457 4.18407 25.3961L12.1355 34.6727Z" fill="url(#paint1_linear_137_7626)"/>
<defs>
<linearGradient id="paint0_linear_137_7626" x1="21.9375" y1="7.5" x2="21.9375" y2="37.5005" gradientUnits="userSpaceOnUse">
<stop stop-color="#5D68F1"/>
<stop offset="1" stop-color="#A38CE6"/>
</linearGradient>
<linearGradient id="paint1_linear_137_7626" x1="21.9375" y1="7.5" x2="21.9375" y2="37.5005" gradientUnits="userSpaceOnUse">
<stop stop-color="#5D68F1"/>
<stop offset="1" stop-color="#A38CE6"/>
</linearGradient>
</defs>
</svg>
