<svg width="39" height="43" viewBox="0 0 39 43" fill="none" xmlns="http://www.w3.org/2000/svg">
<circle cx="21.6667" cy="25.1334" r="17.3333" fill="#F3F4FF"/>
<g clip-path="url(#clip0_771_32839)">
<path d="M10.8446 29C10.5067 29 10.201 28.7984 10.068 28.4872L0.108946 5.1764C-0.0267439 4.85872 0.0446366 4.49045 0.289165 4.2466C0.533862 4.00266 0.902381 3.93229 1.21947 4.06882L24.4481 14.0628C24.7608 14.1974 24.9621 14.5065 24.9589 14.8468C24.9555 15.1873 24.7481 15.4925 24.4329 15.6208L15.3248 19.3308L11.6277 28.472C11.4998 28.7883 11.1942 28.9967 10.8531 29C10.8502 29 10.8474 29 10.8446 29ZM2.49228 6.45535L10.8234 25.9554L13.8926 18.3665C13.9782 18.155 14.1456 17.9871 14.357 17.9011L21.9276 14.8173L2.49228 6.45535Z" fill="url(#paint0_linear_771_32839)"/>
</g>
<defs>
<linearGradient id="paint0_linear_771_32839" x1="12.5" y1="4" x2="12.5" y2="29" gradientUnits="userSpaceOnUse">
<stop stop-color="#5D68F1"/>
<stop offset="1" stop-color="#A38CE6"/>
</linearGradient>
<clipPath id="clip0_771_32839">
<rect width="25" height="25" fill="white" transform="translate(0 4)"/>
</clipPath>
</defs>
</svg>
