<svg width="60" height="56" viewBox="0 0 60 56" fill="none" xmlns="http://www.w3.org/2000/svg">
<circle cx="40" cy="36" r="20" fill="#F3F4FF"/>
<path fill-rule="evenodd" clip-rule="evenodd" d="M25 3.1875C25.8284 3.1875 26.5 3.85907 26.5 4.6875V12.5C26.5 13.3284 25.8284 14 25 14C24.1716 14 23.5 13.3284 23.5 12.5V4.6875C23.5 3.85907 24.1716 3.1875 25 3.1875Z" fill="url(#paint0_linear_137_7636)"/>
<path fill-rule="evenodd" clip-rule="evenodd" d="M9.56434 9.56434C10.1501 8.97855 11.0999 8.97855 11.6857 9.56434L17.1544 15.0331C17.7402 15.6189 17.7402 16.5686 17.1544 17.1544C16.5686 17.7402 15.6189 17.7402 15.0331 17.1544L9.56434 11.6857C8.97855 11.0999 8.97855 10.1501 9.56434 9.56434Z" fill="url(#paint1_linear_137_7636)"/>
<path fill-rule="evenodd" clip-rule="evenodd" d="M3.1875 25C3.1875 24.1716 3.85907 23.5 4.6875 23.5H12.5C13.3284 23.5 14 24.1716 14 25C14 25.8284 13.3284 26.5 12.5 26.5H4.6875C3.85907 26.5 3.1875 25.8284 3.1875 25Z" fill="url(#paint2_linear_137_7636)"/>
<path fill-rule="evenodd" clip-rule="evenodd" d="M17.1544 32.8456C17.7402 33.4314 17.7402 34.3811 17.1544 34.9669L11.6857 40.4357C11.0999 41.0214 10.1501 41.0214 9.56434 40.4357C8.97855 39.8499 8.97855 38.9001 9.56434 38.3143L15.0331 32.8456C15.6189 32.2598 16.5686 32.2598 17.1544 32.8456Z" fill="url(#paint3_linear_137_7636)"/>
<path fill-rule="evenodd" clip-rule="evenodd" d="M25 36C25.8284 36 26.5 36.6716 26.5 37.5V45.3125C26.5 46.1409 25.8284 46.8125 25 46.8125C24.1716 46.8125 23.5 46.1409 23.5 45.3125V37.5C23.5 36.6716 24.1716 36 25 36Z" fill="url(#paint4_linear_137_7636)"/>
<path fill-rule="evenodd" clip-rule="evenodd" d="M32.8456 32.8456C33.4314 32.2598 34.3811 32.2598 34.9669 32.8456L40.4357 38.3143C41.0214 38.9001 41.0214 39.8499 40.4357 40.4357C39.8499 41.0214 38.9001 41.0214 38.3143 40.4357L32.8456 34.9669C32.2598 34.3811 32.2598 33.4314 32.8456 32.8456Z" fill="url(#paint5_linear_137_7636)"/>
<path fill-rule="evenodd" clip-rule="evenodd" d="M36 25C36 24.1716 36.6716 23.5 37.5 23.5H45.3125C46.1409 23.5 46.8125 24.1716 46.8125 25C46.8125 25.8284 46.1409 26.5 45.3125 26.5H37.5C36.6716 26.5 36 25.8284 36 25Z" fill="url(#paint6_linear_137_7636)"/>
<path fill-rule="evenodd" clip-rule="evenodd" d="M40.4357 9.56434C41.0214 10.1501 41.0214 11.0999 40.4357 11.6857L34.9669 17.1544C34.3811 17.7402 33.4314 17.7402 32.8456 17.1544C32.2598 16.5686 32.2598 15.6189 32.8456 15.0331L38.3143 9.56434C38.9001 8.97855 39.8499 8.97855 40.4357 9.56434Z" fill="url(#paint7_linear_137_7636)"/>
<defs>
<linearGradient id="paint0_linear_137_7636" x1="25" y1="3.1875" x2="25" y2="46.8125" gradientUnits="userSpaceOnUse">
<stop stop-color="#5D68F1"/>
<stop offset="1" stop-color="#A38CE6"/>
</linearGradient>
<linearGradient id="paint1_linear_137_7636" x1="25" y1="3.1875" x2="25" y2="46.8125" gradientUnits="userSpaceOnUse">
<stop stop-color="#5D68F1"/>
<stop offset="1" stop-color="#A38CE6"/>
</linearGradient>
<linearGradient id="paint2_linear_137_7636" x1="25" y1="3.1875" x2="25" y2="46.8125" gradientUnits="userSpaceOnUse">
<stop stop-color="#5D68F1"/>
<stop offset="1" stop-color="#A38CE6"/>
</linearGradient>
<linearGradient id="paint3_linear_137_7636" x1="25" y1="3.1875" x2="25" y2="46.8125" gradientUnits="userSpaceOnUse">
<stop stop-color="#5D68F1"/>
<stop offset="1" stop-color="#A38CE6"/>
</linearGradient>
<linearGradient id="paint4_linear_137_7636" x1="25" y1="3.1875" x2="25" y2="46.8125" gradientUnits="userSpaceOnUse">
<stop stop-color="#5D68F1"/>
<stop offset="1" stop-color="#A38CE6"/>
</linearGradient>
<linearGradient id="paint5_linear_137_7636" x1="25" y1="3.1875" x2="25" y2="46.8125" gradientUnits="userSpaceOnUse">
<stop stop-color="#5D68F1"/>
<stop offset="1" stop-color="#A38CE6"/>
</linearGradient>
<linearGradient id="paint6_linear_137_7636" x1="25" y1="3.1875" x2="25" y2="46.8125" gradientUnits="userSpaceOnUse">
<stop stop-color="#5D68F1"/>
<stop offset="1" stop-color="#A38CE6"/>
</linearGradient>
<linearGradient id="paint7_linear_137_7636" x1="25" y1="3.1875" x2="25" y2="46.8125" gradientUnits="userSpaceOnUse">
<stop stop-color="#5D68F1"/>
<stop offset="1" stop-color="#A38CE6"/>
</linearGradient>
</defs>
</svg>
