<svg width="62" height="58" viewBox="0 0 62 58" fill="none" xmlns="http://www.w3.org/2000/svg">
<circle cx="42" cy="38" r="20" fill="#F3F4FF"/>
<path fill-rule="evenodd" clip-rule="evenodd" d="M25 6.1875C14.6101 6.1875 6.1875 14.6101 6.1875 25C6.1875 35.3899 14.6101 43.8125 25 43.8125C35.3899 43.8125 43.8125 35.3899 43.8125 25C43.8125 14.6101 35.3899 6.1875 25 6.1875ZM3.1875 25C3.1875 12.9533 12.9533 3.1875 25 3.1875C37.0467 3.1875 46.8125 12.9533 46.8125 25C46.8125 37.0467 37.0467 46.8125 25 46.8125C12.9533 46.8125 3.1875 37.0467 3.1875 25Z" fill="url(#paint0_linear_118_444)"/>
<path fill-rule="evenodd" clip-rule="evenodd" d="M23.5 31.25V18.75H26.5V31.25H23.5Z" fill="url(#paint1_linear_118_444)"/>
<path fill-rule="evenodd" clip-rule="evenodd" d="M31.25 26.5H18.75V23.5H31.25V26.5Z" fill="url(#paint2_linear_118_444)"/>
<defs>
<linearGradient id="paint0_linear_118_444" x1="25" y1="3.1875" x2="25" y2="46.8125" gradientUnits="userSpaceOnUse">
<stop stop-color="#5D68F1"/>
<stop offset="1" stop-color="#A38CE6"/>
</linearGradient>
<linearGradient id="paint1_linear_118_444" x1="25" y1="3.1875" x2="25" y2="46.8125" gradientUnits="userSpaceOnUse">
<stop stop-color="#5D68F1"/>
<stop offset="1" stop-color="#A38CE6"/>
</linearGradient>
<linearGradient id="paint2_linear_118_444" x1="25" y1="3.1875" x2="25" y2="46.8125" gradientUnits="userSpaceOnUse">
<stop stop-color="#5D68F1"/>
<stop offset="1" stop-color="#A38CE6"/>
</linearGradient>
</defs>
</svg>
