<svg width="49" height="54" viewBox="0 0 49 54" fill="none" xmlns="http://www.w3.org/2000/svg">
<circle cx="29" cy="34" r="20" fill="#F3F4FF"/>
<path fill-rule="evenodd" clip-rule="evenodd" d="M13.7143 8.57145C10.8074 8.57145 8.57143 10.8413 8.57143 13.5858C8.57143 15.8846 9.93196 18.1917 11.4843 20.039C12.2407 20.9392 13.0005 21.6803 13.5717 22.1962C13.6207 22.2405 13.6683 22.2831 13.7143 22.3239C13.7603 22.2831 13.8079 22.2405 13.8569 22.1962C14.4281 21.6803 15.1878 20.9392 15.9443 20.039C17.4966 18.1917 18.8571 15.8846 18.8571 13.5858C18.8571 10.8413 16.6212 8.57145 13.7143 8.57145ZM13.7143 24.0001C12.9363 25.0238 12.9357 25.0233 12.9357 25.0233L12.933 25.0212L12.9273 25.0168L12.909 25.0027C12.8938 24.991 12.8726 24.9745 12.8459 24.9534C12.7925 24.9113 12.7168 24.8508 12.622 24.7729C12.4324 24.6172 12.1659 24.3916 11.848 24.1044C11.2138 23.5316 10.3664 22.7057 9.51569 21.6933C7.85376 19.7156 6 16.8156 6 13.5858C6 9.38733 9.42122 6 13.7143 6C18.0074 6 21.4286 9.38733 21.4286 13.5858C21.4286 16.8156 19.5748 19.7156 17.9129 21.6933C17.0622 22.7057 16.2148 23.5316 15.5806 24.1044C15.2627 24.3916 14.9961 24.6172 14.8066 24.7729C14.7118 24.8508 14.6361 24.9113 14.5827 24.9534C14.556 24.9745 14.5348 24.991 14.5196 25.0027L14.5013 25.0168L14.4956 25.0212L14.4936 25.0227C14.4936 25.0227 14.4923 25.0238 13.7143 24.0001ZM13.7143 24.0001L14.4923 25.0238C14.0325 25.3732 13.3955 25.3727 12.9357 25.0233L13.7143 24.0001Z" fill="url(#paint0_linear_116_3999)"/>
<path fill-rule="evenodd" clip-rule="evenodd" d="M11.1429 13.5858C11.1429 12.1656 12.2941 11.0143 13.7143 11.0143C15.1344 11.0143 16.2857 12.1656 16.2857 13.5858C16.2857 15.0059 15.1344 16.1572 13.7143 16.1572C12.2941 16.1572 11.1429 15.0059 11.1429 13.5858Z" fill="url(#paint1_linear_116_3999)"/>
<path fill-rule="evenodd" clip-rule="evenodd" d="M34.2857 25.2858C31.3788 25.2858 29.1429 27.5557 29.1429 30.3002C29.1429 32.599 30.5034 34.9061 32.0557 36.7534C32.8122 37.6536 33.5719 38.3947 34.1431 38.9106C34.1921 38.9549 34.2397 38.9975 34.2857 39.0383C34.3317 38.9975 34.3793 38.9549 34.4283 38.9106C34.9995 38.3947 35.7593 37.6536 36.5157 36.7534C38.068 34.9061 39.4286 32.599 39.4286 30.3002C39.4286 27.5557 37.1926 25.2858 34.2857 25.2858ZM34.2857 40.7145C33.5077 41.7382 33.5071 41.7377 33.5071 41.7377L33.5044 41.7356L33.4987 41.7312L33.4804 41.7171C33.4652 41.7054 33.444 41.6889 33.4173 41.6678C33.3639 41.6257 33.2882 41.5652 33.1934 41.4873C33.0039 41.3316 32.7373 41.106 32.4194 40.8188C31.7852 40.246 30.9378 39.4201 30.0871 38.4077C28.4252 36.43 26.5714 33.53 26.5714 30.3002C26.5714 26.1017 29.9926 22.7144 34.2857 22.7144C38.5788 22.7144 42 26.1017 42 30.3002C42 33.53 40.1462 36.43 38.4843 38.4077C37.6336 39.4201 36.7862 40.246 36.152 40.8188C35.8341 41.106 35.5676 41.3316 35.378 41.4873C35.2832 41.5652 35.2075 41.6257 35.1541 41.6678C35.1274 41.6889 35.1062 41.7054 35.091 41.7171L35.0727 41.7312L35.067 41.7356L35.0651 41.7371C35.0651 41.7371 35.0637 41.7382 34.2857 40.7145ZM34.2857 40.7145L35.0637 41.7382C34.6039 42.0876 33.9669 42.0871 33.5071 41.7377L34.2857 40.7145Z" fill="url(#paint2_linear_116_3999)"/>
<path fill-rule="evenodd" clip-rule="evenodd" d="M31.7143 30.3002C31.7143 28.88 32.8656 27.7287 34.2857 27.7287C35.7059 27.7287 36.8571 28.88 36.8571 30.3002C36.8571 31.7203 35.7059 32.8716 34.2857 32.8716C32.8656 32.8716 31.7143 31.7203 31.7143 30.3002Z" fill="url(#paint3_linear_116_3999)"/>
<path fill-rule="evenodd" clip-rule="evenodd" d="M24 11.1429C22.4619 11.1429 21.0696 11.3792 19.8108 11.8369C19.1435 12.0796 18.4058 11.7353 18.1631 11.068C17.9205 10.4007 18.2647 9.66295 18.932 9.42029C20.5019 8.84944 22.1952 8.57145 24 8.57145C31.0156 8.57145 37.0411 13.3365 38.8658 19.7933C39.0589 20.4766 38.6615 21.1871 37.9782 21.3802C37.2949 21.5733 36.5844 21.1759 36.3913 20.4926C34.8732 15.1208 29.8416 11.1429 24 11.1429Z" fill="url(#paint4_linear_116_3999)"/>
<path fill-rule="evenodd" clip-rule="evenodd" d="M10.0218 26.62C10.7051 26.4269 11.4156 26.8243 11.6087 27.5076C13.1268 32.8794 18.1584 36.8573 24 36.8573C26.1097 36.8573 27.9582 36.392 29.695 35.4657C30.3215 35.1316 31.1003 35.3686 31.4345 35.9952C31.7686 36.6217 31.5316 37.4005 30.905 37.7347C28.7847 38.8655 26.5189 39.4288 24 39.4288C16.9844 39.4288 10.9589 34.6638 9.13417 28.2069C8.94106 27.5236 9.33845 26.8131 10.0218 26.62Z" fill="url(#paint5_linear_116_3999)"/>
<defs>
<linearGradient id="paint0_linear_116_3999" x1="24" y1="6" x2="24" y2="42" gradientUnits="userSpaceOnUse">
<stop stop-color="#5D68F1"/>
<stop offset="1" stop-color="#A38CE6"/>
</linearGradient>
<linearGradient id="paint1_linear_116_3999" x1="24" y1="6" x2="24" y2="42" gradientUnits="userSpaceOnUse">
<stop stop-color="#5D68F1"/>
<stop offset="1" stop-color="#A38CE6"/>
</linearGradient>
<linearGradient id="paint2_linear_116_3999" x1="24" y1="6" x2="24" y2="42" gradientUnits="userSpaceOnUse">
<stop stop-color="#5D68F1"/>
<stop offset="1" stop-color="#A38CE6"/>
</linearGradient>
<linearGradient id="paint3_linear_116_3999" x1="24" y1="6" x2="24" y2="42" gradientUnits="userSpaceOnUse">
<stop stop-color="#5D68F1"/>
<stop offset="1" stop-color="#A38CE6"/>
</linearGradient>
<linearGradient id="paint4_linear_116_3999" x1="24" y1="6" x2="24" y2="42" gradientUnits="userSpaceOnUse">
<stop stop-color="#5D68F1"/>
<stop offset="1" stop-color="#A38CE6"/>
</linearGradient>
<linearGradient id="paint5_linear_116_3999" x1="24" y1="6" x2="24" y2="42" gradientUnits="userSpaceOnUse">
<stop stop-color="#5D68F1"/>
<stop offset="1" stop-color="#A38CE6"/>
</linearGradient>
</defs>
</svg>
