<svg width="52" height="48" viewBox="0 0 52 48" fill="none" xmlns="http://www.w3.org/2000/svg">
<circle cx="32" cy="28" r="20" fill="#F3F4FF"/>
<path fill-rule="evenodd" clip-rule="evenodd" d="M6.41502 11.9426C6.70447 11.4722 7.32042 11.3256 7.79078 11.615L22 20.3591L36.2093 11.615C36.6796 11.3256 37.2956 11.4722 37.585 11.9426C37.8745 12.4129 37.7278 13.0289 37.2574 13.3183L22.5241 22.385C22.2027 22.5828 21.7973 22.5828 21.4759 22.385L6.74258 13.3183C6.27223 13.0289 6.12557 12.4129 6.41502 11.9426Z" fill="url(#paint0_linear_68_14800)"/>
<path fill-rule="evenodd" clip-rule="evenodd" d="M14.0667 3.26666C13.3723 3.26666 12.8 3.83895 12.8 4.53333V15.3C12.8 15.8523 12.3523 16.3 11.8 16.3C11.2477 16.3 10.8 15.8523 10.8 15.3V4.53333C10.8 2.73438 12.2677 1.26666 14.0667 1.26666H29.9333C31.7323 1.26666 33.2 2.73438 33.2 4.53333V15.3C33.2 15.8523 32.7523 16.3 32.2 16.3C31.6477 16.3 31.2 15.8523 31.2 15.3V4.53333C31.2 3.83895 30.6277 3.26666 29.9333 3.26666H14.0667Z" fill="url(#paint1_linear_68_14800)"/>
<path fill-rule="evenodd" clip-rule="evenodd" d="M11.8 7.8C9.85897 7.8 8.26668 9.39228 8.26668 11.3333V27.2C8.26668 29.141 9.85897 30.7333 11.8 30.7333H32.2C34.1411 30.7333 35.7333 29.141 35.7333 27.2V11.3333C35.7333 9.39228 34.1411 7.8 32.2 7.8C31.6477 7.8 31.2 7.35228 31.2 6.8C31.2 6.24771 31.6477 5.8 32.2 5.8C35.2456 5.8 37.7333 8.28771 37.7333 11.3333V27.2C37.7333 30.2456 35.2456 32.7333 32.2 32.7333H11.8C8.7544 32.7333 6.26668 30.2456 6.26668 27.2V11.3333C6.26668 8.28771 8.7544 5.8 11.8 5.8C12.3523 5.8 12.8 6.24771 12.8 6.8C12.8 7.35228 12.3523 7.8 11.8 7.8Z" fill="url(#paint2_linear_68_14800)"/>
<defs>
<linearGradient id="paint0_linear_68_14800" x1="22" y1="1.26666" x2="22" y2="32.7333" gradientUnits="userSpaceOnUse">
<stop stop-color="#5D68F1"/>
<stop offset="1" stop-color="#A38CE6"/>
</linearGradient>
<linearGradient id="paint1_linear_68_14800" x1="22" y1="1.26666" x2="22" y2="32.7333" gradientUnits="userSpaceOnUse">
<stop stop-color="#5D68F1"/>
<stop offset="1" stop-color="#A38CE6"/>
</linearGradient>
<linearGradient id="paint2_linear_68_14800" x1="22" y1="1.26666" x2="22" y2="32.7333" gradientUnits="userSpaceOnUse">
<stop stop-color="#5D68F1"/>
<stop offset="1" stop-color="#A38CE6"/>
</linearGradient>
</defs>
</svg>
