<svg width="60" height="58" viewBox="0 0 60 58" fill="none" xmlns="http://www.w3.org/2000/svg">
<circle cx="40" cy="38" r="20" fill="#F3F4FF"/>
<path fill-rule="evenodd" clip-rule="evenodd" d="M3.5 25C3.5 13.1259 13.1259 3.5 25 3.5C36.8741 3.5 46.5 13.1259 46.5 25C46.5 36.8741 36.8741 46.5 25 46.5C13.1259 46.5 3.5 36.8741 3.5 25ZM25 6.5C14.7827 6.5 6.5 14.7827 6.5 25C6.5 35.2173 14.7827 43.5 25 43.5C35.2173 43.5 43.5 35.2173 43.5 25C43.5 14.7827 35.2173 6.5 25 6.5Z" fill="url(#paint0_linear_118_463)"/>
<path fill-rule="evenodd" clip-rule="evenodd" d="M34.3898 18.7036C34.9766 19.2884 34.9781 20.2381 34.3933 20.8249L23.5766 31.6767C23.2946 31.9596 22.9114 32.1183 22.512 32.1177C22.1125 32.1172 21.7298 31.9573 21.4487 31.6735L15.4784 25.6478C14.8953 25.0594 14.8997 24.1096 15.4882 23.5265C16.0767 22.9435 17.0264 22.9478 17.6095 23.5363L22.5174 28.4898L32.2685 18.707C32.8534 18.1203 33.8031 18.1187 34.3898 18.7036Z" fill="url(#paint1_linear_118_463)"/>
<defs>
<linearGradient id="paint0_linear_118_463" x1="25" y1="3.5" x2="25" y2="46.5" gradientUnits="userSpaceOnUse">
<stop stop-color="#5D68F1"/>
<stop offset="1" stop-color="#A38CE6"/>
</linearGradient>
<linearGradient id="paint1_linear_118_463" x1="24.9374" y1="18.2659" x2="24.9374" y2="32.1177" gradientUnits="userSpaceOnUse">
<stop stop-color="#5D68F1"/>
<stop offset="1" stop-color="#A38CE6"/>
</linearGradient>
</defs>
</svg>
