<svg width="60" height="61" viewBox="0 0 60 61" fill="none" xmlns="http://www.w3.org/2000/svg">
<circle cx="40" cy="41" r="20" fill="#F3F4FF"/>
<path fill-rule="evenodd" clip-rule="evenodd" d="M22.4393 4.81434C23.0251 4.22855 23.9749 4.22855 24.5607 4.81434L36.3107 16.5643C36.8964 17.1501 36.8964 18.0999 36.3107 18.6857C35.7249 19.2714 34.7751 19.2714 34.1893 18.6857L25 9.49632V35.25C25 36.0784 24.3284 36.75 23.5 36.75C22.6716 36.75 22 36.0784 22 35.25V9.49632L12.8107 18.6857C12.2249 19.2714 11.2751 19.2714 10.6893 18.6857C10.1036 18.0999 10.1036 17.1501 10.6893 16.5643L22.4393 4.81434ZM5.875 30.8125C6.70343 30.8125 7.375 31.4841 7.375 32.3125V42.5625H39.625V32.3125C39.625 31.4841 40.2966 30.8125 41.125 30.8125C41.9534 30.8125 42.625 31.4841 42.625 32.3125V44.0625C42.625 44.8909 41.9534 45.5625 41.125 45.5625H5.875C5.04657 45.5625 4.375 44.8909 4.375 44.0625V32.3125C4.375 31.4841 5.04657 30.8125 5.875 30.8125Z" fill="url(#paint0_linear_137_7646)"/>
<defs>
<linearGradient id="paint0_linear_137_7646" x1="23.5" y1="4.375" x2="23.5" y2="45.5625" gradientUnits="userSpaceOnUse">
<stop stop-color="#5D68F1"/>
<stop offset="1" stop-color="#A38CE6"/>
</linearGradient>
</defs>
</svg>
