<svg width="39" height="43" viewBox="0 0 39 43" fill="none" xmlns="http://www.w3.org/2000/svg">
<circle cx="21.6667" cy="25.1334" r="17.3333" fill="#F3F4FF"/>
<g clip-path="url(#clip0_771_32831)">
<path d="M14.8178 10.5422C15.8358 9.81276 16.591 8.78922 16.9759 7.61754C17.3607 6.44586 17.3554 5.18588 16.9608 4.01729C16.5662 2.84869 15.8024 1.83115 14.7784 1.10977C13.7543 0.388384 12.5223 0 11.258 0C9.99371 0 8.76168 0.388384 7.73763 1.10977C6.71358 1.83115 5.9498 2.84869 5.5552 4.01729C5.1606 5.18588 5.15534 6.44586 5.54017 7.61754C5.92499 8.78922 6.68025 9.81276 7.69824 10.5422C5.45968 11.2736 3.51309 12.6693 2.13225 14.533C0.751403 16.3967 0.00577939 18.6347 0.000244141 20.9321C0.000244141 22.1096 0.663251 23.7504 3.827 24.8846C6.22178 25.6605 8.73424 26.0367 11.258 25.9972C16.8735 25.9972 22.5336 24.4344 22.5336 20.9451C22.5296 18.6433 21.7827 16.4009 20.3982 14.5343C19.0138 12.6678 17.0618 11.2714 14.8178 10.5422ZM7.03524 5.86244C7.037 5.05026 7.28615 4.2568 7.75122 3.58233C8.2163 2.90786 8.87642 2.38263 9.64818 2.07301C10.4199 1.76339 11.2687 1.68326 12.0873 1.84276C12.9058 2.00226 13.6574 2.39422 14.2471 2.96912C14.8368 3.54403 15.2381 4.27608 15.4003 5.07278C15.5625 5.86948 15.4784 6.69509 15.1585 7.44528C14.8386 8.19548 14.2974 8.8366 13.6031 9.28765C12.9089 9.7387 12.0928 9.97943 11.258 9.97943C10.7029 9.97886 10.1533 9.87192 9.64066 9.66472C9.12801 9.45751 8.66234 9.1541 8.27022 8.7718C7.87809 8.3895 7.56721 7.93581 7.35531 7.43662C7.14341 6.93743 7.03465 6.40252 7.03524 5.86244ZM11.258 24.2655C5.91836 24.2655 1.76233 22.8066 1.76233 20.9451C1.76233 18.4944 2.763 16.144 4.5442 14.4111C6.32541 12.6781 8.74123 11.7046 11.2602 11.7046C13.7792 11.7046 16.1951 12.6781 17.9763 14.4111C19.7575 16.144 20.7581 18.4944 20.7581 20.9451C20.7537 22.8066 16.5977 24.2655 11.258 24.2655Z" fill="url(#paint0_linear_771_32831)"/>
</g>
<defs>
<linearGradient id="paint0_linear_771_32831" x1="11.2669" y1="0" x2="11.2669" y2="26" gradientUnits="userSpaceOnUse">
<stop stop-color="#5D68F1"/>
<stop offset="1" stop-color="#A38CE6"/>
</linearGradient>
<clipPath id="clip0_771_32831">
<rect width="22.5335" height="26" fill="white"/>
</clipPath>
</defs>
</svg>
