<svg width="39" height="43" viewBox="0 0 39 43" fill="none" xmlns="http://www.w3.org/2000/svg">
<circle cx="21.6667" cy="25.1334" r="17.3333" fill="#F3F4FF"/>
<path fill-rule="evenodd" clip-rule="evenodd" d="M16.124 3.51413C16.3546 3.37224 16.6454 3.37224 16.876 3.51413L30.2822 11.7641C30.4944 11.8947 30.6236 12.126 30.6236 12.3751C30.6236 12.6242 30.4944 12.8555 30.2822 12.9861L16.876 21.2361C16.6454 21.378 16.3546 21.378 16.124 21.2361L2.71775 12.9861C2.50558 12.8555 2.37634 12.6242 2.37634 12.3751C2.37634 12.126 2.50558 11.8947 2.71775 11.7641L16.124 3.51413ZM4.46255 12.3751L16.5 19.7828L28.5374 12.3751L16.5 4.96745L4.46255 12.3751Z" fill="url(#paint0_linear_771_32847)"/>
<path fill-rule="evenodd" clip-rule="evenodd" d="M7.11037 18.1906C7.31572 18.5295 7.20752 18.9706 6.86868 19.176L4.47014 20.6296L16.5 28.0326L28.5451 20.6202L26.226 19.1708C25.89 18.9608 25.7879 18.5182 25.9979 18.1823C26.2079 17.8463 26.6505 17.7441 26.9864 17.9541L30.2865 20.0166C30.497 20.1482 30.6245 20.3792 30.6236 20.6275C30.6228 20.8757 30.4936 21.1058 30.2822 21.2359L16.876 29.4859C16.6454 29.6278 16.3546 29.6278 16.124 29.4859L2.71775 21.2359C2.50485 21.1049 2.3755 20.8725 2.37635 20.6225C2.3772 20.3725 2.50812 20.141 2.72191 20.0115L6.12503 17.949C6.46387 17.7436 6.90502 17.8518 7.11037 18.1906Z" fill="url(#paint1_linear_771_32847)"/>
<defs>
<linearGradient id="paint0_linear_771_32847" x1="16.5" y1="3.40771" x2="16.5" y2="21.3425" gradientUnits="userSpaceOnUse">
<stop stop-color="#5D68F1"/>
<stop offset="1" stop-color="#A38CE6"/>
</linearGradient>
<linearGradient id="paint1_linear_771_32847" x1="16.5" y1="17.845" x2="16.5" y2="29.5924" gradientUnits="userSpaceOnUse">
<stop stop-color="#5D68F1"/>
<stop offset="1" stop-color="#A38CE6"/>
</linearGradient>
</defs>
</svg>
