<svg width="52" height="42" viewBox="0 0 52 42" fill="none" xmlns="http://www.w3.org/2000/svg">
<circle cx="32" cy="22" r="20" fill="#F3F4FF"/>
<path d="M33.664 5.6592L5.24522 17.4872C5.24522 17.4872 3.90162 17.9756 4.00562 18.8764C4.11242 19.7788 5.20882 20.1916 5.20882 20.1916L12.3596 22.7444C12.3596 22.7444 14.518 30.2532 14.9428 31.682C15.3676 33.1068 15.7084 33.1404 15.7084 33.1404C16.104 33.3228 16.4636 33.0324 16.4636 33.0324L21.0836 28.5648L28.284 34.4216C30.2316 35.3228 30.9404 33.4452 30.9404 33.4452L36 6.374C36 4.5708 33.664 5.6592 33.664 5.6592ZM28.6328 31.268L20.9296 25.004L18.5392 27.3148L19.0648 22.3984L29.3328 12.6668L15.3364 20.9764L9.12802 18.7604L32.8148 8.9012L28.6328 31.268Z" fill="url(#paint0_linear_64_10984)"/>
<defs>
<linearGradient id="paint0_linear_64_10984" x1="19.9999" y1="5.33362" x2="19.9999" y2="34.6663" gradientUnits="userSpaceOnUse">
<stop stop-color="#5D68F1"/>
<stop offset="1" stop-color="#A38CE6"/>
</linearGradient>
</defs>
</svg>
