<svg width="61" height="58" viewBox="0 0 61 58" fill="none" xmlns="http://www.w3.org/2000/svg">
<circle cx="41" cy="38" r="20" fill="#F3F4FF"/>
<path fill-rule="evenodd" clip-rule="evenodd" d="M4.86133 7.81247C4.86133 7.04541 5.48315 6.42358 6.25022 6.42358H43.7502C44.5173 6.42358 45.1391 7.04541 45.1391 7.81247V34.375C45.1391 35.142 44.5173 35.7639 43.7502 35.7639H31.5627C22.5163 35.7639 13.9344 38.9282 7.15984 44.7995C6.74892 45.1557 6.16796 45.2392 5.67331 45.0134C5.17866 44.7875 4.86133 44.2937 4.86133 43.75V34.3764L6.25022 34.375L7.63911 34.3751V40.8523C14.524 35.7239 22.8528 32.9861 31.5627 32.9861H42.3613V9.20136H7.63911V34.3751L6.25022 34.375H4.86133V7.81247Z" fill="url(#paint0_linear_118_484)"/>
<path fill-rule="evenodd" clip-rule="evenodd" d="M15.7988 18.75C15.7988 17.9829 16.4207 17.3611 17.1877 17.3611H26.5627C27.3298 17.3611 27.9516 17.9829 27.9516 18.75C27.9516 19.5171 27.3298 20.1389 26.5627 20.1389H17.1877C16.4207 20.1389 15.7988 19.5171 15.7988 18.75Z" fill="url(#paint1_linear_118_484)"/>
<path fill-rule="evenodd" clip-rule="evenodd" d="M15.7988 25C15.7988 24.2329 16.4207 23.6111 17.1877 23.6111H21.8752C22.6423 23.6111 23.2641 24.2329 23.2641 25C23.2641 25.7671 22.6423 26.3889 21.8752 26.3889H17.1877C16.4207 26.3889 15.7988 25.7671 15.7988 25Z" fill="url(#paint2_linear_118_484)"/>
<defs>
<linearGradient id="paint0_linear_118_484" x1="25.0002" y1="6.42358" x2="25.0002" y2="45.1389" gradientUnits="userSpaceOnUse">
<stop stop-color="#5D68F1"/>
<stop offset="1" stop-color="#A38CE6"/>
</linearGradient>
<linearGradient id="paint1_linear_118_484" x1="21.8752" y1="17.3611" x2="21.8752" y2="20.1389" gradientUnits="userSpaceOnUse">
<stop stop-color="#5D68F1"/>
<stop offset="1" stop-color="#A38CE6"/>
</linearGradient>
<linearGradient id="paint2_linear_118_484" x1="19.5315" y1="23.6111" x2="19.5315" y2="26.3889" gradientUnits="userSpaceOnUse">
<stop stop-color="#5D68F1"/>
<stop offset="1" stop-color="#A38CE6"/>
</linearGradient>
</defs>
</svg>
