<svg width="55" height="56" viewBox="0 0 55 56" fill="none" xmlns="http://www.w3.org/2000/svg">
<circle cx="35" cy="36" r="20" fill="#F3F4FF"/>
<path d="M5.62705 35.3453C5.26132 35.3453 4.96528 35.6414 4.96528 36.0071C4.96528 36.3728 5.26132 36.6689 5.62705 36.6689H39.6739C40.0396 36.6689 40.3356 36.3728 40.3356 36.0071C40.3356 35.6414 40.0396 35.3453 39.6739 35.3453H35.9807V15.8122H39.6739C40.0396 15.8122 40.3356 15.5161 40.3356 15.1504C40.3356 14.7847 40.0396 14.4887 39.6739 14.4887H9.41863C9.35942 14.4713 9.29839 14.4591 9.23372 14.4591C9.16905 14.4591 9.10756 14.4713 9.04881 14.4887H5.62705C5.26132 14.4887 4.96528 14.7847 4.96528 15.1504C4.96528 15.5161 5.26132 15.8122 5.62705 15.8122H8.57469V35.3453H5.62705ZM18.8577 35.3453V15.8122H26.1704V35.3453H18.8577ZM34.6571 35.3453H27.4939V15.8122H34.6571V35.3453ZM9.89275 15.8122H17.5342V35.3453H9.89275V15.8122Z" fill="url(#paint0_linear_137_7610)"/>
<path fill-rule="evenodd" clip-rule="evenodd" d="M8.95364 13.7033C9.03504 13.6863 9.12945 13.6737 9.23372 13.6737C9.33838 13.6737 9.43273 13.6864 9.51361 13.7033H39.6739C40.4733 13.7033 41.121 14.3509 41.121 15.1504C41.121 15.9499 40.4734 16.5975 39.6739 16.5975H36.766V34.56H39.6739C40.4733 34.56 41.121 35.2076 41.121 36.0071C41.121 36.8066 40.4734 37.4542 39.6739 37.4542H5.62705C4.82758 37.4542 4.17992 36.8066 4.17992 36.0071C4.17992 35.2076 4.82758 34.56 5.62705 34.56H7.78932V16.5975H5.62705C4.82758 16.5975 4.17992 15.9499 4.17992 15.1504C4.17992 14.3509 4.82758 13.7033 5.62705 13.7033H8.95364ZM10.6781 16.5975V34.56H16.7488V16.5975H10.6781ZM19.6431 16.5975V34.56H25.385V16.5975H19.6431ZM28.2793 16.5975V34.56H33.8718V16.5975H28.2793Z" fill="url(#paint1_linear_137_7610)"/>
<path d="M43.6868 40.7348H1.61412C1.2484 40.7348 0.952358 41.0308 0.952358 41.3965C0.952358 41.7622 1.2484 42.0583 1.61412 42.0583H43.6868C44.0525 42.0583 44.3486 41.7622 44.3486 41.3965C44.3486 41.0308 44.0525 40.7348 43.6868 40.7348Z" fill="url(#paint2_linear_137_7610)"/>
<path fill-rule="evenodd" clip-rule="evenodd" d="M0.166992 41.3965C0.166992 40.597 0.81472 39.9494 1.61412 39.9494H43.6868C44.4862 39.9494 45.1339 40.597 45.1339 41.3965C45.1339 42.1959 44.4863 42.8437 43.6868 42.8437H1.61412C0.814586 42.8437 0.166992 42.1959 0.166992 41.3965Z" fill="url(#paint3_linear_137_7610)"/>
<path d="M44.2579 14.4831L23.2214 2.46299C23.0187 2.34731 22.7691 2.34685 22.5664 2.46208L1.39186 14.4822C1.07396 14.6625 0.962829 15.0665 1.14319 15.3844C1.26524 15.5994 1.48887 15.7196 1.71932 15.7196C1.83 15.7196 1.94204 15.6919 2.04542 15.6336L22.8921 3.79927L43.6016 15.6322C43.9177 15.8125 44.3222 15.7037 44.5043 15.3858C44.6856 15.0688 44.5754 14.6648 44.2579 14.4831Z" fill="url(#paint4_linear_137_7610)"/>
<path fill-rule="evenodd" clip-rule="evenodd" d="M22.1783 1.77934C22.6227 1.52665 23.1678 1.52814 23.6107 1.78091L44.6476 13.8012C45.3404 14.1978 45.5831 15.0813 45.1861 15.7757C44.7881 16.4701 43.904 16.7089 43.2124 16.3143L22.8908 4.70307L2.43314 16.3165L2.43117 16.3177C2.20774 16.4436 1.96247 16.505 1.71932 16.505C1.2179 16.505 0.727478 16.2429 0.460231 15.7722C0.06628 15.0778 0.308401 14.194 1.00415 13.7992L22.1783 1.77934Z" fill="url(#paint5_linear_137_7610)"/>
<defs>
<linearGradient id="paint0_linear_137_7610" x1="22.772" y1="1.59058" x2="22.772" y2="42.8437" gradientUnits="userSpaceOnUse">
<stop stop-color="#5D68F1"/>
<stop offset="1" stop-color="#A38CE6"/>
</linearGradient>
<linearGradient id="paint1_linear_137_7610" x1="22.772" y1="1.59058" x2="22.772" y2="42.8437" gradientUnits="userSpaceOnUse">
<stop stop-color="#5D68F1"/>
<stop offset="1" stop-color="#A38CE6"/>
</linearGradient>
<linearGradient id="paint2_linear_137_7610" x1="22.772" y1="1.59058" x2="22.772" y2="42.8437" gradientUnits="userSpaceOnUse">
<stop stop-color="#5D68F1"/>
<stop offset="1" stop-color="#A38CE6"/>
</linearGradient>
<linearGradient id="paint3_linear_137_7610" x1="22.772" y1="1.59058" x2="22.772" y2="42.8437" gradientUnits="userSpaceOnUse">
<stop stop-color="#5D68F1"/>
<stop offset="1" stop-color="#A38CE6"/>
</linearGradient>
<linearGradient id="paint4_linear_137_7610" x1="22.772" y1="1.59058" x2="22.772" y2="42.8437" gradientUnits="userSpaceOnUse">
<stop stop-color="#5D68F1"/>
<stop offset="1" stop-color="#A38CE6"/>
</linearGradient>
<linearGradient id="paint5_linear_137_7610" x1="22.772" y1="1.59058" x2="22.772" y2="42.8437" gradientUnits="userSpaceOnUse">
<stop stop-color="#5D68F1"/>
<stop offset="1" stop-color="#A38CE6"/>
</linearGradient>
</defs>
</svg>
