<svg width="50" height="49" viewBox="0 0 50 49" fill="none" xmlns="http://www.w3.org/2000/svg">
<circle cx="30" cy="29" r="20" fill="#F3F4FF"/>
<path d="M9.37195 33C9.04216 32.9981 8.71641 32.9265 8.41547 32.7897C8.11462 32.6528 7.84521 32.4538 7.62454 32.2055C7.40379 31.957 7.2367 31.6646 7.13395 31.347C7.03111 31.0294 6.99485 30.6934 7.02749 30.3608L7.8173 22.4616L2.59868 16.5398C2.32415 16.2276 2.1351 15.8478 2.05035 15.4384C1.96561 15.0291 1.98813 14.6043 2.11567 14.2066C2.24321 13.8087 2.47131 13.4517 2.77729 13.1711C3.08326 12.8904 3.45643 12.6959 3.85963 12.6068L11.5157 10.9262L15.3459 4.25278C15.565 3.8716 15.879 3.55532 16.2563 3.3355C16.6337 3.11568 17.0614 3 17.4966 3C17.9318 3 18.3594 3.11568 18.7369 3.3355C19.1142 3.55532 19.4281 3.8716 19.6473 4.25278L23.48 10.9236L31.137 12.6042C31.5409 12.6927 31.9147 12.8871 32.2213 13.1678C32.5278 13.4486 32.7564 13.8059 32.8842 14.2042C33.012 14.6025 33.0344 15.0277 32.9494 15.4375C32.8644 15.8474 32.6749 16.2275 32.3997 16.5398L27.1802 22.4616L27.97 30.3608C28.0117 30.7774 27.9448 31.1979 27.776 31.5801C27.6071 31.9623 27.3424 32.293 27.0081 32.5391C26.6738 32.7851 26.2817 32.938 25.8708 32.9825C25.46 33.0269 25.0449 32.9613 24.6669 32.7922L17.4992 29.5908L10.3306 32.7922C10.0289 32.9289 9.70234 32.9997 9.37195 33ZM17.4992 4.74953C17.3651 4.74808 17.233 4.78301 17.1167 4.85071C17.0004 4.9184 16.9041 5.0164 16.8377 5.13454L12.8128 12.1354C12.7527 12.2401 12.6717 12.3309 12.575 12.4022C12.4783 12.4734 12.3681 12.5235 12.2513 12.5492L4.22396 14.3119C4.11439 14.3353 4.01283 14.3876 3.92947 14.4634C3.8461 14.5393 3.78386 14.6359 3.74897 14.7438C3.71408 14.8517 3.70776 14.967 3.73066 15.078C3.75356 15.1892 3.80487 15.2923 3.87944 15.377L9.35214 21.5851C9.43164 21.6754 9.49184 21.7815 9.52871 21.8966C9.56565 22.0117 9.57857 22.1334 9.5666 22.2538L8.73975 30.5372C8.72856 30.6499 8.74673 30.7636 8.79247 30.867C8.8382 30.9704 8.90986 31.0598 9.00038 31.1263C9.09082 31.1928 9.19693 31.2342 9.30813 31.2462C9.41923 31.2581 9.53155 31.2403 9.63378 31.1946L17.1547 27.8386C17.264 27.7895 17.3822 27.7641 17.5018 27.7641C17.6213 27.7641 17.7396 27.7895 17.8489 27.8386L25.3646 31.1946C25.4668 31.2403 25.5791 31.2581 25.6902 31.2462C25.8014 31.2342 25.9075 31.1928 25.998 31.1263C26.0885 31.0598 26.1602 30.9704 26.2059 30.867C26.2516 30.7636 26.2698 30.6499 26.2586 30.5372L25.4317 22.2538C25.4198 22.1334 25.4327 22.0117 25.4696 21.8966C25.5065 21.7815 25.5667 21.6754 25.6462 21.5851L31.1189 15.3761C31.1932 15.2914 31.2444 15.1884 31.2671 15.0773C31.29 14.9664 31.2836 14.8512 31.2487 14.7435C31.2138 14.6358 31.1516 14.5392 31.0684 14.4635C30.9852 14.3877 30.8838 14.3354 30.7744 14.3119L22.7462 12.5492C22.6294 12.5235 22.5192 12.4734 22.4225 12.4022C22.3258 12.3309 22.2448 12.2401 22.1846 12.1354L18.1607 5.13105C18.0938 5.01356 17.9974 4.91626 17.8811 4.8492C17.7648 4.78213 17.6329 4.74773 17.4992 4.74953Z" fill="url(#paint0_linear_79_16463)"/>
<defs>
<linearGradient id="paint0_linear_79_16463" x1="17.5" y1="3" x2="17.5" y2="33" gradientUnits="userSpaceOnUse">
<stop stop-color="#5D68F1"/>
<stop offset="1" stop-color="#A38CE6"/>
</linearGradient>
</defs>
</svg>
