<svg width="55" height="54" viewBox="0 0 55 54" fill="none" xmlns="http://www.w3.org/2000/svg">
<circle cx="35" cy="34" r="20" fill="#F3F4FF"/>
<path fill-rule="evenodd" clip-rule="evenodd" d="M16.1538 8C16.8548 8 17.423 8.54721 17.423 9.22222V11.6667H27.5768V9.22222C27.5768 8.54721 28.1451 8 28.8461 8C29.547 8 30.1153 8.54721 30.1153 9.22222V11.6667H37.7306C38.4316 11.6667 38.9999 12.2139 38.9999 12.8889V28.7611C39 28.7729 39 28.7848 38.9999 28.7967V28.9C38.9999 32.8888 37.3446 36.7447 34.4397 39.542L33.2974 40.642C33.0593 40.8712 32.7365 41 32.3999 41H7.26923C6.56825 41 6 40.4528 6 39.7778V12.8889C6 12.2139 6.56825 11.6667 7.26923 11.6667H14.8846V9.22222C14.8846 8.54721 15.4528 8 16.1538 8ZM8.53845 14.1111V19H36.4614V14.1111H8.53845ZM36.4614 21.4444H8.53845V38.5556H30.1153V33.6667C30.1153 33.0503 30.5919 32.5303 31.2271 32.4539C32.8999 32.2525 34.4632 31.3442 35.3938 29.9502L35.4054 29.9331L36.4614 28.4077V21.4444ZM35.6656 33.2319C34.7695 33.9034 33.7402 34.3921 32.6537 34.6707V37.8048C33.995 36.5106 35.0191 34.9419 35.6656 33.2319Z" fill="url(#paint0_linear_116_3998)"/>
<defs>
<linearGradient id="paint0_linear_116_3998" x1="22.5" y1="8" x2="22.5" y2="41" gradientUnits="userSpaceOnUse">
<stop stop-color="#5D68F1"/>
<stop offset="1" stop-color="#A38CE6"/>
</linearGradient>
</defs>
</svg>
