<svg width="231" height="231" viewBox="0 0 231 231" fill="none" xmlns="http://www.w3.org/2000/svg">
<path fill-rule="evenodd" clip-rule="evenodd" d="M151.756 33.988C134.188 26.1602 114.56 24.221 95.8003 28.4596C77.0402 32.6982 60.1529 42.8875 47.6568 57.5079C35.1607 72.1282 27.7255 90.3963 26.4601 109.588C25.1946 128.779 30.1667 147.865 40.6348 164C51.1029 180.134 66.5061 192.453 84.5472 199.118C102.588 205.783 122.301 206.438 140.744 200.985C159.188 195.532 175.375 184.263 186.891 168.858C198.406 153.454 204.634 134.74 204.645 115.507V106.159C204.645 99.2551 210.242 93.6587 217.145 93.6587C224.049 93.6587 229.645 99.2551 229.645 106.159V115.521C229.631 140.145 221.658 164.105 206.914 183.827C192.17 203.549 171.446 217.977 147.833 224.959C124.219 231.941 98.9814 231.102 75.8833 222.569C52.7853 214.035 33.0645 198.264 19.6622 177.607C6.25983 156.949 -0.105931 132.513 1.51425 107.943C3.13443 83.372 12.6538 59.9833 28.6525 41.2648C44.6512 22.5463 66.2722 9.50094 90.2908 4.07426C114.309 -1.35242 139.439 1.13036 161.931 11.1523C168.237 13.9621 171.071 21.3518 168.261 27.6577C165.452 33.9636 158.062 36.7978 151.756 33.988Z" fill="#5E67FF"/>
<path fill-rule="evenodd" clip-rule="evenodd" d="M225.974 25.5577C230.861 30.4336 230.87 38.3482 225.994 43.2353L124.537 144.925C122.193 147.274 119.01 148.595 115.691 148.596C112.372 148.597 109.189 147.277 106.844 144.929L76.4067 114.453C71.5283 109.568 71.5334 101.653 76.4181 96.775C81.3028 91.8966 89.2173 91.9017 94.0957 96.7864L115.684 118.402L208.296 25.5779C213.172 20.6907 221.087 20.6817 225.974 25.5577Z" fill="#5E67FF"/>
</svg>
