<svg width="36" height="36" viewBox="0 0 36 36" fill="none" xmlns="http://www.w3.org/2000/svg">
<path fill-rule="evenodd" clip-rule="evenodd" d="M5.69488 17.6798C5.64518 17.7295 5.625 17.7865 5.625 17.835V22.785C5.625 23.6486 6.33631 24.36 7.19998 24.36H9.14994C9.27864 24.36 9.37503 24.2636 9.37503 24.135V17.835C9.37503 17.7132 9.27054 17.61 9.14994 17.61H5.85004C5.80151 17.61 5.74457 17.6302 5.69488 17.6798ZM3.375 17.835C3.375 16.4786 4.49376 15.36 5.85004 15.36H9.14994C10.5294 15.36 11.625 16.4867 11.625 17.835V24.135C11.625 25.5063 10.5213 26.61 9.14994 26.61H7.19998C5.09365 26.61 3.375 24.8913 3.375 22.785V17.835Z" fill="url(#paint0_linear_998_39149)"/>
<path fill-rule="evenodd" clip-rule="evenodd" d="M18 5.60999C12.8164 5.60999 8.625 9.80134 8.625 14.985V16.4999C8.625 17.1213 8.12132 17.6249 7.5 17.6249C6.87868 17.6249 6.375 17.1213 6.375 16.4999V14.985C6.375 8.55866 11.5736 3.35999 18 3.35999C24.4264 3.35999 29.625 8.55866 29.625 14.985V16.485C29.625 17.1063 29.1213 17.61 28.5 17.61C27.8787 17.61 27.375 17.1063 27.375 16.485V14.985C27.375 9.80134 23.1836 5.60999 18 5.60999Z" fill="url(#paint1_linear_998_39149)"/>
<path fill-rule="evenodd" clip-rule="evenodd" d="M28.5716 24.3821C29.1808 24.5044 29.5753 25.0974 29.453 25.7065C28.6595 29.6568 25.1761 32.625 21 32.625H19.5C18.8787 32.625 18.375 32.1213 18.375 31.5C18.375 30.8786 18.8787 30.375 19.5 30.375H21C24.0838 30.375 26.6606 28.1831 27.247 25.2634C27.3694 24.6543 27.9625 24.2597 28.5716 24.3821Z" fill="url(#paint2_linear_998_39149)"/>
<path fill-rule="evenodd" clip-rule="evenodd" d="M26.6949 17.6798C26.6452 17.7295 26.625 17.7865 26.625 17.835V24.135C26.625 24.2568 26.7295 24.36 26.8501 24.36H28.725C29.6337 24.36 30.375 23.6187 30.375 22.7099V17.835C30.375 17.7132 30.2706 17.61 30.15 17.61H26.8501C26.8015 17.61 26.7446 17.6302 26.6949 17.6798ZM24.375 17.835C24.375 16.4786 25.4938 15.36 26.8501 15.36H30.15C31.5293 15.36 32.625 16.4867 32.625 17.835V22.7099C32.625 24.8613 30.8764 26.61 28.725 26.61H26.8501C25.4706 26.61 24.375 25.4832 24.375 24.135V17.835Z" fill="url(#paint3_linear_998_39149)"/>
<defs>
<linearGradient id="paint0_linear_998_39149" x1="18" y1="3.35999" x2="18" y2="32.625" gradientUnits="userSpaceOnUse">
<stop stop-color="#5D68F1"/>
<stop offset="1" stop-color="#A38CE6"/>
</linearGradient>
<linearGradient id="paint1_linear_998_39149" x1="18" y1="3.35999" x2="18" y2="32.625" gradientUnits="userSpaceOnUse">
<stop stop-color="#5D68F1"/>
<stop offset="1" stop-color="#A38CE6"/>
</linearGradient>
<linearGradient id="paint2_linear_998_39149" x1="18" y1="3.35999" x2="18" y2="32.625" gradientUnits="userSpaceOnUse">
<stop stop-color="#5D68F1"/>
<stop offset="1" stop-color="#A38CE6"/>
</linearGradient>
<linearGradient id="paint3_linear_998_39149" x1="18" y1="3.35999" x2="18" y2="32.625" gradientUnits="userSpaceOnUse">
<stop stop-color="#5D68F1"/>
<stop offset="1" stop-color="#A38CE6"/>
</linearGradient>
</defs>
</svg>
