<svg width="20" height="20" viewBox="0 0 20 20" fill="none" xmlns="http://www.w3.org/2000/svg">
<path fill-rule="evenodd" clip-rule="evenodd" d="M7.11862 18.2557C7.04986 18.3055 6.96612 18.3328 6.87994 18.3333C6.79373 18.3338 6.70967 18.3076 6.64024 18.2586C6.5708 18.2096 6.51971 18.1403 6.49458 18.0611C6.46945 17.9819 6.47163 17.8971 6.50079 17.8192L9.03294 11.4231L3.5909 9.45906C3.5237 9.4346 3.46471 9.39307 3.42018 9.33894C3.37565 9.28482 3.34725 9.22009 3.338 9.1517C3.32734 9.08414 3.33535 9.01511 3.36118 8.95146C3.38701 8.88783 3.42981 8.8318 3.48526 8.78902L12.8808 1.74435C12.9496 1.69445 13.0333 1.66721 13.1195 1.66667C13.2057 1.66614 13.2897 1.69235 13.3592 1.7414C13.4286 1.79045 13.4797 1.85972 13.5048 1.93889C13.53 2.01807 13.5278 2.10291 13.4986 2.1808L10.9665 8.57694L16.4085 10.541C16.4757 10.5654 16.5347 10.6069 16.5792 10.661C16.6238 10.7152 16.6522 10.7799 16.6614 10.8483C16.6731 10.9159 16.6656 10.9852 16.6396 11.0491C16.6137 11.1129 16.5704 11.1688 16.5142 11.211L7.11862 18.2557ZM17.8146 10.671C17.8583 10.9472 17.8256 11.2296 17.7205 11.4883C17.613 11.7528 17.4359 11.978 17.2143 12.1443L7.81114 19.1946L7.80371 19.2C7.5348 19.3951 7.21326 19.498 6.88701 19.5C6.56093 19.5019 6.23845 19.4031 5.96733 19.2117C5.6954 19.0195 5.48659 18.7417 5.38258 18.414C5.27832 18.0855 5.28754 17.7324 5.40821 17.4101L5.41203 17.3999L7.5054 12.1121L3.19174 10.5553C2.93253 10.4609 2.69893 10.2986 2.51922 10.0802C2.34176 9.86444 2.22417 9.60257 2.18365 9.32087C2.14271 9.04667 2.17662 8.76783 2.28015 8.51273C2.38527 8.25383 2.55702 8.03167 2.77252 7.86538L2.77892 7.86044L12.1882 0.805474L12.1955 0.800137C12.4647 0.604826 12.7863 0.502042 13.1123 0.50003C13.4384 0.498019 13.761 0.596878 14.0323 0.788506C14.3042 0.98059 14.5128 1.25818 14.6168 1.58594C14.7211 1.91445 14.7119 2.26764 14.5912 2.58989L14.5874 2.6001L12.494 7.88791L16.8072 9.44454C17.0668 9.53893 17.3005 9.70141 17.4802 9.91984C17.656 10.1335 17.773 10.3924 17.8146 10.671Z" fill="#5E67FF"/>
</svg>
