<svg width="14" height="13" viewBox="0 0 14 13" fill="none" xmlns="http://www.w3.org/2000/svg">
<path d="M12.5508 3.80615C12.5508 3.94287 12.5508 4.05225 12.5508 4.18896C12.5508 7.98975 9.67969 12.3374 4.40234 12.3374C2.76172 12.3374 1.25781 11.8726 0 11.0522C0.21875 11.0796 0.4375 11.1069 0.683594 11.1069C2.02344 11.1069 3.25391 10.6421 4.23828 9.87646C2.98047 9.84912 1.91406 9.02881 1.55859 7.88037C1.75 7.90771 1.91406 7.93506 2.10547 7.93506C2.35156 7.93506 2.625 7.88037 2.84375 7.82568C1.53125 7.55225 0.546875 6.40381 0.546875 5.00928V4.98193C0.929688 5.20068 1.39453 5.31006 1.85938 5.3374C1.06641 4.81787 0.574219 3.94287 0.574219 2.9585C0.574219 2.41162 0.710938 1.91943 0.957031 1.50928C2.37891 3.23193 4.51172 4.38037 6.89062 4.51709C6.83594 4.29834 6.80859 4.07959 6.80859 3.86084C6.80859 2.2749 8.09375 0.989746 9.67969 0.989746C10.5 0.989746 11.2383 1.31787 11.7852 1.89209C12.4141 1.75537 13.043 1.50928 13.5898 1.18115C13.3711 1.86475 12.9336 2.41162 12.332 2.76709C12.9062 2.7124 13.4805 2.54834 13.9727 2.32959C13.5898 2.90381 13.0977 3.396 12.5508 3.80615Z" fill="white"/>
</svg>
