<svg width="13" height="13" viewBox="0 0 13 13" fill="none" xmlns="http://www.w3.org/2000/svg">
<path d="M6.125 3.50537C5.5599 3.50537 5.03125 3.6512 4.53906 3.94287C4.0651 4.21631 3.68229 4.59912 3.39062 5.09131C3.11719 5.56527 2.98047 6.0848 2.98047 6.6499C2.98047 7.21501 3.11719 7.74365 3.39062 8.23584C3.68229 8.7098 4.0651 9.09261 4.53906 9.38428C5.03125 9.65771 5.5599 9.79443 6.125 9.79443C6.6901 9.79443 7.20964 9.65771 7.68359 9.38428C8.17578 9.09261 8.55859 8.7098 8.83203 8.23584C9.1237 7.74365 9.26953 7.21501 9.26953 6.6499C9.26953 6.0848 9.1237 5.56527 8.83203 5.09131C8.55859 4.59912 8.17578 4.21631 7.68359 3.94287C7.20964 3.6512 6.6901 3.50537 6.125 3.50537ZM6.125 8.70068C5.5599 8.70068 5.07682 8.50016 4.67578 8.09912C4.27474 7.69808 4.07422 7.21501 4.07422 6.6499C4.07422 6.0848 4.27474 5.60173 4.67578 5.20068C5.07682 4.79964 5.5599 4.59912 6.125 4.59912C6.6901 4.59912 7.17318 4.79964 7.57422 5.20068C7.97526 5.60173 8.17578 6.0848 8.17578 6.6499C8.17578 7.21501 7.97526 7.69808 7.57422 8.09912C7.17318 8.50016 6.6901 8.70068 6.125 8.70068ZM10.1445 3.36865C10.1263 3.56917 10.0443 3.74235 9.89844 3.88818C9.77083 4.03402 9.60677 4.10693 9.40625 4.10693C9.20573 4.10693 9.03255 4.03402 8.88672 3.88818C8.74089 3.74235 8.66797 3.56917 8.66797 3.36865C8.66797 3.16813 8.74089 2.99495 8.88672 2.84912C9.03255 2.70329 9.20573 2.63037 9.40625 2.63037C9.60677 2.63037 9.77995 2.70329 9.92578 2.84912C10.0716 2.99495 10.1445 3.16813 10.1445 3.36865ZM12.2227 4.10693C12.1862 3.57829 12.1042 3.12256 11.9766 2.73975C11.8125 2.28402 11.5573 1.89209 11.2109 1.56396C10.8828 1.21761 10.4909 0.962402 10.0352 0.79834C9.65234 0.670736 9.19661 0.597819 8.66797 0.57959C8.15755 0.543132 7.3099 0.524902 6.125 0.524902C4.9401 0.524902 4.08333 0.543132 3.55469 0.57959C3.04427 0.597819 2.59766 0.670736 2.21484 0.79834C1.75911 0.962402 1.35807 1.21761 1.01172 1.56396C0.683594 1.89209 0.4375 2.28402 0.273438 2.73975C0.145833 3.12256 0.0638021 3.57829 0.0273438 4.10693C0.00911458 4.61735 0 5.46501 0 6.6499C0 7.8348 0.00911458 8.69157 0.0273438 9.22021C0.0638021 9.73063 0.145833 10.1772 0.273438 10.5601C0.4375 11.0158 0.683594 11.4168 1.01172 11.7632C1.35807 12.0913 1.75911 12.3283 2.21484 12.4741C2.59766 12.62 3.04427 12.702 3.55469 12.7202C4.08333 12.7567 4.9401 12.7749 6.125 12.7749C7.3099 12.7749 8.15755 12.7567 8.66797 12.7202C9.19661 12.702 9.65234 12.6291 10.0352 12.5015C10.4909 12.3374 10.8828 12.0913 11.2109 11.7632C11.5573 11.4168 11.8125 11.0158 11.9766 10.5601C12.1042 10.1772 12.1771 9.73063 12.1953 9.22021C12.2318 8.69157 12.25 7.8348 12.25 6.6499C12.25 5.46501 12.2409 4.61735 12.2227 4.10693ZM10.9102 10.2593C10.6914 10.8062 10.2995 11.1981 9.73438 11.4351C9.44271 11.5444 8.95052 11.6174 8.25781 11.6538C7.875 11.672 7.3099 11.6812 6.5625 11.6812H5.6875C4.95833 11.6812 4.39323 11.672 3.99219 11.6538C3.31771 11.6174 2.82552 11.5444 2.51562 11.4351C1.96875 11.2163 1.57682 10.8244 1.33984 10.2593C1.23047 9.94938 1.15755 9.45719 1.12109 8.78271C1.10286 8.38167 1.09375 7.81657 1.09375 7.0874V6.2124C1.09375 5.48324 1.10286 4.91813 1.12109 4.51709C1.15755 3.82438 1.23047 3.33219 1.33984 3.04053C1.55859 2.47542 1.95052 2.0835 2.51562 1.86475C2.82552 1.75537 3.31771 1.68245 3.99219 1.646C4.39323 1.62777 4.95833 1.61865 5.6875 1.61865H6.5625C7.29167 1.61865 7.85677 1.62777 8.25781 1.646C8.95052 1.68245 9.44271 1.75537 9.73438 1.86475C10.2995 2.0835 10.6914 2.47542 10.9102 3.04053C11.0195 3.33219 11.0924 3.82438 11.1289 4.51709C11.1471 4.8999 11.1562 5.46501 11.1562 6.2124V7.0874C11.1562 7.81657 11.1471 8.38167 11.1289 8.78271C11.0924 9.45719 11.0195 9.94938 10.9102 10.2593Z" fill="#222222"/>
</svg>
