<svg width="14" height="13" viewBox="0 0 14 13" fill="none" xmlns="http://www.w3.org/2000/svg">
<path d="M12.5508 3.80615C12.569 3.87907 12.5781 3.99756 12.5781 4.16162C12.5781 5.47412 12.2591 6.74105 11.6211 7.9624C10.9648 9.25667 10.0443 10.2866 8.85938 11.0522C7.5651 11.909 6.07943 12.3374 4.40234 12.3374C2.79818 12.3374 1.33073 11.909 0 11.0522C0.200521 11.0705 0.428385 11.0796 0.683594 11.0796C2.01432 11.0796 3.20833 10.6694 4.26562 9.84912C3.6276 9.84912 3.0625 9.66683 2.57031 9.30225C2.09635 8.91943 1.76823 8.44548 1.58594 7.88037C1.76823 7.8986 1.94141 7.90771 2.10547 7.90771C2.36068 7.90771 2.61589 7.88037 2.87109 7.82568C2.21484 7.67985 1.66797 7.34261 1.23047 6.81396C0.792969 6.28532 0.574219 5.68376 0.574219 5.00928V4.95459C0.97526 5.19157 1.40365 5.31917 1.85938 5.3374C1.47656 5.06396 1.16667 4.71761 0.929688 4.29834C0.692708 3.87907 0.574219 3.42334 0.574219 2.93115C0.574219 2.42074 0.710938 1.93766 0.984375 1.48193C1.69531 2.37516 2.5612 3.0861 3.58203 3.61475C4.62109 4.14339 5.72396 4.43506 6.89062 4.48975C6.85417 4.271 6.83594 4.05225 6.83594 3.8335C6.83594 3.32308 6.96354 2.84912 7.21875 2.41162C7.47396 1.95589 7.82031 1.60042 8.25781 1.34521C8.69531 1.09001 9.16927 0.962402 9.67969 0.962402C10.099 0.962402 10.4818 1.04443 10.8281 1.2085C11.1927 1.37256 11.5117 1.59131 11.7852 1.86475C12.4414 1.73714 13.0521 1.50928 13.6172 1.18115C13.3984 1.85563 12.9792 2.38428 12.3594 2.76709C12.9062 2.69417 13.4531 2.53923 14 2.30225C13.599 2.88558 13.1159 3.38688 12.5508 3.80615Z" fill="#222222"/>
</svg>
